<?xml version="1.0" encoding="UTF-8"?>
<svg id="Capa_2" xmlns="http://www.w3.org/2000/svg" version="1.1" viewBox="0 0 1080 1080">
  <!-- Generator: Adobe Illustrator 29.3.1, SVG Export Plug-In . SVG Version: 2.1.0 Build 151)  -->
  <defs>
    <style>
      .st0 {
        fill: #fff;
      }

      .st1 {
        fill: #231f20;
      }

      .st2 {
        display: none;
      }
    </style>
  </defs>
  <g class="st2">
    <path class="st1" d="M528,193.4c40.1,0,71.3,4,93.6,12,22.2,8,41.1,16.4,56.5,25,7.4,4.3,13.4,7.6,18.1,9.7,4.6,2.2,9.1,3.2,13.4,3.2,6.2,0,10.7-3.4,13.4-10.2,2.8-6.8,5.1-17,6.9-30.6h21.3c-.6,13-1.4,28.1-2.3,45.4-.9,17.3-1.5,40.2-1.9,68.6-.3,28.4-.5,65.8-.5,112.1h-21.3c-2.5-34-10.3-67-23.6-99.1-13.3-32.1-31.5-58.7-54.7-79.7-23.2-21-50.8-31.5-82.9-31.5s-49.7,7.4-67.6,22.2c-17.9,14.8-26.9,36.1-26.9,63.9s5.6,42.5,16.7,58.8c11.1,16.4,28.6,33.5,52.3,51.4,23.8,17.9,55.1,40.5,94,67.6,27.8,19.2,53,38.3,75.5,57.4,22.5,19.2,40.6,40.8,54.2,64.8,13.6,24.1,20.4,53.1,20.4,87.1s-11.6,75.7-34.7,102.8c-23.2,27.2-53.9,47.4-92.2,60.7-38.3,13.3-80,19.9-125.1,19.9s-75.5-3.7-100.5-11.1c-25-7.4-46.2-15.1-63.5-23.2-13.6-8.6-24.1-13-31.5-13s-10.7,3.4-13.4,10.2c-2.8,6.8-5.1,17-6.9,30.6h-21.3c1.2-16.1,2-34.7,2.3-56,.3-21.3.6-48.9.9-82.9.3-34,.5-77.2.5-129.7h21.3c2.5,43.2,9.4,83.7,20.8,121.4,11.4,37.7,29,68.1,52.8,91.3,23.8,23.2,55.4,34.7,95,34.7s42.5-3.5,58.8-10.7c16.4-7.1,29.2-17.4,38.4-31,9.3-13.6,13.9-30,13.9-49.1s-5.9-48.6-17.6-68.1c-11.7-19.5-27.6-37.7-47.7-54.7-20.1-17-43.4-34.1-69.9-51.4-29-19.8-56.2-39.5-81.5-59.3-25.3-19.8-45.6-42-60.7-66.7-15.1-24.7-22.7-54-22.7-88s10.8-74,32.4-99.6c21.6-25.6,50-44.6,85.2-57,35.2-12.3,72.6-18.5,112.1-18.5Z"/>
  </g>
  <circle class="st0" cx="540" cy="540" r="540"/>
  <g>
    <path class="st1" d="M724,166.6c4.7-32,42.5-34,63.9-16.1,21.1,17.6,27.5,46.4,22.3,72.7-1.5,7.8-5.8,15.4-7.7,22.5-2,7.9-1.8,18.2-3.4,26.8-5.6,29.1-27.8,57.1-24.7,86.7.9,8.8,5.7,16.4,13.6,20.6,10.3,5.5,14.1-.8,20.5-7.9.2,5.1-3.1,9.3-6,13.1,20.8-2.6,23.6-27.6,9.1-40.2,17.5,5.6,22.1,28.8,15.6,44.3-10.4,24.7-38.1,28.6-60.9,19.6-25.8-10.1-44-35.9-48.3-62.9-1.8.3-1.1,5.2-1,6.5,1.3,18.2,8.8,35.1,21.1,48.3-1,1.6-2.2-.3-3-1-23.5-19.7-28.8-52.3-22.9-81.2,2.5-11.9,7.6-23.3,10.8-35-5.6-.7-11.1-2.3-16.4-4.3-25.8-9.9-41.8-34.2-63.8-49.9-43.5-31-127.5-40.2-160.2,10.6-41.4,64.4,30.4,121.7,79.6,151.4,12,7.3,36.3,22.6,48.3,27.2s29.4,4.7,41.4,7.9c45.5,12,87.1,39.4,115.3,76.9,14.2,18.9,28.6,37.9,42.7,56.9,45.8,61.6,61.4,135.1,26.6,206.6-13.8,28.4-28.7,59.4-49.7,83.2-45.2,51.4-103.9,93.9-174.1,100.6l-9.5-1c48.2-7,93.7-31.5,125.3-68.4.9-1,5.2-6.3,4.5-7.1-34.2,34.2-77.3,58.7-124.4,70.4-78.6,19.6-152.9,10.9-220.6-33.9-23.6-15.7-55.7-47.2-87.1-34.2-32.7,13.6-2.3,60.6,21.8,32.9l4.6-8c3.4,16.4-10.5,30.7-26.6,32.2-64.3,6-86.4-78.2-37.1-113.6,2.1-1.5,12.8-6.1,11.4-8.2-36.1-18.3-53.1-65.5-50.4-104.2,1.5-20.6,15.1-58.4,28.7-73.9,19.2-22,49.9-31.7,76.3-15.9,27,16.2,30.9,61.1-5.3,66.2,6.8-7.5,11.2-12.8,7.8-23.4-4.8-14.8-21.5-11.7-23.6,3-2.1,14.5,2.4,32.5,6.3,46.5,13.5,48.7,49.9,102.8,90.8,132.7,48.1,35.2,119.9,54.1,172.4,17.3-26.3,11-57.1,9.2-79-10.1-11-9.7-19.5-28.5-15.6-43.2l1.3,8.3c24.8,73.6,123.6,44.3,136.3-23.2,18.4-97.8-95.2-149.2-162.8-189.8-43.5-10.4-87.1-26.9-119.7-58.4s-10.7-13-16.2-18.1c-7.7-7.2-17.5-13.4-25.1-21.2-88-90.4-48.2-256.2,51-321.4,17.1-11.3,39.5-21.1,58-30.5,28.3-14.4,44.6-16.7,75.7-21,34.9-4.8,62.9-8.5,98.3-2.7,38.6,6.3,74.1,23.6,108.5,41.5,17.4,9,47.2,33.3,65.9,15.6,15.6-14.7-1.4-37.8-21.7-26.7s-5,6-9,7.6ZM675.7,181.6c-36-31.4-76.9-47.4-125.3-42.2-98.7,10.6-157.7,112.2-89.1,193.7.8.9,6,7.6,7,6.6-25.3-34.4-36.1-83.1-16.8-123,.6-1.2,1.3-3.8,2.7-3.8-3.6,12.6-7.3,25.5-8.1,38.7-3.5,59.1,36.3,105.1,84.7,132.8,1.3.7,2.2,2,3.9,1.6-22.5-17-45.7-36.7-59.6-61.7-20.7-37.3-25.8-72.8-4.4-111.4,31.6-56.8,103.7-68.6,160.2-43.4,33.5,14.9,58.5,45.3,95.9,51.5l-8.4.9c-26.4-3-46.6-21.2-69.1-33.1-.4,1.9,1,2.4,2,3.5,26.3,31.2,53.6,59.9,99.2,48.9l10.5-5.1c-21.5,6.2-46.2,2.5-63.4-12.1,28.1,13.6,63.3,15.9,84.5-10.6,23.3-29,6.2-67.3-31.2-65.9l12.4,5.2c23.8,15.9,13.3,55.7-14.2,60-43.4,6.8-86.5-37.9-124.8-52.9-16.3-6.4-33.8-9.7-51.1-12.3-4-.2-8.1.2-12.1,0s-3.7.8-3.5-1c32.5-2.4,63.3,5.7,91.9,20.3,8.9,4.5,16.8,10.7,25.8,14.9ZM494.5,139.4c-49.8,9.9-98.1,38.9-118.9,86.9-9.8,22.6-12.2,51.8-4.5,75.4.3,1.1.3,3,1.7,2.8-1.4-18-1.8-35.7,2.5-53.3l5.5-17.1c-10,41.6-4.4,84.7,20.3,120.1,10.4,14.9,29.6,32.5,47.1,38.5,1,.3,4.2,1.5,4-.5-43-24.1-67.7-81.9-62.3-130.2l2.9-12.7c-1.4,16.2-.5,32.7,3.3,48.5,15.1,63.4,81.1,102.9,141.6,113.5l-36.2-16.6c-71.5-38.5-111.2-113.2-74.9-191.7,2.3-4.9,6.7-10.4,8.5-14.6s.3-1.6-.5-1.5c-12.2,13.1-21.6,29.1-26.7,46.3-1.8.2-1-3.3-.9-4.4,3.5-27.4,34.9-61.2,58-74.9l29.5-14.3ZM658.6,229c-12.4-17.2-24.9-29.3-44.8-37.3-23.3-9.4-48-13.3-72.8-8.4l-9.2,3.4c17.1-2.8,34.8-3.2,51.8,1.1l13.7,4.9c-35-6.2-75.4-4.9-102.6,20.6l21.1-11.1c40-13.8,85.1-7.5,121.4,13.4,6.2,3.6,11.6,8.4,17.4,11.8,1.3.8,2,2,4.1,1.5ZM743.1,258.2c.9,2.8,7,1.2,9.4.9,33.8-4.8,60.2-41.9,47.9-75.3l-2.3,16.3c-10.1,38.9-51.4,58.7-89.3,48.1l8.8,3.7c16.1,4.5,31.9,2.3,47.5-2.7l-9.1,5.5-13.1,3.6ZM360.7,439.3c-6.3-2.8-12.5-7.5-17.6-12-58.8-51.3-61.5-132.8-23.4-197.6,3.7-6.4,9-12,11.9-18.8-34.8,34.8-53.2,85-50.3,134.3.6,10.3,3.3,20.4,4,30.7l-5.9-20.7c-3.3-22.2-3-46,2.4-67.8,2.6-10.7,7.5-20.7,10.6-31.2-4.7,5.9-8.3,14.4-11.2,21.5-39.9,97.1,8.8,193,102.9,230.6,32.8,13.1,55,13.6,90,11.6,68.2-3.9,124.3-36.8,196-26.9,18,2.5,35,9,52.1,14.8-14.5-10.2-33.8-16.1-51.1-19.8-37.8-8-76.2-4.2-113.9,1.7l32-7.7c96.7-15.4,168.9,23.3,217.1,105.4.3.6.9,3.9,2.5,2s-17.1-34.9-19.9-39c-37.4-55.9-105.7-84.9-171.8-87.9-82.8-3.7-169,30.3-243.4-21.3-20-13.9-37.1-32.9-50.5-53.1-1.4.8,0,2.6.5,3.6,8.8,18.2,22.5,34.1,37.3,47.8ZM608.3,440.3c-45.7-16.6-95.5-17.1-141.7-32-67.8-21.8-120.3-70.6-123.1-145.6-.2-4.5,2.4-11.3-1-13.6-2.2,21.2-1,40.9,4.5,61.4,11.4,42.2,40.8,71.9,78,93.1l-12.6-4.5c-29.6-14.8-52.2-40-68.4-68.4-.5,3.1,1.6,7.3,2.8,10.3,6,15.9,14.3,30.6,24.1,44.3,1.5,2.1,7.4,8.3,7.9,9.3s.3,1.7-.5,1.5c-22.8-19.2-41-46.8-49.1-75.7-2.1-7.4-2.5-15.7-4.6-22.6s-.4-3.1-2.2-3.4c-.1,43.5,14.7,87.7,47.3,117.3,13.5,12.3,36.5,27,54.3,31.2,1,.2,3.3,1.3,3.1-.5-19.8-9.9-42.1-23.8-54.8-42.3-.6-.8-2.7-2-1-3,32.2,28.8,74.6,45.1,117.7,47.3,11.6.6,22.9-.4,34.6.7s3.4,1.2,3.2-.7c-32.9-5.5-67.2-10.9-96.3-28-.5-.3-3.2-1.5-1.8-2.2,20.9,9.3,43.2,15.7,65.7,19.8,37,6.9,73.7,5.6,110.9,13.9,8.7,1.9,19.3,6.5,27.8,7.5,1.1.1,2.7.7,2.4-.9-25.3-10-52.4-16.6-79.5-19.1.3-1.8,5.1-1.1,6.5-1,14.4.9,28.4,4.9,42.6,6.8,1.1.1,3.5,1.1,3.2-.7ZM766.3,347.7c1.2-30.7,25.2-55.6,25.2-86.5-3,2.2-4.6,6.2-6.2,9.4-9.5,19.6-23.7,54-21,75.7.2,1.8-.3,1.6,2,1.5ZM752.2,347.7c-5.3-20.5.8-39.4,8-58.4-19.4,26-19.2,63.5-3.2,91.3,13.3,23,40.1,32.8,60.6,11.9l-12.7,4.4c-13.8,1.7-22.8-2.3-31.6-12.5-18-21.1-14.3-52.7-9.1-78-2.6-.5-1.8.5-2.5,2-3.5,7.5-6.4,20.5-7.5,28.8-.4,3,.2,6.1-.1,8.9s-.7,3.1-2,1.5ZM745.1,369.9c-4.7-18.1-7.2-35.1-5-53.8s3.2-13.7,3.5-20.6c-9.5,19.4-9.4,44.8-3,65.4.9,2.8,2.1,7.3,4.5,9ZM313.4,513.8l-17-29.8c-12.3-35.2-31.6-76-37.3-112.7-.4-2.8.8-7.9-2.1-9.4-5.9,55.9,13.2,115,56.3,152ZM758.2,502.7c-26-30.6-63.3-50.8-102.7-58.4l32.5,21.3,35.9,15.4,34.2,21.6ZM430.1,586.3c-37.7-20.1-71.8-46.5-101.2-77.5l-25.6-33.2c3.9,12.2,12.2,25.6,19.7,36.1,22.7,31.8,65.4,65.8,104,75.1,1,.2,3.3,1.3,3.1-.5ZM817.6,780.5c13.7-37.1,17.7-76.5,8-115.1-20.5-81.7-91.3-148.1-177.5-151.6-3-.1-9.1-1-10.6,2,35.4,3,72.2,15.9,99.6,38.2l-19.4-10.2c-48.4-21.6-105.2-33-157.7-20.9-.2,1.8,2.3.9,3.5,1,16.1.6,32.2-.5,48.3,1,33.9,3.2,67.6,12.5,97.1,29.2.2,1.9-2.1.9-3,.5-61.2-22.3-86.4-22.5-151.3-14.5-1.5.2-6.1.5-6.7,1.9,75.8,8.7,161.6,15,215.4,76,3.5,4,13.3,15.9,15.1,20.2.2.5.3,1.6-.5,1.5l-13.1-14.1-.5,1.5c13.6,18.9,29.1,39.2,37.7,60.9,3.4,8.6,4.4,17.7,8.1,26.1,1.1-1.1.4-3.8.2-5.3-2.8-21.7-10.9-42.9-19.8-62.7-.2-3,1.1-.9,1.8.2,10.2,15.3,17.4,34.8,21.3,52.7,1.7.3,1.1-2.4,1-3.5-.3-3.8-1.6-9.7-2.5-13.6-8.5-40.2-32.6-77.1-61.9-105.1,1.9-.8,5,2.4,6.5,3.6,54.9,42.5,75.4,109.9,64.8,177.4-1.1,6.8-3,13.1-4.4,19.7s-1.4,3.3.5,3.1ZM708.9,710c-25.6-45.9-70.7-78.2-119.3-96.6-47.8-18.2-99.7-27.8-146.4-49.3-.6,2.7.7,1.7,2,2.5,11.1,6.5,25.8,13.3,37.6,18.8,48.6,22.6,100.7,39,145.6,68.8,2.2,1.9.6,1.8-1.1,1.1-7.5-3.4-15-8.9-22.7-12.5-27.2-12.9-61.2-25-90.2-33.6-5.1-1.5-11.6-3.7-16.6-4.5-1.1-.2-3.5-1.1-3.3.7,49.6,21.2,101.9,39.6,144.8,73.1,69.7,54.4,82.3,150.7,21.3,217.3l-25.2,23.6c49.2-26.5,77.5-80.7,74.5-136.4-.9-17.4-6.2-34-10.1-50.8l6.8,15.9c11.4,37.6,10.5,78.5-7.2,114-3.4,6.9-8.5,13.1-11.6,20.1,33.7-35.4,45.3-86.9,40.3-134.9l4,18.1c2-37.3-11.4-76.2-33.4-106-27.8-37.6-70.5-60.6-114.5-74.1,1.6,3.1,6,3.4,8.7,4.8,25.8,13.5,51.2,28.9,71.8,49.5-1.2,1-13.6-8.9-16.2-10.5-10.1-6.2-21-11.5-31.6-16.7l-.5,2c32.7,16.9,64.1,43.5,83.6,75,3.1,5,7.6,12.2,9.6,17.6s1.3,3.3-.5,3ZM736.1,819.7c35.5-82.4,1.5-175.5-70.1-225.2-13.3-9.3-27.9-17.7-43.6-22.3l29.5,18.3c27.3,19.7,52.7,43.9,66.8,75.1.6,1.3,3.7,6.7,1.3,7.2-4.1-7.7-9.9-14.6-15.6-21.1-3-3.4-7.3-8.9-10.6-11.6s-2-2.6-3-1c32.3,36.8,53.2,85.2,51.4,134.9-.6,14.8-3.4,28.4-6.6,42.7-.2,1-1.3,3.3.5,3.1ZM837.7,753.3c16.9-46.5,14.2-97.3-6.2-142.3-3.2-7-7.2-14.7-11.9-20.8,2.8,11.7,6.4,23.2,8.8,35,5.9,29,13.9,65.1,12.4,94.4-.5,10-3.1,20.3-3.9,30.3,0,1.1-.9,3.6.9,3.4ZM341.5,659.7c2.4-41.6-48.2-54.6-74-25.2-16.4,18.7-18.2,44.9-13.6,68.4l3.3-23.3c1.5-34.9,54.3-65.8,77.6-33,2.9,4,3.5,9.4,6.6,13ZM295.3,736.2c-7.8-21.9-14.3-44.9-7.1-68,1.9-6.2,5.5-11.7,8.1-17.6-13.5,7.2-22.3,22.8-25.5,37.4-7.7,35.2,5.8,69.4,32.5,92.4-7-17.4-18-39.3-20-58s-.9-3.6.9-3.4c8.4,30.2,28.7,63.2,52.8,83.5,1.1.9,1.6,2.4,3.5,2-3.6-5.8-8.5-10.8-11.9-16.8-.5-.9-2.2-2.5-.7-3.3,12.1,14.4,25.8,29.2,40.8,40.7,2.5,1.9,6,4.5,9,5.6-29.3-27.9-51.7-63.8-65.9-101.7-1.1-3-1.5-7.3-3.1-10-.8-1.4-1.7-1.6-1.5.5,1,13.5,7.9,28.4,12.1,41.3,0,3.9-3.6-2.9-3.8-3.2-7.7-13.1-16.7-32.5-20.2-47.2s-2-18-3.6-21.5c-.2-.5-1.3-1.3-1.5-1-1.9,16,2.7,30.1,5.6,45.2.2,1,1.3,3.3-.5,3.1ZM780.4,762.4c-1.9-39.6-11.9-81.7-40.3-110.7,5.3,11,11.7,21.2,16.1,32.7,12.5,33,15.7,66.5,8.5,101.2-4.4,21.5-12.2,41.8-21.6,61.4,15-16,25.6-36.2,31.2-57.4,1.7-.2,1.1,3.5,1,4.6-1.5,24.5-13.9,48.9-25.8,69.8l-18.5,25.2c1.9.4,2.4-1.1,3.5-2,34.4-28.7,57.6-79.6,57.5-124.5,0-25.9-6.8-56.6-21.8-77.8,8.3,24.1,12.1,48.4,11.1,74,0,1.2.8,3.7-1,3.5ZM297.3,791.5c-14.9-14.2-25.9-30.1-33.7-49.3-9.1-22.5-18.7-45-17.6-69.9,0-2.2,2.6-7.3,0-8.6-12.9,43.3,8,95.6,42.8,122.7,2.4,1.9,5.4,4.7,8.5,5.1ZM303.3,805.6c-6.9-5.7-14.8-10.4-21.6-16.1-19.1-16.1-33.7-38-42.1-61.6l-6.7-35c.4,6.4-1.9,13.3-2.1,19.6-.8,22.6,8.9,49.9,24,66.7,1,1.1,1.1,2.8,3.2,2.3-2.5-4.6-6.1-8.5-8.6-13.1s-3.9-7.6-4-11.1c13.1,22.2,31.2,43.3,57.9,48.3ZM654.6,832.8c15.1-46.3,5.3-98.6-27.2-134.9,3,7.5,7.9,14,11.2,21.5,18.3,41.4,17,88.6-6.8,127.4-6.5,10.6-16.6,23.3-26.1,31.3-1.1.9-1.6,2.4-3.5,2,27.2-33.8,43.5-76.1,32.7-119.8-.4-1.6-.7-5.5-2.5-6,2.1,20.1,1.6,39-3.3,58.6-16.4,65.5-78.7,108-144.6,110.5-.2,1.8,2.3.9,3.5,1,21.1.9,40.4-.6,60.4-7,24.2-7.8,46.9-20.9,65.4-38.3l1.5.5c-37.9,42.6-96.5,59.1-152.2,48.5l-58.1-18.3c38.7,25.5,86.9,38.4,133.2,31.5,31-4.6,63.2-18.9,88.1-37.7,2.6-1.9,10.4-9.9,11.7-10.5s1.7-.3,1.5.5c-19.6,20-43.6,36.1-70.4,44.8-.2,1.9,3.3,1,4.3.8,13.4-2.8,34.8-12.7,46.6-19.9,40.1-24.5,72.9-74.1,70.9-122.3,0-1.2.8-3.7-1-3.5-.3,15.6-4.7,30.9-10.6,45.3-1.6,4-3.3,9.4-6.5,12.1,2.2-7.7,5.8-15.1,7.8-22.9,3.6-14.3,5.8-39.3,1.6-53.4-.5-1.7.4-2.6-2.3-2.2,3.4,38.9-9.1,77.9-35.7,106.7-6.2,6.7-14.4,14.4-22.7,18.1,40-35.7,60.2-86.7,46-140.1l-5.7-13.9c.2,9.7,3.4,19.1,4,28.7,1.1,17.9-1.8,35.3-7,52.4l-4.1,8.5ZM323.4,824.8h-19.6c-3,0-14.9,4.4-18.3,5.9-43.5,18.6-48.5,81,.2,94.8,1.4-.7-1.3-1.9-1.8-2.2-41.9-24.3-22.4-85.2,23-89.4,53.1-4.9,81.9,37.8,130.3,48.3l-29.5-17.3c-33.8-26.9-68.9-56.5-115.5-47.6-23.3,4.5-42.3,22.9-45.2,46.8l11.1-19.6c14.1-16.3,35.5-23,56.8-21.6l8.6,2ZM500.6,896.2c-17-2.7-33.5-1.4-50.5-4.4-14.5-2.5-28.4-7.6-42.1-12.8,17.7,12.4,39.6,18.1,60.9,21.1.4-3.3-6-1.7-6.5-4,11.6.2,23.1,1.5,34.7,1,1.2,0,3.7.8,3.5-1Z"/>
    <path class="st0" d="M360.7,439.3c-14.8-13.6-28.4-29.5-37.3-47.8s-1.9-2.8-.5-3.6c13.5,20.2,30.5,39.3,50.5,53.1,74.4,51.6,160.6,17.6,243.4,21.3,66,3,134.4,32,171.8,87.9,2.7,4.1,21.4,37.1,19.9,39s-2.2-1.4-2.5-2c-48.2-82.1-120.3-120.7-217.1-105.4l-32,7.7c37.8-5.9,76.2-9.7,113.9-1.7s36.7,9.6,51.1,19.8c-17.1-5.8-34.1-12.3-52.1-14.8-71.7-9.9-127.8,23-196,26.9-35,2-57.3,1.5-90-11.6-94.1-37.6-142.7-133.6-102.9-230.6,2.9-7.1,6.6-15.6,11.2-21.5-3,10.5-7.9,20.5-10.6,31.2-5.4,21.9-5.7,45.7-2.4,67.8l5.9,20.7c-.7-10.3-3.4-20.4-4-30.7-2.9-49.4,15.5-99.5,50.3-134.3-2.9,6.8-8.1,12.5-11.9,18.8-38.1,64.8-35.4,146.3,23.4,197.6,5.2,4.5,11.4,9.2,17.6,12ZM521.7,489.6c-45,7.6-92,6.3-135.1-9.3-47.3-17.2-89.5-54.9-106.5-102.9l-7-23.7c3.7,63.5,52.1,120.2,109.7,143.4,35.9,14.4,75.7,18.7,114.1,13.5l12.7-2.9c-25.3,1.7-50.7,1.6-75.8-2.2-32.5-4.9-72.2-21.1-96.8-43.1-1.2-1.1-4-3.3-4-5.1,50.9,38.2,115.8,50,177.8,35.9,2.6-.6,5.5-1.2,8.1-2s3-.3,2.8-1.7Z"/>
    <path class="st0" d="M708.9,710c1.9.2.9-2.1.5-3-2-5.4-6.5-12.6-9.6-17.6-19.4-31.5-50.9-58-83.6-75l.5-2c10.6,5.2,21.6,10.5,31.6,16.7,2.5,1.6,15,11.4,16.2,10.5-20.6-20.6-46-36-71.8-49.5-2.8-1.5-7.1-1.7-8.7-4.8,44.1,13.6,86.7,36.5,114.5,74.1,22,29.8,35.4,68.7,33.4,106l-4-18.1c5.1,47.9-6.5,99.5-40.3,134.9,3.1-7,8.2-13.2,11.6-20.1,17.7-35.5,18.6-76.4,7.2-114l-6.8-15.9c3.9,16.8,9.2,33.4,10.1,50.8,3,55.8-25.3,109.9-74.5,136.4l25.2-23.6c61-66.6,48.4-163-21.3-217.3-43-33.5-95.2-51.9-144.8-73.1-.2-1.8,2.2-.9,3.3-.7,5.1.8,11.6,3,16.6,4.5,28.9,8.6,63,20.7,90.2,33.6,7.7,3.7,15.2,9.1,22.7,12.5,1.6.7,3.3.9,1.1-1.1-44.9-29.8-97-46.2-145.6-68.8-11.8-5.5-26.5-12.3-37.6-18.8-1.3-.8-2.5.2-2-2.5,46.7,21.5,98.6,31.1,146.4,49.3,48.5,18.4,93.7,50.7,119.3,96.6Z"/>
    <path class="st0" d="M675.7,181.6c-9-4.2-16.9-10.4-25.8-14.9-28.7-14.5-59.5-22.7-91.9-20.3-.2,1.8,2.3.9,3.5,1,4,.2,8.1-.2,12.1,0,17.3,2.6,34.8,5.9,51.1,12.3,38.3,15,81.4,59.6,124.8,52.9,27.4-4.3,38-44,14.2-60l-12.4-5.2c37.4-1.4,54.4,36.9,31.2,65.9-21.3,26.5-56.5,24.2-84.5,10.6,17.2,14.5,41.9,18.3,63.4,12.1l-10.5,5.1c-45.5,11.1-72.9-17.7-99.2-48.9-1-1.1-2.4-1.6-2-3.5,22.5,11.9,42.7,30.1,69.1,33.1l8.4-.9c-37.4-6.2-62.4-36.6-95.9-51.5-56.5-25.2-128.6-13.4-160.2,43.4-21.5,38.6-16.4,74.1,4.4,111.4,13.9,25,37.1,44.7,59.6,61.7-1.7.4-2.7-.9-3.9-1.6-48.4-27.7-88.2-73.7-84.7-132.8.8-13.2,4.5-26.1,8.1-38.7-1.4,0-2.1,2.7-2.7,3.8-19.3,39.8-8.5,88.6,16.8,123-1,1.1-6.3-5.7-7-6.6-68.6-81.5-9.7-183.1,89.1-193.7,48.4-5.2,89.3,10.8,125.3,42.2Z"/>
    <path class="st0" d="M817.6,780.5c-1.9.2-.8-2-.5-3.1,1.5-6.6,3.4-13,4.4-19.7,10.6-67.6-9.8-135-64.8-177.4-1.5-1.1-4.6-4.4-6.5-3.6,29.3,28,53.4,65,61.9,105.1.8,3.9,2.2,9.8,2.5,13.6,0,1.1.7,3.7-1,3.5-3.9-17.9-11.1-37.4-21.3-52.7-.7-1-2-3.1-1.8-.2,8.9,19.8,17,41,19.8,62.7.2,1.5.9,4.1-.2,5.3-3.7-8.4-4.7-17.6-8.1-26.1-8.6-21.7-24.1-42-37.7-60.9l.5-1.5,13.1,14.1c.7.2.7-1,.5-1.5-1.7-4.2-11.6-16.2-15.1-20.2-53.8-61-139.6-67.2-215.4-76,.6-1.4,5.2-1.7,6.7-1.9,64.9-8,90.1-7.7,151.3,14.5.9.3,3.3,1.3,3-.5-29.6-16.7-63.2-26-97.1-29.2-16.1-1.5-32.2-.4-48.3-1-1.2,0-3.7.8-3.5-1,52.5-12.1,109.3-.6,157.7,20.9l19.4,10.2c-27.5-22.4-64.2-35.2-99.6-38.2,1.5-3.1,7.6-2.2,10.6-2,86.2,3.5,157,69.9,177.5,151.6,9.7,38.6,5.7,78.1-8,115.1Z"/>
    <path class="st0" d="M654.6,832.8l4.1-8.5c5.2-17,8.1-34.4,7-52.4-.6-9.6-3.8-19-4-28.7l5.7,13.9c14.1,53.4-6,104.4-46,140.1,8.3-3.7,16.5-11.4,22.7-18.1,26.6-28.7,39.1-67.8,35.7-106.7,2.7-.4,1.8.4,2.3,2.2,4.2,14.1,2.1,39.1-1.6,53.4-2,7.8-5.6,15.2-7.8,22.9,3.2-2.7,4.9-8.2,6.5-12.1,5.9-14.3,10.3-29.6,10.6-45.3,1.8-.2.9,2.3,1,3.5,2,48.2-30.8,97.8-70.9,122.3-11.8,7.2-33.2,17-46.6,19.9-1,.2-4.5,1.1-4.3-.8,26.8-8.7,50.8-24.8,70.4-44.8.2-.7-1.1-.7-1.5-.5-1.3.6-9.1,8.6-11.7,10.5-25,18.7-57.2,33.1-88.1,37.7-46.3,6.8-94.5-6.1-133.2-31.5l58.1,18.3c55.7,10.6,114.3-6,152.2-48.5l-1.5-.5c-18.5,17.4-41.2,30.5-65.4,38.3-20.1,6.4-39.4,7.9-60.4,7s-3.7.8-3.5-1c65.9-2.5,128.2-45,144.6-110.5,4.9-19.6,5.4-38.5,3.3-58.6,1.8.5,2.1,4.4,2.5,6,10.7,43.7-5.6,85.9-32.7,119.8,1.9.4,2.4-1.1,3.5-2,9.5-8,19.6-20.7,26.1-31.3,23.8-38.8,25.1-86,6.8-127.4-3.3-7.4-8.3-13.9-11.2-21.5,32.4,36.3,42.3,88.6,27.2,134.9Z"/>
    <path class="st0" d="M494.5,139.4l-29.5,14.3c-23,13.7-54.4,47.5-58,74.9s-.9,4.6.9,4.4c5.1-17.2,14.5-33.2,26.7-46.3.7-.2.7,1,.5,1.5-1.8,4.2-6.2,9.7-8.5,14.6-36.2,78.5,3.5,153.3,74.9,191.7l36.2,16.6c-60.5-10.6-126.5-50.1-141.6-113.5-3.8-15.8-4.8-32.3-3.3-48.5l-2.9,12.7c-5.5,48.3,19.2,106.1,62.3,130.2.2,2-3.1.8-4,.5-17.5-5.9-36.6-23.6-47.1-38.5-24.8-35.4-30.3-78.4-20.3-120.1l-5.5,17.1c-4.3,17.7-3.9,35.3-2.5,53.3-1.5.2-1.4-1.7-1.7-2.8-7.7-23.6-5.3-52.8,4.5-75.4,20.8-47.9,69.1-77,118.9-86.9Z"/>
    <path class="st0" d="M608.3,440.3c.2,1.8-2.1.9-3.2.7-14.2-1.9-28.2-5.8-42.6-6.8-1.4,0-6.2-.9-6.5,1,27.1,2.5,54.2,9.2,79.5,19.1.3,1.6-1.3,1-2.4.9-8.5-1-19.1-5.5-27.8-7.5-37.2-8.3-74-7-110.9-13.9-22.5-4.2-44.8-10.6-65.7-19.8-1.4.7,1.3,1.9,1.8,2.2,29.1,17.1,63.4,22.5,96.3,28,.2,1.9-2.1.8-3.2.7-11.6-1.1-23,0-34.6-.7-43.2-2.3-85.6-18.5-117.7-47.3-1.7,1.1.4,2.2,1,3,12.8,18.4,35,32.4,54.8,42.3.2,1.9-2,.8-3.1.5-17.8-4.3-40.8-19-54.3-31.2-32.6-29.6-47.4-73.8-47.3-117.3,1.8.3,1.7,2,2.2,3.4,2.1,6.9,2.6,15.2,4.6,22.6,8.1,28.9,26.3,56.5,49.1,75.7.7.2.7-1.1.5-1.5-.4-1-6.3-7.1-7.9-9.3-9.8-13.8-18.1-28.5-24.1-44.3-1.1-3-3.3-7.2-2.8-10.3,16.3,28.5,38.8,53.6,68.4,68.4l12.6,4.5c-37.2-21.2-66.5-50.9-78-93.1-5.6-20.5-6.7-40.2-4.5-61.4,3.3,2.4.8,9.2,1,13.6,2.7,75,55.2,123.8,123.1,145.6,46.2,14.8,96,15.3,141.7,32Z"/>
    <path class="st0" d="M780.4,762.4c1.8.2.9-2.3,1-3.5,1-25.6-2.7-49.8-11.1-74,15,21.2,21.7,51.9,21.8,77.8.1,44.9-23.1,95.7-57.5,124.5-1.1.9-1.6,2.4-3.5,2l18.5-25.2c11.9-20.9,24.3-45.3,25.8-69.8,0-1.1.7-4.7-1-4.6-5.6,21.2-16.2,41.4-31.2,57.4,9.4-19.6,17.2-39.9,21.6-61.4,7.1-34.7,4-68.2-8.5-101.2-4.4-11.5-10.8-21.7-16.1-32.7,28.3,29,38.4,71.1,40.3,110.7Z"/>
    <path class="st0" d="M295.3,736.2c1.9.2.7-2,.5-3.1-2.8-15.2-7.5-29.2-5.6-45.2.2-.3,1.3.5,1.5,1,1.6,3.5,2.4,16.2,3.6,21.5,3.5,14.7,12.5,34.1,20.2,47.2s3.9,7.1,3.8,3.2c-4.2-12.8-11.1-27.8-12.1-41.3s.8-1.9,1.5-.5c1.5,2.7,1.9,7,3.1,10,14.2,37.9,36.6,73.8,65.9,101.7-2.9-1.1-6.5-3.7-9-5.6-15-11.5-28.8-26.2-40.8-40.7-1.5.8.2,2.4.7,3.3,3.4,6,8.3,11,11.9,16.8-1.9.4-2.4-1.1-3.5-2-24.2-20.3-44.4-53.3-52.8-83.5-1.8-.2-1,2.3-.9,3.4,2,18.7,13,40.6,20,58-26.7-23-40.3-57.3-32.5-92.4,3.2-14.6,12-30.2,25.5-37.4-2.6,5.9-6.2,11.4-8.1,17.6-7.2,23.1-.7,46.1,7.1,68Z"/>
    <path class="st0" d="M323.4,824.8l-8.6-2c-21.3-1.4-42.7,5.3-56.8,21.6l-11.1,19.6c3-23.9,21.9-42.4,45.2-46.8,46.6-8.9,81.6,20.8,115.5,47.6l29.5,17.3c-48.4-10.4-77.2-53.2-130.3-48.3-45.3,4.2-64.9,65-23,89.4.5.3,3.2,1.5,1.8,2.2-48.6-13.8-43.7-76.2-.2-94.8,3.4-1.5,15.3-5.9,18.3-5.9h19.6Z"/>
    <path class="st0" d="M736.1,819.7c-1.9.2-.8-2-.5-3.1,3.3-14.3,6.1-27.8,6.6-42.7,1.8-49.8-19.1-98.1-51.4-134.9,1-1.6,2.2.3,3,1,3.2,2.7,7.6,8.2,10.6,11.6,5.7,6.6,11.5,13.4,15.6,21.1,2.4-.6-.7-6-1.3-7.2-14.1-31.2-39.5-55.4-66.8-75.1l-29.5-18.3c15.7,4.6,30.3,13.1,43.6,22.3,71.6,49.8,105.6,142.8,70.1,225.2Z"/>
    <path class="st0" d="M341.5,659.7c-3.1-3.6-3.7-9-6.6-13-23.3-32.8-76.1-2-77.6,33l-3.3,23.3c-4.7-23.6-2.9-49.7,13.6-68.4,25.8-29.4,76.4-16.4,74,25.2Z"/>
    <path class="st0" d="M313.4,513.8c-43.1-36.9-62.2-96.1-56.3-152,2.9,1.5,1.7,6.6,2.1,9.4,5.7,36.7,25,77.5,37.3,112.7l17,29.8Z"/>
    <path class="st0" d="M658.6,229c-2,.5-2.7-.7-4.1-1.5-5.8-3.4-11.2-8.2-17.4-11.8-36.3-20.8-81.4-27.2-121.4-13.4l-21.1,11.1c27.3-25.6,67.6-26.9,102.6-20.6l-13.7-4.9c-16.9-4.3-34.7-3.9-51.8-1.1l9.2-3.4c24.8-4.9,49.6-1,72.8,8.4,19.9,8,32.4,20.1,44.8,37.3Z"/>
    <path class="st0" d="M752.2,347.7c1.3,1.6,1.8-.1,2-1.5.4-2.8-.3-5.9.1-8.9,1.1-8.3,4-21.3,7.5-28.8.7-1.5-.2-2.5,2.5-2-5.2,25.2-8.9,56.9,9.1,78,8.8,10.2,17.8,14.2,31.6,12.5l12.7-4.4c-20.5,20.9-47.2,11.1-60.6-11.9-16.1-27.8-16.2-65.2,3.2-91.3-7.2,19-13.3,37.9-8,58.4Z"/>
    <path class="st0" d="M837.7,753.3c-1.8.2-1-2.3-.9-3.4.9-9.9,3.4-20.3,3.9-30.3,1.5-29.3-6.5-65.4-12.4-94.4-2.4-11.8-6-23.3-8.8-35,4.8,6,8.8,13.8,11.9,20.8,20.3,45,23,95.7,6.2,142.3Z"/>
    <path class="st0" d="M430.1,586.3c.2,1.9-2.1.8-3.1.5-38.6-9.3-81.3-43.3-104-75.1-7.5-10.5-15.8-23.9-19.7-36.1l25.6,33.2c29.3,31,63.5,57.4,101.2,77.5Z"/>
    <path class="st0" d="M303.3,805.6c-26.7-5-44.8-26.1-57.9-48.3,0,3.5,2.3,8,4,11.1,2.5,4.6,6.1,8.5,8.6,13.1-2.1.5-2.3-1.2-3.2-2.3-15.1-16.8-24.7-44.1-24-66.7.2-6.2,2.4-13.2,2.1-19.6l6.7,35c8.3,23.6,23,45.5,42.1,61.6,6.8,5.8,14.8,10.4,21.6,16.1Z"/>
    <path class="st0" d="M743.1,258.2l13.1-3.6,9.1-5.5c-15.6,5-31.4,7.3-47.5,2.7l-8.8-3.7c37.9,10.6,79.2-9.2,89.3-48.1l2.3-16.3c12.3,33.4-14.1,70.5-47.9,75.3-2.4.3-8.5,1.9-9.4-.9Z"/>
    <path class="st0" d="M297.3,791.5c-3.1-.4-6.1-3.2-8.5-5.1-34.8-27.2-55.7-79.4-42.8-122.7,2.6,1.2,0,6.4,0,8.6-1.1,24.9,8.5,47.4,17.6,69.9,7.8,19.2,18.8,35.1,33.7,49.3Z"/>
    <path class="st0" d="M758.2,502.7l-34.2-21.6-35.9-15.4-32.5-21.3c39.4,7.5,76.7,27.7,102.7,58.4Z"/>
    <path class="st0" d="M766.3,347.7c-2.4.2-1.8.3-2-1.5-2.8-21.6,11.5-56,21-75.7,1.6-3.2,3.2-7.2,6.2-9.4,0,30.9-24,55.9-25.2,86.5Z"/>
    <path class="st0" d="M500.6,896.2c.2,1.8-2.3.9-3.5,1-11.7.5-23.1-.8-34.7-1,.5,2.4,6.9.8,6.5,4-21.3-3-43.2-8.8-60.9-21.1,13.7,5.2,27.6,10.3,42.1,12.8,17,2.9,33.5,1.7,50.5,4.4Z"/>
    <path class="st0" d="M745.1,369.9c-2.4-1.8-3.7-6.3-4.5-9-6.4-20.6-6.5-46,3-65.4-.3,6.9-2.7,13.7-3.5,20.6-2.2,18.7.3,35.8,5,53.8Z"/>
    <path class="st1" d="M521.7,489.6c.2,1.4-1.7,1.4-2.8,1.7-2.5.8-5.4,1.4-8.1,2-62,14-126.9,2.2-177.8-35.9,0,1.7,2.7,4,4,5.1,24.6,22,64.3,38.2,96.8,43.1,25.1,3.7,50.5,3.9,75.8,2.2l-12.7,2.9c-38.4,5.2-78.1.9-114.1-13.5-57.7-23.2-106-79.9-109.7-143.4l7,23.7c17,48,59.2,85.7,106.5,102.9,43.1,15.6,90.1,16.9,135.1,9.3Z"/>
  </g>
</svg>