<?xml version="1.0" encoding="UTF-8"?>
<svg id="Capa_1" xmlns="http://www.w3.org/2000/svg" version="1.1" viewBox="0 0 1166.2 263.7">
  <!-- Generator: Adobe Illustrator 29.3.1, SVG Export Plug-In . SVG Version: 2.1.0 Build 151)  -->
  <defs>
    <style>
      .st0, .st1, .st2 {
        fill: #18181b;
      }

      .st3, .st1, .st4 {
        stroke-width: .2px;
      }

      .st3, .st1, .st4, .st2, .st5 {
        stroke: #231f20;
        stroke-linecap: round;
        stroke-linejoin: round;
      }

      .st3, .st6 {
        fill: #231f20;
      }

      .st7, .st4, .st5 {
        fill: #fff;
      }

      .st8 {
        fill: #e9e9e9;
      }

      .st9, .st10, .st11 {
        fill: none;
      }

      .st12, .st13, .st14 {
        fill: #4c4c4c;
      }

      .st2, .st5 {
        stroke-width: .1px;
      }

      .st15, .st13, .st16 {
        isolation: isolate;
      }

      .st10 {
        stroke: #fff;
      }

      .st10, .st11 {
        stroke-miterlimit: 10;
        stroke-width: 4px;
      }

      .st13, .st16 {
        font-family: Helvetica-Bold, Helvetica;
        font-size: 49.8px;
        font-weight: 700;
        letter-spacing: .2em;
      }

      .st16 {
        fill: #b7b7b7;
      }

      .st14, .st17 {
        display: none;
      }

      .st18 {
        fill: #1e1d1e;
      }

      .st11 {
        stroke: #202020;
      }

      .st19 {
        fill: #fdfdfd;
      }
    </style>
  </defs>
  <g id="Capa_4" class="st17">
    <g class="st17">
      <g>
        <path class="st19" d="M933.2,134.1s.9.9.9,1.1c0,.6-.3,2.8-.5,3.4-.3,1.1-1.2,2-1.4,3.1-.5,2.9,0,4.4,1.5,6.7s1.4,1.3,1.6,1.8c.5,1-1.1,11.6-1.3,13.7-.3,3.8.2,9-1.1,12.5-1.1,3-4.2,6.3-7.3,6.8-.9-1.4-4.7-3.5-5.3-4.5s-1.2-3.4-1.3-3.7c-.2-1.4,2.4-5.5,2.6-8.2.6-6.3-3-13.5-2.2-18.4s2.7-3.1,3.3-5.3c1.1-3.7.3-8.1,1.2-11.8,2.8,1.4,6.6,1.8,9.3,2.8Z"/>
        <path class="st19" d="M774.4,145.2c0,4.4,1.4,9.5,4.9,12.2s2.9,1.4,4.1,2.5c-5.9,1.2-11.1,4.4-15.8,7.9-3.4-6.3.8-13.6.4-20.4,1.3-2.2,4.1-2.2,6.3-2.1h0Z"/>
        <path class="st19" d="M912.3,165.9c-.5.5-4.1-2-4.9-2.5-3.6-1.8-7.3-3.4-11.3-3.9-.2-.9,0-.6.5-.8,1.2-.8,2.3-1.1,3.5-2.2,3.4-3.2,4.1-8,3.9-12.4,2,.2,6.3,1.2,7,3.4.5,6.3,3.3,12.1,1.3,18.5h0Z"/>
        <g>
          <path class="st8" d="M884.8,157.3c0-.6,1.3-.6,1.8-.6,6.8-1.2,12.1-2,13.2-10.1-1-22.4,1.8-46.3-.8-68.4-3.6-31.6-21.9-38.1-51-38.6-13.4-.2-33.2-.6-45.5,4.9-25.3,11.4-22.5,42.6-23.2,65.6-.3,10.7-1.4,22.5-.8,33.1s1.9,11.8,9.4,13.6l5.7.9c-8.8,1.4-15.8-1.4-16.6-11.1,1.1-22.8-1.4-47,0-69.7,1.8-28.1,22-39.6,48-40.8s74.1-1,76.3,44.6c1,21.9-.8,44.6,0,66.6-.4,3.5-1.8,6.8-5,8.5s-3.7,1.4-4.2,1.4h-7.3Z"/>
          <path class="st8" d="M866.3,2.6v1.4c-.4.7-8.6,2.1-10,2.3-6.9,1-14.1,1.4-21.1,1.2s-6.1.1-7.1,0-.2-.7-.5-.8c-1.2-.3-3.3.1-4.8,0-2.7-.3-7.6-1.1-9.5-2.2s-1.5-.3-1.6-.6,0-1.2,0-1.3c.4-.4,7-.4,8.1-.4,13.1.2,26.1.3,39.2,0,1.1,0,6.9,0,7.3.4h0Z"/>
          <path class="st8" d="M864.8,23.3c0,.5-.7.5-1.1.6-1.1.2-2.5.4-3.6.6-11.1,1.3-28,1.6-39.1.6s-7.9-1.1-7.9-1.5l51.6-.2h0Z"/>
          <path class="st8" d="M869.3,4.1c0,.1,1,2.9,1,3.3.9,4.6.7,14-1.6,18.2s0,.9-.9.7l1.1-11.5c.6-3.1-.8-7.3-.4-10.2s.2-1.1.7-.6h.1Z"/>
          <path class="st8" d="M809.4,4.1c-1,7.4.2,14.8.6,22.2-2.1-3-2.6-7.5-2.8-11.1s0-6.7,1.4-10.3-.2-1,.8-.8h0Z"/>
          <path class="st8" d="M845.6,33.4c-2.5.6-1.2-1.9-1.5-3.8,2.2-.3,1.4,2.2,1.5,3.8Z"/>
          <rect class="st8" x="832.4" y="29.7" width="1.1" height="3.8"/>
        </g>
        <g>
          <path class="st19" d="M777.4,301.1c-1.2,2.5-1.8,8.8-.8,11.2,1.4,3.6,11.6,1.3,15,2s1.4,1.8,2.5,2.4,2,.5,3,.8c-6.4,4.4-14,6.9-20.5,11.2s-5.5,3.8-5.5,4.7c0,1.4,3,2.6,4.2,3.4s1.5.3.7.9-9.8-2.9-11.1-3.4c-4.1-1.5-9.6-4-13.1-6.5-16.6-11.8,11.1-22.4,20.2-25.2s5.3-1.7,5.6-1.4h-.2Z"/>
          <path class="st19" d="M905.9,302.9c.7-.7,14.9,6,16.5,7,22.6,14-8.7,25.2-21.1,27.3.8-1.2,4.2-2.3,4.7-3.4s0-.6-.2-1c-1.3-1.9-7.3-5.3-9.6-6.6-7.2-4.2-15.6-7.4-21.7-13.1,4.5-1.4,3.7,1.8,5.9,3.3s7.1.9,8.3-2.2c4.4-.5,10,.6,14.2,0s2.8-1.6,2.8-2.4v-8.8h.2,0Z"/>
          <path class="st8" d="M754,306.3l-10.9,7c-20.7,19,17.4,30.8,31.2,34.3,29,7.5,65,8.8,94.8,5.7,17.9-1.8,56.6-8,68.2-22.6,3.1-3.9,3.3-7.2,1.5-11.7-2-5-10.1-8.8-14.1-12,.6-.1,1.1.2,1.6.4,4,1.7,10.9,6.3,13.6,9.7,12.4,15.3-18.6,26.9-29,30.1-31.8,9.9-71.7,11.4-104.7,7.9-17.7-1.9-59.2-9.1-69.7-24.5-8-11.7,8-21.4,17.5-24.4h0Z"/>
          <path class="st8" d="M752.1,309.3c.7.6-.5.8-.7,1-23.5,17.2,12.9,30.1,26.6,33.5,38.8,9.6,94.8,10.1,132.5-3.6,11.4-4.2,32.3-14.5,17.5-28.2,6.5,2.3,11.7,10,6.8,16.4-11.7,14.9-54.3,22.1-72.5,23.5-30.6,2.4-70.8,0-99.7-11s-30-12.9-19.5-24.9c.9-1,8.3-7.2,9-6.6h0Z"/>
          <path class="st8" d="M836.9,308.2v8.5c0,.4,1.7,1.8,1.9,3s.3,7.4,0,9c-.5,3.2-3.9,1.7-4.9,3.1s-.6,4.8-.2,5.8c1.3,3,11.4,2.9,13.6.8s1.2-4.5.6-5.9c-1-2.3-4-.9-4.8-2.7s-.4-9.1-.2-10.3.9-1.5,1.1-2.3,0-8.5.4-8.8h1.1v9.6c0,.1-1.3,1.1-1.5,2.3s0,9.1.4,9.5c.9.7,4.4-1,4.9,3.6s-1.1,7.7-6.6,8.1c-6.5.5-12-.6-10.7-8.4s5-2.1,5.5-4.6.3-7,0-8.2-1.9-2-1.9-3.4v-8.5h1.1l.2-.2h0Z"/>
          <path class="st8" d="M834.3,314.2c0,1.3.3,2.3-1.3,2.3-5.6,0-13.8-1.3-19.1-2.8s-2.2-.4-2.6-1l23,1.5h0Z"/>
          <path class="st8" d="M866.7,312.7l-6.7,2.1c-4.3.7-8.6,1.4-12.9,1.2v-1.9l19.6-1.5h0Z"/>
          <path class="st8" d="M803.7,312.7c.4.4-1.8,2.7-2.3,2.3,0-1,1.2-3.1,2.3-2.3Z"/>
          <path class="st8" d="M928.1,310.9c1.5,1.7-3.5-.6-3.4-1.5.6,0,3.2,1.3,3.4,1.5Z"/>
          <path class="st8" d="M924.3,306.7c.3.1-.2.6-.7.4s.2-.6.7-.4Z"/>
          <path class="st8" d="M752.7,309c.2.1.2.3,0,.4v-.4Z"/>
        </g>
        <g>
          <path class="st18" d="M809.8,360.9c-21.7-2.8-45.3-5.6-64.7-16.5-13.5-7.6-21.9-20.2-7.1-32.1s27-12.6,40.5-15.6l2.6-7.9-9.6-53.6c-1.8-3.2-4.8-7.6-8.3-9.1s-9.7.2-11-6l-.7-26.4c-1.5-4.1-5.9-4.7-8.3-8.7-4.8-7.9-.6-22.2-1.7-31.8-.4-3.1-.9-2.1-2.4-4-4.5-5.4,0-9-.5-14.8-.2-1.1-6.1-.2-6.8-3.5s0-10.1,1.2-12.7c1.7-3.6,8.5-6.4,12.3-6.9s3.4.2,4.7,0,0-.7.8-.8c1.3-.1,5.6,0,7.2,0,8.6.2,9.5,4.7,8.9,12.3,0,1.9-2.2,5.4.6,5.8s2.7-.5,3.3-1.9c1-2.2,1.2-10,1.4-12.9s-.3-4.3,0-6,1.9-1.4,2.2-2.7c.5-17.8-2.7-36,7.4-51.7,9.1-14.1,25.4-19,41.4-20s7.1.3,7.6-.4.2-2.7-.4-2.7h-12.8c-1,0-3.7-.3-4.9-.4-7.7-.9-7.8-13.8-7.4-19.7s1.5-9.9,7.3-10.4,14.2.4,21.1.4c10,0,21.7-1.2,31.3-.4,2.2.2,4.3.8,5.6,2.7,3.5,5,3.2,20.5-.8,25.2s-2.7,2-4.5,2.2c-4.9.6-10.5,0-15.4.4s-2.7.3-2.8.4,0,2.1,0,2.2c.4.4,10.2.6,11.8.8,13.1,1.4,27.3,6.1,35.6,16.8,12,15.5,9,36.2,9.4,54.6.2,1.1,1.4,1.4,1.8,2.3.9,1.8.4,11.8.8,15,.3,2.4,1,7.7,4.7,5.8s.5-3.5.2-5.8c-.5-5.8-.2-11,6.6-11.8,7.4-.9,25.4.3,30.7,6.2,2.5,2.8,3.1,10.6,2.5,14.1-.6,3.5-4,2.5-6.6,3.4-1,4.8,2.7,9.1.3,13.6s-2.5,2.3-3,3c-2.1,3.3.4,20.5,0,25.6-.3,5.6-1.7,8.6-5.9,12.2s-4.7,1.9-5.1,7c-.3,4.1.2,8.7,0,12.8s0,8.9-.6,11.5c-1.3,6.4-7.6,4.3-11.8,6.3s-6.8,6.1-7.7,8.5c-3.9,17.7-6.5,35.8-10.1,53.6l2.8,9.2c10,2.8,20.4,5.6,29.4,10.8,4.5,2.6,12.9,8.7,12.6,13.8s.6.1.7.5c1.6,6.5-2.6,12.5-7.3,16.7-14.9,12.9-52.4,20.3-71.8,21.5-18.8,1.1-38.7-.8-57.6,0h.3ZM866.3,2.6c-.4-.5-6.2-.4-7.3-.4-13.1.3-26.1.2-39.2,0-1.1,0-7.7,0-8.1.4s0,1.1,0,1.3c0,.3,1.2.3,1.6.6,2,1.1,6.9,1.9,9.5,2.2s3.6-.3,4.8,0,.2.7.5.8c1,.1,5.4,0,7.1,0,6.9.2,14.2-.2,21.1-1.2s9.6-1.6,10-2.3,0-1.3,0-1.4h0ZM809.4,4.1c-1.1-.2-.6.3-.8.8-1.4,3.6-1.6,6.5-1.4,10.3s.8,8.1,2.8,11.1c-.4-7.4-1.5-14.8-.6-22.2h0ZM869.3,4.1c-.5-.5-.7,0-.7.6-.4,2.9,1,7.1.4,10.2l-1.1,11.5c1,.2.7-.2.9-.7,2.3-4.2,2.5-13.5,1.6-18.2s-.9-3.2-1-3.3h-.1ZM864.8,23.3l-51.6.2c0,.4,7.2,1.4,7.9,1.5,11.1,1,28,.7,39.1-.6s2.5-.3,3.6-.6,1.2,0,1.1-.6h0ZM833.5,29.7h-1.1v3.8h1.1v-3.8ZM845.6,33.4c0-1.5.7-4.1-1.5-3.8.3,1.8-1,4.4,1.5,3.8ZM884.8,157.3h7.3c.6,0,3.6-1.1,4.2-1.4,3.3-1.7,4.6-5,5-8.5-.8-22,1.1-44.7,0-66.6-2.2-45.6-39.8-46.3-76.3-44.6s-46.2,12.7-48,40.8c-1.4,22.7,1.1,46.8,0,69.7.8,9.7,7.8,12.4,16.6,11.1l-5.7-.9c-7.5-1.8-9-6.5-9.4-13.6-.7-10.6.5-22.4.8-33.1.7-23.1-2-54.3,23.2-65.6,12.3-5.5,32.2-5.2,45.5-4.9,29.1.5,47.4,7,51,38.6,2.5,22.1-.2,46.1.8,68.4-1.1,8.1-6.4,8.9-13.2,10.1-.5,0-1.8,0-1.8.6h0ZM774.7,108.3l-1.1.9c0,5.8,0,11.7-1.1,17.3-1.4,4.5-4.5,4.4-8.3,2.8,2.1,3.5,7.7,2.9,9.2-.8s.8-3.5.9-4.7c.4-5,0-10.6.4-15.6h0ZM914.5,127.9c-1.2,0-1.7,1.6-2.7,2-5.5,2.2-6.4-4.5-6.7-8.2s-.2-8.4-.4-12.4l-1.1-.9c0,6.8-.3,13.9,1.5,20.5,2.2,4.2,8.3,3.7,9.4-1ZM754,129.4v-8.8c0-2.4,9-3.5,9.7-4.8,1.5-2.5-4.2-3.2-5.8-3.3-6.2-.5-12.8.7-18.7,2.7.3.7,2.2.4,2.8.4,5-.3,14.9-2.8,19.2-1.5s1.1.3,1,.9-8.4,3.4-9.3,3.6c-3.4.5-9.8.1-13.6,0s-3.1-.9-4.4,0-1.9,11.4-1.2,12.5,13.2,1.3,15.4,1.1c5.2-.5,10.2-3.8,14.9-6,0-.6-.5-.4-.9-.4-1.6.2-8.8,4.2-9.2,3.8v-.2h0ZM928.8,120.2c.6,2.1-.4,6.8,0,9.2l-14.1-4.5c-.6.5.3,1,.7,1.2,8.2,4.3,19.8,6.6,29.1,6s4.1-.4,4.7-1.3c.9-1.3,0-10-.9-11.6s-.4-.8-.9-.9l-17.3.3c-1.8-1-13.1-2.1-13.7-3-.9-1.3,2-1.8,2.8-1.9,5.2-.5,14.4.9,19.9,1.5,1.6.2,3.5.9,5,1.1s.8-.4.5-.7-5.5-1.6-6.3-1.8c-5.4-1.1-16.7-2.2-21.9-.6s-2.8,1.2-1.9,2.7,4.2,1.6,4.8,1.8c1.7.5,9,1.2,9.4,2.6h.1ZM933.2,134.1c-2.7-1-6.5-1.4-9.3-2.8-.8,3.7,0,8.2-1.2,11.8s-3,3-3.3,5.3c-.7,4.9,2.8,12.1,2.2,18.4s-2.8,6.8-2.6,8.2,1.2,3.5,1.3,3.7c.6,1,4.5,3.1,5.3,4.5,3.1-.6,6.3-3.9,7.3-6.8,1.3-3.4.7-8.7,1.1-12.5s1.8-12.7,1.3-13.7-1.2-1.1-1.6-1.8c-1.5-2.3-2-3.8-1.5-6.7s1.1-2.1,1.4-3.1.4-2.7.5-3.4-.8-1.1-.9-1.1ZM918.3,171.9c4.3-7.8-1.3-16.1-.4-23.9.3-2.9,2.6-3.9,3.4-6.4s.7-6.4.8-9.2c-.6.1-1,1.7-1,2.2-.3,2.2,0,4.5-.8,6.7s-3.5,3.7-3.8,6.4c-.8,6.4,2.9,12.5,2.2,18.8s-1,3.2-1.1,4.6-.2,1.1.8.9h-.1ZM755.5,132.8l-6,1.1c-1,5.3,3,8,.6,13.2s-2.8,3.3-2.8,3.9c0,2.4,1.2,7.4,1.5,10.2.5,6.2-.7,14.1,3.6,19s2.9,2.8,4.1,2.6,5.8-4.3,5.9-5.1-1.9-3.4-2.4-4.4c-3.9-8.7-.7-13,0-21.2.5-5.8-.6-4-3-7.5s-1.4-8.6-1.5-11.9h0ZM762.2,145c-1-1.1-2.1-1.2-3-3.2s-.4-6.4-2.2-8.5c-.5.7.6,8.7,1.2,9.9.9,1.9,3.1,2.3,3.6,5.1,1.3,7.9-4.3,13.6-1,22.4.2.6,1.9,4.6,3,3.6s-1.8-4.3-2-5c-.6-2.2-.8-4.2-.6-6.5.3-4.5,4-14.1,1-17.8ZM936.4,147.9v-11.1c0-.2-.3-1.7-.4-2.3s.2-.6-.7-.6c1.1,4.6-3.2,8.7-.7,12.9s.9,1.1,1.8,1h0ZM746.5,138.3c-.2,2.9,0,6.1,0,9s.9.7,1.5,0c2.3-2.8.4-5.4,0-7.9s0-3.4,0-5.1h-1.1c.4,1.4-.3,2.9-.4,4ZM740.8,147.9v-12.2c0-.3-.5-1.3-1.1-.9.9,3.7-1.9,8.8-.2,12.1s.5,1.3,1.3,1.1h0ZM943.2,134.7h-1.1c-.2,4.3,1,8.6,0,12.8,3.5-1.1,1.4-5.6,1.1-8.1s0-3.2,0-4.7h0ZM912.5,143.8c-1.6-1.9-6.1-3.1-8.5-3.1-.3,2.6,1.2,1.6,2.7,2,5.7,1.5,6.5,4,6.7,9.7,1,.2.8-.5.7-1.3-.2-1.7-.6-6-1.6-7.2h0ZM766.8,145.2c0,.1,2.8-1.4,3.5-1.6,1.1-.3,5-.2,4.4-1.9s-6.7.5-7.6,1.9-.6,1.5-.4,1.7h0ZM778.9,263.4c0,.4-.2,1,.2,1.1,1.1.4,1-.3.9-1.1-.3-10.8-4.7-24-5.9-35-1.1-3.4-2.5-4.7-5.6-6.5s-5.4-1.9-5.8-4l-.6-28.4c-1.1-3.7-5-3.9-8-5.6-7.8-4.4-6.3-9.2-6.9-16.8-.6-7.5-1.5-15.1-2.7-22.5s0-2.1-.9-2.1-1.1,0-1.3.6c-.7,2.2,1.8,13.3,2.2,16.5,1.1,9.4-1.2,20.3,8.3,25.6s7.5,1.7,7.9,7.9c.6,7.9-1.1,17.9.4,25.5.6,2.9,3.5,3,5.6,4.2,2.5,1.4,5,3.8,5.8,6.6,3.2,10.4,3.2,23.2,6.2,33.9h.2,0ZM890.4,288.6c.2.2,5,0,5.8,0s.7.8.6,1.1h-6.4v1.1h5.8c.7,0,1.2.8.9,1.5h-7.2v1.5h8.3c.5,1.4-1.2,1.4-2.4,1.5s-5.9-.9-6.2,1.1h8.9c.4,0,.7,1.1.6,1.5h-9.4v1.5h10.2v1.5h-11.1c-.2,0-1.2,1.1-.9,1.5h13.2v1.1c-1.1-.4-2.9.4-3.6.4h-11.1v8.8c0,1.7-4.5,3-4.9-.7s0-7.8-.4-8.1l-81.4.6v7.9c0,2-3.1,2.4-4.4,1.3s0-4.6-.8-6.3,0-.6-.9-.5v6.6c0,1.2,2.8,2.2,4,2.1s3.2-2.8,3.2-3.2v-6.6h79.1v5.5c0,.2.6,2.3.8,2.6.7,1.4,2.4,1.9,3.9,1.7,4.5-.6,2.1-6.7,2.5-9.8h14.1c1,0,3-.7,2.4-2-.5-3.2-5.5-14.2-5.3-16.6s.7-.2.9-.7.4-1.4.5-2.1c3.7-16.9,5.1-35.7,9.4-52.3,1-3.9,2-6.4,5.7-8.7,4.3-2.6,6.8-1.4,7.3-7.8s-.8-16.3,0-23.7,4.6-4.9,7.9-6.8c8.9-5.1,7-12.4,7.9-21.1.3-3.1.8-6.2,1.2-9.3s2.2-10.3,1.6-11.5-2.1-1.2-2.4-.1,0,2,0,3c-.5,4.4-1.5,8.7-1.9,13.2-.6,6.7.6,17.7-4.5,22.6s-10.7,2.9-11.3,9.8c-.8,8.8,1.1,18.3-.7,27-4.7,3.5-9.8,3.9-11.7,10.3l-9.9,56.7c-.5,2.1-7.5,1.1-7.8,1.4s0,1.4,0,1.5h0ZM912.3,165.9c2-6.3-.8-12.1-1.3-18.5-.7-2.2-4.9-3.1-7-3.4.2,4.4-.6,9.3-3.9,12.4s-2.3,1.4-3.5,2.2-.7,0-.5.8c4,.6,7.8,2.1,11.3,3.9s4.3,3,4.9,2.5h0ZM774.4,145.2c-2.2,0-5.1,0-6.3,2.1.3,6.8-3.8,14.2-.4,20.4,4.7-3.5,9.9-6.7,15.8-7.9-1.2-1.1-2.7-1.4-4.1-2.5-3.6-2.7-4.9-7.8-4.9-12.2h0ZM914.9,155c-.6,0-.8-.2-.7.5.3,2.2.9,4.1.7,6.4s-1.1,3.8-1.1,5.8c.8,1,1.8-3.1,1.9-3.6.3-3.1-.3-6.2-.8-9.2h0ZM918.3,185.5c1.3-.8.5-4.4.3-5.7-4.2-21.5-44.1-21.5-60.8-22.1-18.7-.7-38.6-.9-57.3,1.1-14.6,1.6-35.8,5.4-36.8,23.5,0,.7-.4,3.2.8,2.8.2-4.4,1.6-10,4.5-13.4,10.5-12.1,38.4-11.4,53.3-11.9,21-.6,43.6-1.2,64.4,1.5,13.7,1.8,31.1,7.5,31.5,24v.2h0ZM743.8,177c-.2-1.7,0-3.9,0-5.6s-.5-1.2-.8-.9v8.5c0,.7,1.6,4.7,2.1,5.4,1.8,2.7,7.1,5.1,7.9,7.5,1.2,4,.4,11.2.5,15.7s.4,1.7.4,2.6c.2,5.1-1.9,13.1,5.6,13-1.5-1.6-3.7-2.2-4.1-4.7-1.2-8.1,1-19.6-1-26.9s-4.7-4.1-6.7-6-3.8-5.7-4.1-8.5h.2,0ZM922.8,223.1c8.4.4,5.8-10.3,6-16s0-8.2.4-12c.5-6.3,4-5.6,7.4-9.2,3.3-3.6,3.6-8.5,3.2-13.2l-1.5,7.7c-2.1,6.4-8.9,7.4-10,11.1s-.5,2.9-.6,3.9c-.5,7.3.6,15.2-.4,22.6,0,.9-.5,2-1.1,2.7l-3.4,2.4h0ZM910.4,176.1c-11,1.1-22,1.5-33,1.9-27.4.9-55.5,1-82.9-.4-7.1-.4-14.1-1.2-21.1-1.5s-2-.3-1.7.8l11.1,1.9c34.8,1.7,70,2.4,104.7.4,7.1-.4,14.3-.4,21.4-2s1.7,0,1.4-1h0ZM762.3,181c-.2-.3-4.2,2.6-3.4,3.4,1.3.7,4.2-2.5,3.4-3.4ZM923.5,183.3c0-.2-2.8-2.1-2.9-1.9-.3.8,1,2.9,1.5,3.2s2-.3,1.4-1.3h0ZM918.7,196.4c-1.4-.2-2.2,1.3-3.3,1.8s-3.2.7-4.4.9c-9,1.2-19.5,1.5-28.6,1.9-27.5,1.3-55.1.8-82.5-.4-8.8-.4-23.4.1-31.4-2.1-1.8-.5-6.2-4.4-4.2.5s.6,1,1.1,1.1c12.3,2.3,24.7,2,37.2,2.4,33.8,1.2,69.6,2.1,103.2-.7,3.8-.3,8-1.2,11.8-1.8,1.6-.7,1.3-2,1.2-3.5h0ZM914.5,215.6c-3.4.3-6.9.9-10.4,1.1-41.1,2.6-83.7,2.9-124.7,0-.8,0-10.8-1.4-10.7-.6,5.4.7,10.9,1.6,16.4,2.1,24.8,2.3,49.7,2.4,74.6,1.9,17.7-.4,35.5-.9,53.1-3.4s2.1-.1,1.7-1.1h0ZM800.7,223.5c0-2,.4-2.9-1.8-3.3-6.7-.4-13.5-.6-20.3-1.2s-9.7-1.8-13.6-1.9-.3,1,.3,1.2c1.3.6,3.6.4,5.3,1.1s2.1,1.1,2.9,1.6c2.2,1.7,2.3,4.4,5.4,4h125.5c2,0,2.4-2,3.6-3.2,1.7-1.7,3.8-2.4,6-3s3.6.2,3.8-1.7c-2.2.3-4.5.7-6.7,1-3,.4-6.2.7-9.3,1.2l-19.8,1.1v3h-81.4,0ZM813,227.7c-2.2-.6-7.4.5-10,0,0,.6.2.8.6,1,1.9,1.1,10.4,4.4,12.3,4.6s2.5,0,3.6-.2c-.6-.4-.9-1.2-1.4-1.7s-4.9-3.7-5.2-3.8h.1ZM846.3,227.7h-10.2v1.1c.5.5,9.7.5,10.2,0s0-.8,0-1.1ZM863.7,227.7c-3.1.7-7.1.7-10,1.9s-1.1.3-.9,1.1c3.3-.2,7-1.1,10.1-2.2s1,.2.8-.8h0ZM879.5,227.7h-10c-.2,0-2.6,1.7-3.1,2-1.1.8-2.6,2.3-3.5,3.4.9.3,2.2.3,3.2.2,2.5-.2,10.7-3.4,12.9-4.8s.7,0,.5-.8h0ZM799,233.3c2.5.5,6.5-.4,9.2,0l-2.9-1.4c-2.2-.3-10.6-4.7-12.2-3.7s-.4.5-.2,1c.4.8,5.2,4,6,4.1h.1ZM830.1,229.9c-.4-.6-9.5-2.2-10.9-1.9,0,.6.7.5,1.1.6,1.2.4,9.5,2.7,9.9,2.4s0-1,0-1.1h0ZM874.2,233.3h9.2c.4,0,7.6-3.9,6.2-5.3s-7.6,2.3-9,2.5l-6.4,2.8ZM838,233.7c.2-.8-.5-.8-.9-1.2-2.6-2.4-6-5.2-2.5.6l3.4.6ZM849.3,229.5l-4.9,3.6c2.6,1.7,4.8-1,4.9-3.6ZM781.2,231.7c.2.3,4.9,3.6,5.6,4,3.1,1.7,2.2,1.1,4.1-.7s2.9-1.3.9-2.7-6.9-2.2-9.3-1.9-1.9.4-1.3,1.4h0ZM901,230.7c-3.1-.4-7.5-.6-10.1,1.3s1.3,2.9,2.1,5.1c.7,0,7.2-4.3,7.7-5.1s.5-.7.4-1.3h-.1ZM785.3,239.3c.8-.9-5.4-5.9-6-5.3v11.1l3.8,23.5c1,1,.8-2.7.7-3.1s-.7-.2-.8-.5c-.2-3.8,4.8-3.3,2.3-8.3s-3.9-4.3-4.8-10.3-1.3-6.9,4.8-7.2h0ZM902.8,234.1c-.3-.3-6.9,3.8-5.6,5.3s4.7.6,4.9,1.4c0,4.1-.6,9.1-2.7,12.7s-4.2,4.4-3.1,7,2.1,2.1,2.4,3.3-.5,3.3-.3,5c.9-.6,1.2-2.3,1.4-3.3,1.4-5.7,2.5-14,3.1-19.9.2-1.7.8-10.8,0-11.5h-.1ZM890.4,262.7l1.1-22c-1.1-3.9-3.5-4.9-7.3-5.1h-86.3c-3.3.3-6.1,1.3-6.9,4.8l.7,19.7h3.6c.9-5.4-1.2-12.5,0-17.8s2.4-3.1,4.3-3.6h83.5c6.4,1.1,4.1,8.8,4,13.3s-.2,8,.4,8.7,2.5,1.2,3,2.1h0ZM788.3,256.3c.6-.6-.2-9.2-.5-10.6-.6-2.1-2.2-5-4.6-2.6s-.5,5.9-.2,7.3,1.6,2.7,1.9,3.1,3,3.2,3.4,2.8h0ZM899,242.8c-.6-.6-2.6-.6-3.3-.3-2.1,1.1-2.4,11.7-2.3,14.1.8.9,4.7-4.4,5.1-5.3.8-1.8,2-7.1.5-8.6h0ZM788.3,261.5c-1.1.2-2.9,2.7-3,3.6s.7,3.5,1.7,4.3c0-2.9.3-5.2,1.3-7.9ZM895.7,269.4c1.4-3.3,2-6.8-2.3-7.9.2,1.2-.4,2.4-.4,3.6s1.3,5.5,2.6,4.3h.1ZM789.4,264.9l3.9-1.1c31.1.3,62.4-.5,93.5.4l2.4,1.3c-.5-1.6-1.1-2.7-2.6-3.4l-93.3-.2c-1.9,0-3.7,1-3.9,3h0ZM779.6,266.8c0,.9.3,1.2.4,1.5.4,3.2,1,6.2,1.5,9.4s.3,7.2,2.2,10.3l-5.1,16c-.4.6.5,2,.9,2h14.9v-1.9h-12.6c-.6,0-.6-1.5,0-1.5h9.6c.2-.4-.8-1.5-.9-1.5h-8.1v-1.5h7.5c0-.2-.3-1.5-.4-1.5h-6.4c-.2-.4.2-1.5.6-1.5h5.5c.4-3.2-5.2.6-4.9-2.6.5-.5,5.6,1.1,4.9-1.5h-4.1v-1.1c.2-.2,4.8.4,4.1-.9-.5-1.1-3.2-.3-3.4-.6v-1.1c1.8-.2,3.5.9,3-1.5-.8,0-4,0-4.5-.4s-1.7-7.8-2-9c-.6-3-1.4-6.3-1.9-9.4s0-.8,0-1.1v-1.5c-1-.2-.8.2-.8,1.1v-.2h0ZM793.1,265.8c-1.6.6-2.9,1.4-3.2,3.2-.5,2.8,0,9.2.3,12.3.3,4.7.5,11.5,1.3,16,.5,2.8,2.5,4.6,5.3,4.9,6.3.6,14.2-.1,20.8,0,21.8.3,43.7.4,65.6,0,6.2-.7,4.8-9,5.1-13.4s1.4-12.7,1.2-18.1c0-2.9-2-5.3-5.1-5.1h-91.1l-.2.2h0ZM894.2,273.6c.4-.3-2.3-5.7-3-4.9v4.9h3ZM890.8,281.9c2.3,0,4.9-5.2,2.4-5.9s-2.4-.1-2.4.5v5.5h0ZM788.3,276.2c-2.5.3-1.4,3.6-.2,4.9l.2-4.9ZM777.4,301.1c-.3-.3-4.8,1.2-5.6,1.4-9.1,2.8-36.8,13.4-20.2,25.2,3.5,2.5,9,5,13.1,6.5s10.7,3.7,11.1,3.4c.7-.6-.6-.8-.7-.9-1.2-.8-4.3-2-4.2-3.4s4.5-4,5.5-4.7c6.5-4.3,14.1-6.8,20.5-11.2-1-.3-2-.2-3-.8s-1.5-2.2-2.5-2.4c-3.4-.6-13.5,1.6-15-2s-.3-8.7.8-11.2h.2ZM905.9,302.9v8.8c0,.8-1.9,2.3-2.8,2.4-4.2.7-9.9-.4-14.2,0-1.3,3.1-5.6,4.1-8.3,2.2s-1.4-4.7-5.9-3.3c6.2,5.7,14.5,8.9,21.7,13.1s8.2,4.7,9.6,6.6.5.4.2,1c-.6,1.1-4,2.2-4.7,3.4,12.4-2,43.7-13.3,21.1-27.3-1.7-1-15.9-7.7-16.5-7h-.2,0ZM754,306.3c-9.5,3.1-25.5,12.7-17.5,24.4,10.5,15.4,52,22.6,69.7,24.5,33,3.5,72.9,2,104.7-7.9,10.4-3.2,41.4-14.8,29-30.1s-9.6-8.1-13.6-9.7-1-.5-1.6-.4c4,3.2,12.2,7,14.1,12,1.8,4.5,1.6,7.8-1.5,11.7-11.6,14.5-50.3,20.7-68.2,22.6-29.8,3.1-65.8,1.7-94.8-5.7s-51.9-15.3-31.2-34.3l10.9-7h0ZM924.3,306.7c-.5-.3-1,.2-.7.4.5.3,1-.2.7-.4ZM836.9,308.2h-1.1v8.5c0,1.4,1.7,2.4,1.9,3.4s.2,7,0,8.2c-.5,2.5-4.9.5-5.5,4.6-1.3,7.8,4.2,9,10.7,8.4,5.5-.4,7.1-2.6,6.6-8.1s-3.9-2.9-4.9-3.6-.6-8.4-.4-9.5,1.5-2.1,1.5-2.3v-9.6h-1.1c-.3.3-.2,7.7-.4,8.8s-.9,1.3-1.1,2.3-.2,9.5.2,10.3c.8,1.8,3.8.4,4.8,2.7s.5,4.8-.6,5.9c-2.1,2.2-12.3,2.2-13.6-.8s-.4-5,.2-5.8c1-1.3,4.3.1,4.9-3.1s.2-7.4,0-9-1.9-2.6-1.9-3v-8.5l-.2.2h0ZM752.7,309v.4c.2-.1.2-.3,0-.4ZM752.1,309.3c-.7-.6-8.2,5.6-9,6.6-10.5,12.1,10.4,21.5,19.5,24.9,28.9,11,69.2,13.4,99.7,11,18.2-1.4,60.8-8.6,72.5-23.5,5-6.3-.3-14-6.8-16.4,14.8,13.7-6.1,24.1-17.5,28.2-37.8,13.7-93.7,13.3-132.5,3.6-13.7-3.4-50.1-16.3-26.6-33.5.2-.1,1.4-.4.7-1h0ZM928.1,310.9c-.2-.2-2.8-1.4-3.4-1.5,0,.9,4.9,3.2,3.4,1.5ZM803.7,312.7c-1-.9-2.3,1.2-2.3,2.3.4.4,2.7-1.9,2.3-2.3ZM834.3,314.2l-23-1.5c.3.6,1.9.8,2.6,1,5.4,1.5,13.6,2.7,19.1,2.8s1.3-1,1.3-2.3h0ZM866.7,312.7l-19.6,1.5v1.9c4.3.2,8.6-.6,12.9-1.2l6.7-2.1h0Z"/>
          <path class="st8" d="M890.4,288.6v-1.5c.3-.3,7.3.7,7.8-1.4l9.9-56.7c1.8-6.4,7-6.8,11.7-10.3,1.8-8.8,0-18.3.7-27,.6-6.8,7-5.6,11.3-9.8s3.9-15.9,4.5-22.6c.4-4.4,1.3-8.8,1.9-13.2s-.2-2.2,0-3,2-.7,2.4.1-1.4,9.5-1.6,11.5c-.4,3.1-.9,6.2-1.2,9.3-.9,8.7,1,16-7.9,21.1-3.4,1.9-7.4,2-7.9,6.8-.8,7.4.6,16.2,0,23.7s-3,5.1-7.3,7.8c-3.6,2.2-4.6,4.7-5.7,8.7-4.3,16.6-5.7,35.5-9.4,52.3,0,.7-.3,1.5-.5,2.1s-.9.4-.9.7c-.3,2.4,4.8,13.3,5.3,16.6.6,1.4-1.5,2-2.4,2h-14.1c-.3,3,2.1,9.2-2.5,9.8s-3.1-.3-3.9-1.7-.8-2.4-.8-2.6v-5.5h-79.1v6.6c0,.5-2.5,3.2-3.2,3.2-1.1,0-4-.9-4-2.1v-6.6c.8,0,.6,0,.9.5.7,1.7-.3,5.4.8,6.3s4.4.6,4.4-1.3v-7.9l81.4-.6c.3.3.2,7.1.4,8.1.4,3.7,4.9,2.4,4.9.7v-8.8h11.1c.7,0,2.5-.8,3.6-.4v-1.1h-13.2c-.2-.4.8-1.5.9-1.5h11.1v-1.5h-10.2v-1.5h9.4c.2-.4-.2-1.5-.6-1.5h-8.9c.4-2,4.5-1,6.2-1.1s2.9-.1,2.4-1.5h-8.3v-1.5h7.2c.3-.7-.2-1.5-.9-1.5h-5.8v-1.1h6.4c.2-.3-.3-1.1-.6-1.1-.8,0-5.6.2-5.8,0h0Z"/>
          <path class="st8" d="M890.4,262.7c-.6-.9-2.6-1.6-3-2.1-.6-.7-.4-7.2-.4-8.7,0-4.4,2.3-12.2-4-13.3h-83.5c-1.9.5-3.9,1.4-4.3,3.6-1.1,5.3.9,12.4,0,17.8h-3.6l-.7-19.7c.7-3.5,3.6-4.6,6.9-4.8h86.3c3.8.3,6.2,1.3,7.3,5.1l-1.1,22h0Z"/>
          <path class="st8" d="M793.1,265.8h91.1c3.1-.3,5,2.1,5.1,5,.2,5.4-.8,12.5-1.2,18.1s1.1,12.6-5.1,13.4c-21.9.4-43.7.3-65.6,0-6.6-.1-14.4.6-20.8,0-2.8-.3-4.8-2.1-5.3-4.9-.8-4.5-1-11.3-1.3-16s-.8-9.6-.3-12.3,1.6-2.6,3.2-3.2h.2,0ZM885,299.4c.3-.4,1.2-2.8,1.2-3.5,1-7.7.5-16.3,1.1-24.1,0-3.2-3.2-4.1-5.8-4.3-27.3,1.4-56.2-1.8-83.3,0-2.6.2-6.3.3-6.8,3.4.4,5.3.2,10.7.6,16s.3,6.4.8,9,1.1,4,3.7,4.6l85,.2c.9,0,2.9-.6,3.5-1.2h0Z"/>
          <path class="st19" d="M755.5,132.8c.2,3.3-.4,9.1,1.5,11.9s3.4,1.7,3,7.5c-.7,8.2-4,12.5,0,21.2.5,1.1,2.4,3.5,2.4,4.4s-5,5-5.9,5.1-3.3-1.7-4.1-2.6c-4.3-4.9-3.1-12.8-3.6-19s-1.6-7.8-1.5-10.2,2.3-2.8,2.8-3.9c2.4-5.2-1.5-7.9-.6-13.2l6-1.1h0Z"/>
          <path class="st8" d="M800.7,223.5h81.4v-3l19.8-1.1c3.1-.5,6.3-.8,9.3-1.2,2.2-.3,4.5-.7,6.7-1-.2,1.9-2.5,1.3-3.8,1.7-2.3.6-4.3,1.3-6,3s-1.5,3.2-3.6,3.2h-125.5c-3.2.4-3.3-2.3-5.4-4s-2-1.3-2.9-1.6c-1.8-.6-4-.5-5.3-1.1s-1.5-1.3-.3-1.2c3.8,0,9.4,1.5,13.6,1.9,6.7.7,13.5.9,20.3,1.2,2.2.4,1.8,1.3,1.8,3.3h0Z"/>
          <path class="st8" d="M918.3,185.5c-.4-16.5-17.8-22.3-31.5-24-20.8-2.7-43.4-2.1-64.4-1.5-14.9.4-42.9-.3-53.3,11.9-2.9,3.4-4.4,8.9-4.5,13.4-1.2.4-.8-2.1-.8-2.8,1-18.1,22.1-21.9,36.8-23.5,18.7-2.1,38.6-1.8,57.3-1.1,16.7.6,56.6.6,60.8,22.1.3,1.4,1,5-.3,5.7v-.2h0Z"/>
          <path class="st8" d="M918.7,196.4c0,1.5.4,2.7-1.2,3.5-3.8.6-8,1.5-11.8,1.8-33.6,2.9-69.4,2-103.2.7-12.4-.5-24.9,0-37.2-2.4-.5-.1-.9-.6-1.1-1.1-2-4.9,2.5-1,4.2-.5,8,2.2,22.7,1.7,31.4,2.1,27.4,1.2,55,1.7,82.5.4s19.7-.7,28.6-1.9,3.4-.4,4.4-.9,1.9-2,3.3-1.8h0Z"/>
          <path class="st8" d="M778.9,263.4c-3-10.7-3-23.5-6.2-33.9-.9-2.8-3.3-5.2-5.8-6.6-2.1-1.2-5-1.3-5.6-4.2-1.5-7.6.2-17.6-.4-25.5-.5-6.2-3.5-5.4-7.9-7.9-9.5-5.3-7.2-16.2-8.3-25.6-.4-3.2-2.9-14.4-2.2-16.5s.7-.6,1.3-.6.8,1.5.9,2.1c1.2,7.4,2.1,15,2.7,22.5.6,7.6-.9,12.4,6.9,16.8s6.9,1.9,8,5.6l.6,28.4c.5,2.1,4,2.9,5.8,4,3,1.8,4.5,3,5.6,6.5,1.1,11,5.6,24.2,5.9,35h-1.3Z"/>
          <path class="st8" d="M910.4,176.1c.3,1-.8.8-1.4,1-7,1.6-14.2,1.6-21.4,2-34.8,2-69.9,1.3-104.7-.4l-11.1-1.9c-.3-1.1.9-.8,1.7-.8,7,.3,14,1.2,21.1,1.5,27.4,1.4,55.4,1.2,82.9.4,11-.4,22-.8,33-1.9h0Z"/>
          <path class="st8" d="M914.5,215.6c.3,1-1.1,1-1.7,1.1-17.6,2.6-35.4,3-53.1,3.4-24.8.6-49.8.5-74.6-1.9-5.5-.5-11-1.4-16.4-2.1,0-.9,9.9.5,10.7.6,41,2.9,83.7,2.6,124.7,0,3.4-.2,6.9-.8,10.4-1.1h0Z"/>
          <path class="st8" d="M928.8,120.2c-.4-1.5-7.7-2.2-9.4-2.6s-4.7-1.5-4.8-1.8c-.9-1.5.8-2.4,1.9-2.7,5.1-1.5,16.4-.5,21.9.6s6.1,1.5,6.3,1.8.2.8-.5.7c-1.5-.2-3.3-.9-5-1.1-5.5-.7-14.7-2.1-19.9-1.5s-3.7.5-2.8,1.9,11.9,2.1,13.7,3l17.3-.3c.5.2.7.5.9.9.8,1.6,1.8,10.3.9,11.6s-3.6,1.2-4.7,1.3c-9.3.7-20.9-1.6-29.1-6s-1.3-.7-.7-1.2l14.1,4.5c-.4-2.4.6-7.2,0-9.2h-.1ZM931.6,120.5c-.8,1-.8,8.8.5,9.7,1.3.9,8.6.9,10.2.8s5.3-.6,5.7-1.1c.4-1.6.3-9.3-1-10l-13.4.2c-.5,0-1.6,0-2,.5h0Z"/>
          <path class="st8" d="M754,129.4c.5.5,7.6-3.6,9.2-3.8s1-.2.9.4c-4.7,2.1-9.7,5.5-14.9,6s-14.5.3-15.4-1.1,0-11.6,1.2-12.5,3.1,0,4.4,0c3.7,0,10.1.5,13.6,0s9.1-3.1,9.3-3.6-.5-.8-1-.9c-4.3-1.3-14.2,1.2-19.2,1.5s-2.6.3-2.8-.4c5.9-2,12.4-3.1,18.7-2.7s7.3.9,5.8,3.3-9.7,2.4-9.7,4.8v9h0ZM736.2,119.7c-.8.3-1.3,5.1-1.4,6.2-.2,4.8.2,4.7,5.1,5.1s10.8.2,11.7-1.1,1-8.6-.5-9.6l-14.8-.5h0Z"/>
          <path class="st8" d="M782.3,277.7c.3,1.2,1.6,8.7,2,9s3.7.5,4.5.4c.5,2.4-1.2,1.3-3,1.5v1.1c.2.2,2.9-.5,3.4.6.6,1.3-4,.8-4.1.9v1.1h4.1c.7,2.6-4.4,1-4.9,1.5-.3,3.2,5.3-.6,4.9,2.6h-5.5c-.4,0-.7,1.1-.6,1.5h6.4s.4,1.3.4,1.5h-7.5v1.5h8.1c.2,0,1.2,1.1.9,1.5h-9.6c-.6,0-.6,1.5,0,1.5h12.6v1.9h-14.9c-.4,0-1.3-1.4-.9-2l5.1-16c-1.9-3.1-1.6-6.9-2.2-10.3h.8v.2h0Z"/>
          <path class="st8" d="M902.8,234.1c.8.7.2,9.8,0,11.5-.6,5.9-1.7,14.2-3.1,19.9s-.5,2.7-1.4,3.3c-.2-1.7.7-3.3.3-5s-2-2.4-2.4-3.3c-1.1-2.6,2-5,3.1-7,2.1-3.6,2.8-8.6,2.7-12.7-.2-.8-4.7-1.2-4.9-1.4-1.2-1.5,5.3-5.6,5.6-5.3h.1Z"/>
          <path class="st8" d="M785.3,239.3c-6.1.4-5.6,2-4.8,7.2s2.7,6,4.8,10.3-2.5,4.5-2.3,8.3.7.2.8.5c0,.4.2,4.2-.7,3.1l-3.8-23.5v-11.1c.7-.7,6.8,4.3,6,5.3h0Z"/>
          <path class="st8" d="M743.8,177c.3,2.8,2.1,6.5,4.1,8.5s5.9,3.1,6.7,6c2,7.3-.3,18.8,1,26.9.4,2.6,2.6,3.1,4.1,4.7-7.5.1-5.4-7.9-5.6-13s-.4-1.7-.4-2.6c-.2-4.4.7-11.7-.5-15.7s-6.1-4.9-7.9-7.5-2.1-4.7-2.1-5.4v-8.5c.3-.2.8.8.8.9,0,1.8-.2,3.9,0,5.6h-.2,0Z"/>
          <path class="st8" d="M922.8,223.1l3.4-2.4c.5-.7,1-1.8,1.1-2.7,1-7.4,0-15.2.4-22.6,0-1,.3-3.1.6-3.9,1.1-3.7,7.9-4.7,10-11.1l1.5-7.7c.4,4.7,0,9.6-3.2,13.2s-6.9,2.9-7.4,9.2-.3,8.1-.4,12c-.2,5.7,2.4,16.4-6,16h0Z"/>
          <path class="st8" d="M899,242.8c1.5,1.5.3,6.7-.5,8.6s-4.3,6.2-5.1,5.3c-.2-2.4,0-13,2.3-14.1s2.7-.3,3.3.3h0Z"/>
          <path class="st8" d="M788.3,256.3c-.4.4-3.1-2.4-3.4-2.8s-1.8-2.9-1.9-3.1c-.3-1.4-.8-6.3.2-7.3,2.3-2.3,4,.5,4.6,2.6s1.1,9.9.5,10.6h0Z"/>
          <path class="st8" d="M762.2,145c3.1,3.7-.6,13.3-1,17.8s0,4.2.6,6.5,2.2,4.8,2,5c-1,1-2.7-3-3-3.6-3.3-8.8,2.3-14.6,1-22.4-.5-2.8-2.7-3.2-3.6-5.1s-1.7-9.2-1.2-9.9c1.8,2.1,1.1,5.8,2.2,8.5s2,2.1,3,3.2Z"/>
          <path class="st8" d="M918.3,171.9c-1,.2-.8-.2-.8-.9,0-1.3.9-3,1.1-4.6.6-6.3-3-12.4-2.2-18.8s3-3.8,3.8-6.4.5-4.6.8-6.7.5-2,1-2.2c0,2.8,0,6.5-.8,9.2s-3,3.6-3.4,6.4c-.9,7.8,4.6,16.1.4,23.9h.1Z"/>
          <path class="st8" d="M879.5,227.7c.2.9,0,.6-.5.8-2.2,1.4-10.4,4.6-12.9,4.8s-2.3,0-3.2-.2c.9-1.1,2.4-2.7,3.5-3.4s2.9-2,3.1-2h10Z"/>
          <path class="st8" d="M813,227.7c.3,0,4.7,3.3,5.2,3.8s.8,1.3,1.4,1.7c-1.1.2-2.5.3-3.6.2-1.9-.2-10.5-3.6-12.3-4.6s-.8-.4-.6-1c2.6.5,7.8-.6,10,0h-.1Z"/>
          <path class="st8" d="M901,230.7c0,.6,0,.9-.4,1.3-.5.8-7,5.1-7.7,5.1-.8-2.2-4.8-3.1-2.1-5.1s7-1.7,10.1-1.3h.1Z"/>
          <path class="st8" d="M781.2,231.7c-.6-1,.4-1.3,1.3-1.4,2.4-.3,7.3.5,9.3,1.9s.3,1.5-.9,2.7c-1.9,1.8-.9,2.5-4.1.7s-5.4-3.7-5.6-4h0Z"/>
          <path class="st8" d="M914.5,127.9c-1.1,4.7-7.2,5.2-9.4,1-1.8-6.6-1.4-13.7-1.5-20.5l1.1.9c.2,4,0,8.5.4,12.4s1.2,10.4,6.7,8.2c1-.4,1.5-1.9,2.7-2h0Z"/>
          <path class="st8" d="M874.2,233.3l6.4-2.8c1.5-.1,8.2-3.3,9-2.5,1.4,1.4-5.8,5.3-6.2,5.3h-9.2Z"/>
          <path class="st8" d="M799,233.3c-.8-.2-5.6-3.4-6-4.1s-.3-.7.2-1c1.5-1,10,3.3,12.2,3.7l2.9,1.4c-2.7-.4-6.7.5-9.2,0h-.1Z"/>
          <path class="st8" d="M774.7,108.3c-.5,5.1,0,10.6-.4,15.6,0,1.2-.5,3.7-.9,4.7-1.5,3.7-7.2,4.3-9.2.8,3.8,1.6,6.9,1.7,8.3-2.8,1.1-5.7,1-11.6,1.1-17.3l1.1-.9h0Z"/>
          <path class="st8" d="M746.5,138.3c0-1.1.7-2.6.4-4h1.1c0,1.6-.2,3.4,0,5.1.3,2.5,2.3,5.1,0,7.9s-1.5.6-1.5,0c0-2.9-.2-6.2,0-9Z"/>
          <path class="st8" d="M936.4,147.9c-.9.1-1.4-.2-1.8-1-2.5-4.3,1.8-8.4.7-12.9.9,0,.7-.1.7.6s.4,2.1.4,2.3v11.1h0Z"/>
          <path class="st8" d="M912.5,143.8c1,1.2,1.5,5.5,1.6,7.2s.3,1.5-.7,1.3c-.2-5.7-1-8.2-6.7-9.7s-3.1.6-2.7-2c2.4,0,7,1.3,8.5,3.1h0Z"/>
          <path class="st8" d="M895.7,269.4c-1.3,1.1-2.6-3.4-2.6-4.3s.6-2.3.4-3.6c4.3,1.1,3.7,4.6,2.3,7.9h-.1Z"/>
          <path class="st8" d="M740.8,147.9c-.8.1-1-.5-1.3-1.1-1.7-3.2,1.1-8.4.2-12.1.6-.3,1.1.6,1.1.9v12.2h0Z"/>
          <path class="st8" d="M890.8,281.9v-5.5c0-.6,1.8-.7,2.4-.5,2.5.8,0,6-2.4,5.9h0Z"/>
          <path class="st8" d="M943.2,134.7v4.7c.2,2.5,2.3,7-1.1,8.1,1-4.2-.2-8.5,0-12.8h1.1Z"/>
          <path class="st8" d="M766.8,145.2c-.2-.3,0-1.3.4-1.7.8-1.3,7.1-3.3,7.6-1.9s-3.4,1.6-4.4,1.9-3.3,1.8-3.5,1.6h0Z"/>
          <path class="st8" d="M846.3,227.7v1.1c-.5.5-9.7.5-10.2,0s0-.8,0-1.1h10.2Z"/>
          <path class="st8" d="M830.1,229.9v1.1c-.4.4-8.7-2-9.9-2.4s-1.1,0-1.1-.6c1.4-.3,10.5,1.3,10.9,1.9h0Z"/>
          <path class="st8" d="M863.7,227.7c.2,1-.2.6-.8.8-3.1,1.1-6.8,1.9-10.1,2.2,0-.8.4-.9.9-1.1,2.9-1.1,6.9-1.2,10-1.9h0Z"/>
          <path class="st8" d="M914.9,155c.5,3,1.1,6.1.8,9.2s-1,4.6-1.9,3.6c0-2,1-3.7,1.1-5.8s-.5-4.2-.7-6.4,0-.5.7-.5h0Z"/>
          <path class="st8" d="M788.3,261.5c-1,2.7-1.2,5-1.3,7.9-.9-.8-1.8-3.1-1.7-4.3s1.9-3.4,3-3.6Z"/>
          <path class="st8" d="M894.2,273.6h-3v-4.9c.7-.8,3.4,4.6,3,4.9Z"/>
          <path class="st8" d="M849.3,229.5c0,2.5-2.3,5.3-4.9,3.6l4.9-3.6Z"/>
          <path class="st8" d="M838,233.7l-3.4-.6c-3.5-5.8,0-3,2.5-.6s1,.4.9,1.2Z"/>
          <path class="st19" d="M782.3,277.7h-.8c-.5-3.2-1.1-6.2-1.5-9.4h.4c.5,3.1,1.3,6.4,1.9,9.4h0Z"/>
          <path class="st8" d="M762.3,181c.8.9-2,4.1-3.4,3.4-.8-.8,3.1-3.7,3.4-3.4Z"/>
          <path class="st8" d="M788.3,276.2l-.2,4.9c-1.2-1.3-2.4-4.5.2-4.9Z"/>
          <path class="st8" d="M923.5,183.3c.6,1-.8,1.7-1.4,1.3s-1.8-2.4-1.5-3.2c.2-.2,2.8,1.8,2.9,1.9h0Z"/>
          <path class="st19" d="M780,263.4c0,.8.2,1.5-.9,1.1s0-.8-.2-1.1h1.1Z"/>
          <path class="st19" d="M779.6,266.8c0-.9-.3-1.3.8-1.1v1.5l-.8-.4Z"/>
          <path class="st8" d="M780.4,267.2v1.1h-.4c0-.3-.4-.6-.4-1.5l.8.4h0Z"/>
          <path class="st8" d="M789.4,264.9c.2-2,2.1-3,3.9-3l93.3.2c1.6.7,2.1,1.8,2.6,3.4l-2.4-1.3c-31.1-.8-62.3-.1-93.5-.4l-3.9,1.1h0Z"/>
          <path class="st18" d="M885,299.4c-.6.7-2.5,1.3-3.5,1.2l-85-.2c-2.6-.6-3.3-2.1-3.7-4.6s-.6-6.3-.8-9c-.4-5.3-.2-10.7-.6-16,.5-3.1,4.2-3.2,6.8-3.4,27.1-1.8,56,1.4,83.3,0,2.7.2,5.8,1.1,5.8,4.3-.6,7.8-.2,16.4-1.1,24.1s-.9,3.1-1.2,3.5h0ZM881.7,269.8l-85.2.2c0,.3,1.3.5,1.7.6,6.1.4,12.7.3,18.8.4,14.2.2,28.4-.2,42.6-.4,6.3,0,13.1.4,19.2,0,.7,0,2.5-.1,2.8-.8h.1Z"/>
          <path class="st18" d="M931.6,120.5c.3-.4,1.4-.4,2-.5l13.4-.2c1.2.7,1.3,8.4,1,10-.3.5-4.8,1.1-5.7,1.1-1.6,0-9.2-.1-10.2-.8s-1.3-8.7-.5-9.7h0Z"/>
          <path class="st18" d="M736.2,119.7l14.8.5c1.6.9,1.5,8.2.5,9.6-1,1.4-9.8,1.3-11.7,1.1-4.9-.4-5.3-.2-5.1-5.1s.5-5.9,1.4-6.2h0Z"/>
          <path class="st8" d="M881.7,269.8c-.3.6-2.2.7-2.8.8-6.2.4-13-.1-19.2,0-14.1.2-28.4.6-42.6.4-6.1,0-12.8,0-18.8-.4s-1.7-.3-1.7-.6l85.2-.2h-.1Z"/>
        </g>
      </g>
    </g>
    <g class="st17">
      <g>
        <path class="st6" d="M527.3,171.2c-7.2,0-14.3-2.9-19.3-7.8,1.2,2.1,3.1,3.9,5.8,5.2l1.9.9h-2.1c-7.6,0-11.3-5.9-15-11.6-3.1-4.8-6.3-9.7-11.7-11.1-1.2-.3-2.4-.5-3.5-.5-4.3,0-8.1,2.2-11.6,6.5-1.2,1.5-2.3,3.2-3.5,5.1-3.5,5.4-7.4,11.6-14.6,11.6h-2.4l1.8-.9c2-1,4.5-2.7,5.9-5.4-4.2,5-12,7.6-18.5,8h-1.4c-5.9,0-11-2.1-14.5-5.8-3.5-3.8-5.2-9.2-4.7-15.3.5-6.7,5.3-11.5,11.3-11.5s2.4.2,3.6.5l1.6.5-4.9,1.4c-3.1,1.6-4.6,4.7-3.8,7.9.6,2.5,2.8,5.4,7.2,5.4s.6,0,.9,0c5.7-.6,9.7-5.2,13.6-9.6,2.7-3,5.4-6.2,8.7-8.1,3.1-1.8,6.7-2.7,10.2-2.7,6.3,0,11.8,2.9,15,7.9,3.4-5,8.8-7.9,14.9-7.9s8.6,1.4,12.2,4c2.5,1.8,4.8,4.4,6.9,6.9,3.8,4.4,7.8,9,13.5,9.6h.9c4.1,0,6.5-2.7,7.2-5.4.8-3.2-.8-6.3-3.9-7.9l-4.8-1.4,1.6-.5c1.2-.4,2.4-.5,3.6-.5,6,0,10.8,4.8,11.3,11.5.5,6.2-1.1,11.4-4.5,15.1-3.6,3.9-9,6-15.2,6h.3Z"/>
        <path class="st7" d="M498.5,134.4c4.1,0,8.3,1.3,11.9,3.9,6.9,4.8,11.4,15.6,20.7,16.5h1c8.2,0,11-10.5,3.5-14.3l-3.2-.9c1.2-.4,2.3-.5,3.5-.5,5.9,0,10.3,4.7,10.8,11,1.1,14-8.6,20.6-19.2,20.6s-14.4-2.8-19.5-8.3l-1.4-2c.7,4,3.6,6.8,7.1,8.6h0c-13.5,0-14.4-19.6-26.5-22.6-1.3-.3-2.5-.5-3.6-.5-4.8,0-8.8,2.6-12,6.6-4.9,6.2-8.4,16.5-17.7,16.5s-.2,0-.3,0c3.3-1.7,6.2-4.3,7-8,0-.2.2-.6,0-.6s0,0,0,0c-3.5,6.7-12.6,9.8-19.8,10.2h-1.4c-11.8,0-19.7-8.4-18.7-20.6.5-6.3,4.9-11,10.8-11s2.3.2,3.4.5l-3.2.9c-7.5,3.9-4.7,14.3,3.5,14.3s.6,0,1,0c9.8-1,14.5-13.2,22.5-17.7,3.1-1.8,6.6-2.7,10-2.7,5.9,0,11.6,2.7,14.8,8.1h.4c3.5-5.5,9-8.1,14.7-8.1M498.5,133.4v1-1c-6,0-11.4,2.7-14.9,7.5-3.3-4.7-8.9-7.5-15-7.5s-7.3,1-10.5,2.8c-3.4,1.9-6.2,5.1-8.9,8.2-4,4.6-7.8,8.9-13.3,9.4h-.9c-4,0-6.1-2.7-6.7-5-.5-2.3,0-5.5,3.6-7.4l3.1-.9,3.3-.9-3.3-1c-1.3-.4-2.5-.6-3.7-.6-6.3,0-11.3,5-11.8,12-.5,6.2,1.2,11.7,4.9,15.6,3.6,3.9,8.9,6,14.9,6s1,0,1.5,0c2.8-.2,5.9-.7,8.8-1.7h3.9c.1.1.2.1.4.1,7.5,0,11.5-6.3,15.1-11.8,1.2-1.8,2.2-3.5,3.4-5,3.3-4.2,7.1-6.3,11.2-6.3s2.2.1,3.4.4c5.2,1.3,8.2,6,11.4,10.9,3.7,5.8,7.6,11.8,15.4,11.8h4.1c3.1,1.1,6.3,1.7,9.6,1.7,6.4,0,11.9-2.2,15.6-6.2,3.6-3.8,5.2-9.2,4.7-15.5-.5-6.9-5.5-12-11.8-12s-2.5.2-3.7.6l-3.3,1,3.3.9,3.1.9c3.5,1.8,4.2,5,3.6,7.3-.6,2.3-2.6,5.1-6.7,5.1s-.6,0-.9,0c-5.6-.5-9.4-5-13.2-9.4-2.2-2.5-4.4-5.1-7-7-3.7-2.6-8.2-4.1-12.5-4.1h-.2,0Z"/>
      </g>
      <path class="st7" d="M470.2,135.8l-2.9.6c-14.1,2.6-18,23.2-33.4,21.7s-8-3.8-7.9-8.5c.4.9.5,1.8.9,2.7,2.2,4.6,8.5,5.2,12.9,3.5,8.1-3.1,11.8-12.4,19-16.9,3.4-2.1,7.4-3.5,11.5-3.3v.2h-.1Z"/>
    </g>
  </g>
  <g id="Capa_5" class="st17">
    <rect class="st0" y="-456.6" width="1166.2" height="1080"/>
  </g>
  <g id="Capa_6" class="st17">
    <g id="Capa_11">
      <path class="st3" d="M274.9,204.1s5.8-6.7,4.6-19.6c-1.2-12.9-37.3-144.8-37.3-144.8l-12.7,39.1s42.7,121,43.3,123.1c.6,2,1.8,2.8,1.8,2.7s.3-.4.3-.4h0Z"/>
      <path class="st3" d="M217.4,26.8s4.4-4.6,6.8-6.3,4.7-3.2,4.7-3.2c0,0-5.6-3.1-7.2-3.7s-4-2.9-4.5-10.3c-.5-7.4-4.2-14.6-7-18.5s-2.1-6.1-1.4-8c.7-2-.8-6.4-3.6-6.6s-4.5,4.2-4.5,4.2c0,0-12.3,1.1-12.4-10.1-.1-11.3,7.3-11.9,7.3-11.9,0,0,2.2,3.6,4.7,1.4,2.4-2.3,2.7-6.3-1-7.8s-4.5-1.8-4.5-1.8c0,0,7.6-10.6-.3-26.9-7.9-16.3-22.4-18.5-28.3-18.7s-16.2,7.1-17.4,18.5c-1.1,11.4,0,24.1,11,32.7s21.9,5.9,21.9,5.9c0,0-4,11.9,4.2,21.6s12.1,5,18.8,17c6.6,12.1,3.5,19.8,3.5,19.8,0,0-4,1.1-2.7,5.1s5.5,3.3,6,4.5-1,5-.4,6.8,3.5,9.2,3.5,9.2l2.9-12.9h-.1ZM161.8-56.7c-6.6-6-7.7-13.9-7.9-16.1-.3-3-1.4-12.8,5.5-19.1.8-.7,5.6-5,12.3-4.5,7.4.5,11.8,6.3,14.4,9.8,1.7,2.2,5.6,7.5,5.8,15.3,0,2.5.3,10.6-5.7,16.2-.9.8-4.1,3.8-9.1,4.4-7.7,1-13.4-4.2-15.4-6h0Z"/>
      <path class="st3" d="M188.2,204.4s23.4-64.4,31.3-94c7.9-29.6,24.1-76.9,24.1-76.9,0,0,2.1-5.7,1.8-8.4s.3-3.4,2.4-4.5c2.1-1,5.5-1.8,4.2-4.2-1.2-2.4-4.5-3.7-4.5-3.7,0,0-2.2-11.5,4.3-21.8,6.6-10.4,9-6.2,15.5-14.4,6.5-8.2,6.7-13.3,6.3-16.1-.4-2.8-1.1-5-.2-5.5s17.8-.2,25.3-15.4c7.5-15.2,7.8-28.6-1.1-37.5-8.9-8.9-16.7-6.7-22.5-5.2s-15.7,12.2-18.5,21.2c-2.8,9,1.2,24.9,1.2,24.9,0,0-8,3-7.1,7.5s3.9,4.3,5.2,3.3,2-1.8,2-1.8c0,0,10,5.5,6.5,14.2-3.6,8.6-12,7.3-12,7.3,0,0-1.2-5-4.7-4.2-3.5.7-4,3.6-3,6.4s4.2,4.3,4.2,4.3c0,0-7.6,7.3-9.7,16.5-2.1,9.2-2.3,14.2-2.3,14.2,0,0-1.6,1-1.7,1.8-.1.8,0,1.4,0,1.4,0,0,.1-.2-.3.4-.5.6-10.8,7.5-12.6,9.2-1.7,1.7-4.1,4-4.1,4,0,0-17.6,75.9-22.1,99.4s-9.6,56.9-9.4,66.6c.1,9.8,1,11.5,1.1,11.6,0,.1.3-.3.3-.3v-.3h.1ZM261.6-68.3c-1.7-9.7,3-17.3,4.3-19.3,1.9-3,5.3-8.1,11.8-10,1.2-.4,7.3-2.1,12.9,1.4,4.3,2.7,5.8,7,6.7,9.6,2.5,7.3.5,13.8-.3,16.2-.9,2.8-2.9,7.3-7.1,11.3-2.3,2.2-5.6,5.3-10.8,6.1-1.2.2-5.8.7-10.1-1.9-5.9-3.5-7.1-10.4-7.6-13.4h.2Z"/>
      <path class="st5" d="M212.1,28.7c.4.2,2.1-3.2,2.9-4.8,1.9-3.9,4.4-9.8,3.8-10.1-.5-.2-3.1,3.5-4.8,7.5-1.5,3.4-2.3,7.2-1.9,7.3h0Z"/>
      <path class="st5" d="M211.5,16c-.6.2-1.4-.8-2.3-.4-1,.5-1.7,2.4-.9,3.3.6.6,1.7.6,2.5.2,1.7-.7,2.2-3,2.4-4,2.4-11.5-4.3-22.2-4.3-22.2-3.8-6-9-10.6-12.9-14-4.5-3.9-6.7-5-8.4-8.6-.3-.7-3.4-6.9-1.1-13.4,2.6-7.5,10.7-10.4,10.5-10.7-.2-.3-8.8,2.2-11.9,9.8-2.7,6.8.7,13.5,1.3,14.6,1.7,3.4,3.5,4.4,8.5,8.9,7.1,6.5,10.7,9.8,13.2,13.9,6.1,10,5.3,21.8,3.4,22.4v.2h0Z"/>
      <path class="st5" d="M197.2-21.2c0,.2,2.7,1.8,5.7,1.2,2-.4,4.7-2,4.6-3.7-.1-1.4-2-2.7-3-2.3-1.1.4-.3,2.6-1.9,3.9-.9.7-2.2.8-3.3.9h-2.1Z"/>
      <path class="st5" d="M181.5-48.4c-.2-.2,7.6-3.4,11.2-11.1,4.6-9.9-.7-20.8-.4-20.8s6.5,11.3,1.8,21.3c-3.7,7.9-12.4,10.9-12.6,10.7h0Z"/>
      <path class="st5" d="M243.1,22.8c-1.4.5-6.3-9.7-5.8-10,.4-.2,3.2,4.8,4.4,4.3.8-.3,0-3.1-.2-7.2-.3-7,1.7-12.5,2.4-14.5,1.9-5.1,4.5-8.5,5.3-9.4,4.7-5.9,7.7-5.3,13.2-11.7,2.5-2.9,4.3-5,5.4-8.5.3-.9,2.4-8.6-2.1-13.9-2.2-2.6-6.2-4.8-8.2-3.6-1.3.7-1.3,2.6-2.3,2.6s-1.8-1.4-1.6-2.6c.3-1.6,2.7-2.5,4.3-2.7,4.2-.4,7.9,3.9,9.6,6.8,3.4,6,1.6,12.3,1.3,13.6-1.1,3.9-3.1,6.3-5.3,8.9-5.3,6.2-8.2,5.5-13,11.4-.8.9-3.5,4.4-5.5,9.6-2.2,5.7-2.3,10.5-2.4,13.9-.2,8.1,1.5,12.7.5,13h0Z"/>
      <path class="st5" d="M246,18.5c.8.7,2.7.3,3.2-.8.7-1.4-.9-3.5-2-3.4-.9,0-1.5,1.4-1.6,2.4,0,.4-.1,1.3.4,1.8h0Z"/>
      <path class="st5" d="M189.4,197.1c.3,0,3.9-22.6,11.3-61.3,3.4-17.7,7.6-39.4,13.6-67.2,6-27.7,10.1-43.9,9.8-43.9s-6.3,20.5-11.8,44c-1.9,8.2-6.1,26.7-13.1,66.8-5.6,32-10.1,61.6-9.7,61.6h-.1Z"/>
      <path class="st5" d="M233.2,60.5c0-.4-4.2-1.6-8.8-1.6s-3.8,0-5,.9c-1.3,1-1.7,2.4-2.5,6.8-.7,3.9-1.1,5.9-1.2,7.1-.6,7.6-5.8,29.5-8.1,39.8-5.8,25-11.4,52.8-11,52.9.4,0,7.3-24.4,13-53,3-15.2,6.8-30.3,9.6-45.6.4-2.2,1.6-4.2,1.5-6.5,0-.2,0-.9.4-1.2.7-.6,2.1,0,2.6.3,3.8,1.6,9.5.7,9.6.2h-.1Z"/>
      <path class="st5" d="M297.5-64.4c-.2,0,6.1-9,3.8-19.3-2-9.2-9.8-14.4-9.5-14.6.2-.2,8.5,4.7,10.7,13.7,2.6,10.6-4.8,20.3-5,20.2Z"/>
      <circle class="st4" cx="230.1" cy="37.8" r="5.4"/>
    </g>
    <g id="Capa_3">
      <g class="st17">
        <g>
          <path class="st12" d="M818.7,74.1v4.1c-3.3.3-4.3,1.6-5.7,3.4-1.3,39.8-.6,80-.7,119.7v5.9c0,2,.7,2,.5,2.4-.4,1-5.1.5-6.3.6V74.1h12.2Z"/>
          <path class="st12" d="M788.5,209.9c-.3.6-.5,1.4-.2,2.3.7,2,4,3.5,7.6,4,16.1,2.3,44.1.9,44.1.9,0,0,5.3,0,7.9-.4,1.1.2.8-.3,1.3,0,.4.2.7.7.9,1.6,0,.4.2.9.3,1.5h-79c0-.9,0-2.9,1.6-4.8,3.2-3.8,9.9-4.4,10.7-4.5,4.7-.7,4.8-.5,4.8-.5"/>
          <path class="st6" d="M818.9,130.4v1.7c-1.6-.2-1.1.6-1.1,1.2v4.5c0,.7-.5,1.4,1.1,1.2"/>
          <path class="st6" d="M818.9,120v4.1"/>
          <path class="st6" d="M818.9,109.7v6.2"/>
          <path class="st6" d="M818.9,86.6v86.3s-.3,22.4,0,33.9v3.1h16c8.5.8,14.6,7,14.6,7-2.1,0-5.4.1-9.5.2-18.2.6-32.7,1.8-44.1-.9-4.3-1-6.9-2.3-7.6-4-.3-.7-.3-1.5.2-2.4h18.6c2.2,0,3.7.3,4.5-.6.6-.6.3-1.4.3-2.4v-5.9c0-39.8-.6-80,.7-119.7.2-.4.7-2,3-2.8s3.2-.4,3.2-.4v8.6h0Z"/>
          <path class="st6" d="M840.2,210.8"/>
        </g>
      </g>
      <g class="st17">
        <path class="st12" d="M875.9,125.5c-.4,1.3-6,6.5-7.5,7.1-30.4,11.9-87.9,12.6-117.9,0-3.2-1.4-6.2-4.2-7.2-7.3-2.7-.1-6.3-.4-9.3-.9,6.3,8.7,28,14.4,36.3,16,21,4.2,45.5,4.5,66.7,1.8,4.2-.6,8.8-1.4,13-2.3,9.5-1.9,34.9-8.1,36.7-19.6,0-.9.2-1.7.3-2.5-2.4,1.1-6.3,2.6-11,4.4.2,1,.2,2.2,0,3.3h0Z"/>
        <path class="st7" d="M798.6,104.9c18.3-1,40,.5,57.7,5.3,6.3,1.7,22.3,6.5,19.6,15.3-.4,1.3-6,6.5-7.5,7.1-30.4,11.9-87.9,12.6-117.9,0-5.7-2.4-10.6-9.2-5.3-14.5,9.1-9,40.5-12.6,53.3-13.2h.1Z"/>
      </g>
      <g>
        <path class="st6" d="M115.3,64.3c8,0,14.2.8,18.6,2.4,4.4,1.6,8.2,3.3,11.2,5,1.5.9,2.7,1.5,3.6,1.9.9.4,1.8.6,2.7.6s2.1-.7,2.7-2c.6-1.3,1-3.4,1.4-6.1h4.2c-.1,2.6-.3,5.6-.5,9s-.3,8-.4,13.6v22.3h-4.2c-.5-6.7-2.1-13.3-4.7-19.7-2.6-6.4-6.3-11.7-10.9-15.8-4.6-4.2-10.1-6.3-16.5-6.3s-9.9,1.5-13.4,4.4c-3.6,2.9-5.3,7.2-5.3,12.7s1.1,8.4,3.3,11.7c2.2,3.3,5.7,6.7,10.4,10.2,4.7,3.6,10.9,8,18.7,13.4,5.5,3.8,10.5,7.6,15,11.4s8.1,8.1,10.8,12.9,4,10.6,4,17.3-2.3,15-6.9,20.4c-4.6,5.4-10.7,9.4-18.3,12.1-7.6,2.6-15.9,4-24.8,4s-15-.7-20-2.2-9.2-3-12.6-4.6c-2.7-1.7-4.8-2.6-6.3-2.6s-2.1.7-2.7,2c-.6,1.4-1,3.4-1.4,6.1h-4.2c.2-3.2.4-6.9.5-11.1,0-4.2,0-9.7.2-16.5v-25.8h4.2c.5,8.6,1.9,16.6,4.1,24.1,2.3,7.5,5.8,13.5,10.5,18.1s11,6.9,18.9,6.9,8.4-.7,11.7-2.1c3.2-1.4,5.8-3.5,7.6-6.2s2.8-5.9,2.8-9.8-1.2-9.7-3.5-13.5c-2.3-3.9-5.5-7.5-9.5-10.9s-8.6-6.8-13.9-10.2c-5.8-3.9-11.2-7.8-16.2-11.8-5-3.9-9-8.3-12.1-13.2-3-4.9-4.5-10.7-4.5-17.5s2.1-14.7,6.4-19.8,9.9-8.9,16.9-11.3c7-2.5,14.4-3.7,22.3-3.7v.2h.1Z"/>
        <path class="st9" d="M242.5,66.9l44.5,114.8c1.7,4.2,3.6,7.1,5.5,8.9,2,1.8,3.7,2.7,5.3,2.9v3.7c-4.4-.2-9.6-.4-15.5-.5h-35.7c-5.5,0-9.9.2-13.2.5v-3.7c6.3-.2,10.2-1.3,11.9-3.2,1.7-1.9,1.3-6-1.2-12.2l-29.4-81.5,3.7-6.4-25.4,66.1c-3.1,8-4.9,14.4-5.6,19.2-.7,4.8-.4,8.6.8,11.1,1.2,2.6,3.2,4.4,5.9,5.3,2.7,1,5.9,1.5,9.6,1.7v3.7c-4.5-.2-8.6-.4-12.2-.5h-19.4c-2.6,0-4.9.2-6.7.5v-3.7c2.8-.5,5.6-2.3,8.4-5.4,2.8-3.1,5.6-8.5,8.6-16.1l40.8-105.1c2.9.2,6.2.4,9.7.4s6.7-.1,9.7-.4h-.1ZM248.9,144.2v3.7h-54.8l1.8-3.7h53Z"/>
        <path class="st6" d="M363.4,66.9v3.7c-4.2.1-7.3.6-9.5,1.4-2.1.8-3.6,2.3-4.3,4.4-.7,2.1-1.1,5.5-1.1,10v94.9c0,3.3.2,5.8.7,7.5s1.4,2.8,2.8,3.3c1.3.6,3.3.8,5.9.8h6.1c3.2,0,6.6-1.2,10.3-3.7,3.7-2.5,7.3-5.8,10.8-10.1,3.5-4.3,6.5-9.2,9.1-14.6,2.6-5.5,4.4-11.1,5.5-17h4.2c-.4,4.4-.6,10.1-.6,16.9s0,7.8.2,13.9c.1,6.1.5,12.4,1.1,18.9-6.3-.2-13.3-.4-21.2-.5h-50.2c-6,0-12,.1-18,.2-6.1,0-11.8.2-17.2.3v-3.7c3.8-.2,6.6-.7,8.5-1.5,1.8-.7,3.1-2.2,3.7-4.4.6-2.2.9-5.5.9-9.9v-91.3c0-4.5-.3-7.9-.9-10s-1.9-3.6-3.8-4.4c-1.9-.8-4.7-1.3-8.4-1.4v-3.7c3.6.1,8.2.2,14.1.4,5.8.1,12.1.2,18.7.2s12.1,0,18-.2c5.9-.1,10.7-.2,14.5-.4h0Z"/>
        <path class="st6" d="M484.2,64.3c13.9,0,26,2.6,36.4,7.9,10.4,5.3,18.5,12.9,24.3,22.7,5.8,9.9,8.6,21.9,8.6,36s-2.9,25.8-8.8,36.1c-5.9,10.3-14.1,18.3-24.6,24.1-10.5,5.8-22.5,8.6-36.2,8.6s-26-2.6-36.4-7.9-18.5-12.9-24.3-22.8-8.6-21.9-8.6-35.9,3-25.8,8.9-36.1,14.1-18.3,24.6-24.1c10.4-5.8,22.4-8.6,36.1-8.6h0ZM483.5,67.6c-6.1,0-11.5,2.8-16,8.3s-8,13.1-10.5,22.8-3.7,20.9-3.7,33.7,1.4,24.3,4.2,33.9c2.8,9.6,6.6,17.1,11.4,22.3,4.8,5.2,10.1,7.8,15.8,7.8s11.5-2.8,16-8.3,8-13.2,10.5-22.9c2.5-9.8,3.7-20.9,3.7-33.6s-1.4-24.5-4.2-34c-2.8-9.6-6.6-17-11.4-22.2s-10.1-7.8-15.8-7.8h0Z"/>
        <path class="st6" d="M731.2,66.9v3.7c-3.7.1-6.5.6-8.4,1.4-1.9.8-3.2,2.3-3.8,4.4-.6,2.1-.9,5.5-.9,10v91.3c0,4.4.3,7.7,1,9.9.7,2.2,1.9,3.7,3.8,4.4s4.6,1.2,8.3,1.5v3.7c-3.8-.2-8.6-.4-14.5-.5h-36.7c-5.8,0-10.5.2-14.1.5v-3.7c4.2-.2,7.3-.7,9.5-1.5,2.1-.7,3.6-2.2,4.3-4.4.7-2.2,1.1-5.5,1.1-9.9v-98.4l1.8-.4-46.2,118.1h-2.9l-51.9-118.1v82.3c0,8.2.3,14.5,1,18.9s2.3,7.5,5,9.4c2.6,1.9,6.8,3.3,12.6,4.1v3.7c-2.5-.2-5.6-.4-9.6-.5h-19.3c-2.8,0-5.2.2-7,.5v-3.7c3.8-.9,6.6-2.2,8.5-4,1.8-1.8,3.1-4.6,3.7-8.6.6-3.9.9-9.3.9-16.2v-78.4c0-4.5-.3-7.9-.9-10-.6-2.1-1.9-3.6-3.8-4.4-1.9-.8-4.7-1.3-8.4-1.4v-3.7c1.8.1,4.2.2,7,.4,2.8.1,5.6.2,8.3.2,7.1,0,13.9,0,20.4-.2,6.5-.1,12.4-.2,17.7-.4l36.4,82.1-5.5,6.1,34-87.6h16c6.1,0,12.1,0,18-.2,5.9-.1,10.7-.2,14.5-.4h.1Z"/>
        <path class="st6" d="M811,64.3c13.9,0,26,2.6,36.4,7.9,10.4,5.3,18.5,12.9,24.3,22.7,5.8,9.9,8.6,21.9,8.6,36s-2.9,25.8-8.8,36.1c-5.9,10.3-14.1,18.3-24.6,24.1-10.5,5.8-22.5,8.6-36.2,8.6s-26-2.6-36.4-7.9-18.5-12.9-24.3-22.8-8.6-21.9-8.6-35.9,3-25.8,8.9-36.1,14.1-18.3,24.6-24.1c10.4-5.8,22.4-8.6,36.1-8.6h0ZM810.3,67.6c-6.1,0-11.5,2.8-16,8.3s-8,13.1-10.5,22.8-3.7,20.9-3.7,33.7,1.4,24.3,4.2,33.9,6.6,17.1,11.4,22.3c4.8,5.2,10.1,7.8,15.8,7.8s11.5-2.8,16-8.3,8-13.2,10.5-22.9c2.5-9.8,3.7-20.9,3.7-33.6s-1.4-24.5-4.2-34c-2.8-9.6-6.6-17-11.4-22.2-4.8-5.2-10.1-7.8-15.8-7.8Z"/>
        <path class="st6" d="M1015.8,66.9v3.7c-3.7.7-6.5,2-8.4,3.9-1.9,1.8-3.2,4.7-3.8,8.6-.6,3.9-.9,9.3-.9,16.3v97.9c-1.8-.2-3.8-.4-6-.4s-4.4.1-6.9.4l-81.5-89.1v53c0,8.2.3,14.5,1,18.9s2.3,7.5,5,9.4c2.6,1.9,6.8,3.3,12.6,4.1v3.7c-2.5-.2-5.6-.4-9.6-.5h-19.3c-2.8,0-5.2.2-7,.5v-3.7c3.8-.9,6.6-2.2,8.5-4,1.8-1.8,3.1-4.6,3.7-8.6.6-3.9.9-9.3.9-16.2v-78.4c0-4.5-.3-7.9-.9-10-.6-2.1-1.9-3.6-3.8-4.4-1.9-.8-4.7-1.3-8.4-1.4v-3.7c1.8.1,4.2.2,7,.4,2.8.1,5.6.2,8.3.2s6.1,0,9-.2c2.9-.1,5.6-.2,7.9-.4l75.3,79.5v-43.4c0-8.2-.3-14.5-1-18.9s-2.3-7.5-4.9-9.5c-2.6-2-6.8-3.3-12.7-4v-3.7c2.5.1,5.6.2,9.6.4,3.9.1,7.6.2,11,.2s5.6,0,8.4-.2c2.8-.1,5.1-.2,6.9-.4h0Z"/>
      </g>
      <g id="Capa_2" class="st17">
        <g>
          <path class="st14" d="M880.6,101.6c-26.7-20-113.1-19.4-140.8-.8-7.3,4.9-9.2,11.5-7.5,20.1.2,1.2.8,2.4,1.6,3.5,3,.5,5.2.7,8,.8,0-2.3,1-4.8,3.3-7.1,9.1-9,40.5-12.6,53.3-13.2,18.3-1,40,.5,57.7,5.3,5.4,1.5,22,3.9,23.6,10.6,4.7-1.8,4.7-1.9,7.1-3,.6-6.6-.6-11.9-6.4-16.2h.1Z"/>
          <path class="st6" d="M739.9,100.8c6.8-49.4,58-84.5,104.6-56.8,19.7,11.8,32.7,33.7,36.2,55.2v2.3c-26.7-20-113.1-19.4-140.8-.8h0Z"/>
        </g>
      </g>
      <g class="st15">
        <g class="st15">
          <text class="st13" transform="translate(316.5 255.7)"><tspan x="0" y="0">HAIR STUIDIO</tspan></text>
        </g>
      </g>
      <line class="st11" x1="293.4" y1="24.7" x2="1007.4" y2="24.7"/>
      <line class="st11" x1="69.4" y1="239.3" x2="293.4" y2="239.3"/>
      <line class="st11" x1="783.5" y1="239.3" x2="1007.4" y2="239.3"/>
      <line class="st11" x1="69.4" y1="24.7" x2="164.1" y2="24.7"/>
      <g class="st17">
        <path d="M893-52.7c17.2-1.8,33.4-6.9,49.8-11.5,8.3-2.4,16.8-4.3,25.1-6.5,2.4-.6,4.4,0,6.3,1.3,4,2.7,7.1,6.1,9.6,10.2,4,6.8,6,14.2,6.7,21.9.9,9.7,0,19.3-3.2,28.6-2.5,6.9-5.8,13.3-11.3,18.5-2.7,2.5-5.7,4.4-9.3,5.7-1.7.6-3.3.6-5,0-9-2.9-18-5.8-27-8.7-10.6-3.4-21.4-6.2-32.4-8-2.9-.5-5.8-.8-8.9-1.2,6.6-7.2,8.3-15.9,8.3-25.2s-2.1-17.9-8.6-25.2h0ZM979.6-60.5c-.8-1.1-1.7-2.2-2.6-3.4-.7-1.1-1.6-1.4-2.9-1.4-7.1.2-14,1.7-20.8,3.6-11.2,3-22.3,6.3-33.5,9.3-5.9,1.6-12,2.8-18,4.3.4.7,1,1.4,1.4,2.2.7,1.5,1.8,1.9,3.4,1.5,9.6-2.2,19.3-4.2,28.9-6.5,10.6-2.5,21.2-5.3,31.9-7.7,4-.9,8.1-1.2,12.2-1.8h0Z"/>
        <path d="M984.3,112.7c.8-.8,1.5-1.7,2.3-2.5,1.1-1,2.1-2.3,3.4-2.9,2.4-1.3,4.9-.2,6,2.3.9,2.1.8,4.3,0,6.4-2.4,7-7.2,11.5-14.4,13.3-1.2.3-1.9.8-2.3,2-1.3,3.3-.8,3.4-4.8,1.9-1.1-.4-2.1-1.1-3-1.7-2-1.4-2.8-3-2.5-5.6.8-5.9.4-11.9-.4-17.9,0-.5-.5-1.1-.9-1.4-2.3-1.5-3.6-3.6-3.2-6.3.5-3.9,1.5-7.7,2.3-11.7.4.3.6.3.6.4,0,2.6,1.2,3.4,4,2.6,2.2-.6,3.7-2.1,4.9-3.9,2.9-4.2,4.2-9,5-13.9,2-12.5,2.5-25,.5-37.5-.3-2-.9-4-1.6-6-2.1-6-6.4-9.9-12.2-12.2-.3-.1-.6-.2-.8-.3h0c2.9-1,5.9-1.7,8.7-3,7.4-3.4,12.4-9.3,15.8-16.6,4.8-10.2,6.1-21,5.6-32.2-.4-8.3-2.1-16.4-6-23.8-.7-1.3-1.5-2.5-2.3-3.9,12.1-.5,23.7,1,35,5.3v-.4c-3.4-1.4-6.8-3-10.3-4.1-8.7-2.9-17.6-4.5-26.8-4.7-.5,0-1.2,0-1.5-.4-2.1-2.2-4.3-4.1-7.3-5.1v-.4c3.5.2,7,0,10.5.5,12.3,1.2,23.9,4.7,34.7,10.7,8.3,4.6,15.3,10.7,19.7,19.3,6.5,12.6,4.4,27.8-5.3,38.6-5.8,6.5-13.2,10.2-21.1,13.5-2.5,1-5.1,2-7.6,3.2-6.7,3.2-9.8,8.6-9.4,16,.4,7.9,1,15.9,1,23.8,0,14.4-2.4,28.5-7.3,42.1-1.3,3.7-3.6,6.8-7.2,8.7-.4.2-.8.7-.9,1.1-.5,2.2-.9,4.3-1.3,6.5.2,0,.3.1.5.2h-.3.2ZM1012.3-8.3c.6-1.1,1.2-2.1,1.7-3.2,2.4-5.1,3.1-10.6,3.2-16.1.2-6.8-.9-13.3-4.2-19.3-.5-.9-1.2-1.6-1.8-2.4-.2,0-.4,0-.6.2,1.4,13.5,2.1,27.1,1.7,40.8h0ZM999.7-49.8c-.3,0-.5,0-.8.2,1.9,13.5,1.8,27.1.4,40.7.5-.3.9-.7,1.2-1.1.9-1.9,1.9-3.7,2.5-5.6,1.9-6.2,2.5-12.5,1.8-18.9-.5-4.7-1.5-9.2-3.8-13.3-.4-.7-.9-1.3-1.3-1.9h0ZM1024.7-8.5c.5-.9,1-1.8,1.4-2.7,2.8-7.5,3.2-15.2,2-23-.6-4.2-1.9-8.3-4.5-11.8-.4-.6-.9-1-1.4-1.5,0,0-.3,0-.4.2,1.8,12.9,3.2,25.8,3,38.9h0ZM1036.1-9.6c4.8-7.6,5.2-26.7-3.4-34.3,2.5,11.4,3.8,22.8,3.4,34.3ZM981.6,124.5c5.5-1.8,9.1-4.9,10.7-10.1.2-.8-.3-1.8-.5-2.8-.7.4-1.4.8-2.1,1.3-.2.1-.3.4-.5.6-1.6,1.8-3.2,3.7-5.5,4.6-.3.1-.6.4-.7.7-.5,1.7-.9,3.5-1.5,5.6h0Z"/>
        <path d="M846.2-28.1c0-10.5.7-21.9,3.3-33.2.2-1,.5-2.1.9-3,1.1-2.7,3.6-3.7,6.2-2.4,3.6,1.8,7.2,3.7,10.8,5.6,6.2,3.2,12.8,5.6,19.6,7.3,1.6.4,3,1.6,4.3,2.7,4.3,4,6.4,9.2,7.3,14.8,1.5,8.8,1.1,17.5-2.6,25.7-1,2.1-2.3,4.2-3.8,6-1.7,2.2-3.8,3.7-6.7,4.3-9.3,2-17.8,6.1-26,10.7-1,.6-2,1.1-3.1,1.6-2.2.9-4.4.3-5.5-1.8-.8-1.5-1.3-3.1-1.6-4.7-2.4-10.7-3-21.7-3.1-33.7h0ZM856.1,3.4h.6c.4-.4.9-.9,1.2-1.3,2.5-3.4,5.2-6.6,7.5-10.1,1-1.5,1.7-3.5,2-5.3,1.2-8.2,1.1-16.5.6-24.7-.2-3.4-.4-6.8-2.6-9.7-2.4-3.1-4.9-6-7.4-9-.4-.4-.9-.8-1.5-1.4-.3,1-.7,1.7-.8,2.5-1.3,5.6-1.6,11.3-1.5,17.1,0,11.5.3,23.1.6,34.6,0,2.5.9,4.9,1.4,7.4h0ZM896.7-32.4c-.5-5-1.5-10.2-4.8-14.6-.5-.6-1.4-1-2.2-1.2-2.6-.8-5.2-1.4-7.7-2.3-5-1.6-9.9-3.4-14.9-5.1,1.3,1.4,2.6,2.8,3.8,4.2,1.7,2,3.8,3.4,6.4,4.1,4.2,1.2,8.4,2.6,12.6,3.8,1.8.5,3.2,1.3,3.9,3.1,1.1,2.7,2,5.5,2.9,8Z"/>
        <path d="M968.6,130.3c2.4,2.8,5.4,4.2,8.9,5-1.9,4.1-4.8,7.3-8.6,9.6-7.3,4.6-15.1,5-23.2,2.4-3.3-1.1-6.5-2.5-9.8-3.6s-6.7-1.2-9.9.3c-3,1.4-4.9,3.8-6,7.2,32-1.4,63.8-1,95.5,2.7-42.4,3.5-84.8,3.2-127.2.3v-.6c1.2-.2,2.5-.4,3.7-.5,5.5-.5,10.9-.9,16.4-1.3,1,0,1.3-.6,1.5-1.3,1-3.2,2.3-6.3,4.5-8.9,5.6-6.8,12.9-9.2,21.3-7.5,3.7.7,7.3,2.4,11,3.4,2.6.7,5.3,1.6,8,1.7,6.4.3,10.9-2.7,13.8-8.3,0-.2,0-.3.3-.6h-.2Z"/>
        <path d="M979.7,43.3v6.5c0,1.9-1.1,2.8-3,2.9h-.6c-5.8.2-7.8-1.4-9-7.1-.8-4.2-.5-8.3,1.4-12.1,1.5-3,5.8-4.5,8.8-3.1.8.4,1.3,1.7,1.8,2.6.2.5.3,1.1.3,1.6.2,2.9.4,5.8.6,8.6h-.3ZM976.2,49.2c-1.4-5.2-.9-10.3-.5-15.8-2.6,3.8-2.3,12.6.5,15.8Z"/>
        <path d="M979.8,64.6c-.3,3-.6,6-1,9-.3,2.1-1.2,2.8-3.4,3h-2.6c-1.8,0-3.1-1.1-3.5-2.8-1.2-4.2-.9-8.4.7-12.5.7-1.7,2.1-2.6,3.9-2.6h1.5c3.4,0,4.1.7,4.2,4.2v1.7h.2,0ZM975.6,72.1h0c.2-3.2.4-6.4.6-9.6h-.7v9.7h.1Z"/>
        <path d="M859.2-9.9c.2-.9,0-2.6,1.4-2.6s1.3,1.7,1.3,2.8-.2,2.3-1.4,2.3-1.4-1.3-1.4-2.6h.1Z"/>
        <path d="M859-46.4c.4-.8.7-1.6,1.2-2.3h.9c.3.9.5,1.8.7,2.6v.4c-.5.5-1,1.1-1.5,1.6-.3-.6-.6-1.1-.9-1.7v-.6h-.4Z"/>
        <path d="M859-50.4c-.8,1-1.3,2.2-2,2.3-1.2.2-1.3-1-1.3-1.9s0-2.5,1.4-2.6c.6,0,1.1,1.2,1.9,2.2h0Z"/>
        <path d="M865.6-42.4c0,.3-.2.9-.5,1.3-.3.3-.8.6-1.3.6s-.7-.6-.8-.9c-.2-.4-.3-.9,0-1.3.3-.8.8-2,1.2-2,1.3,0,1.4,1.2,1.5,2.4h-.1Z"/>
        <path d="M855.3-3.9c.8-.9,1.4-1.6,2-2.3.4.8,1.1,1.5,1.2,2.3,0,1-.2,2.2-1.5,2.1-.6,0-1-1.2-1.7-2.1Z"/>
        <path d="M862.3-13.3c.7-.9,1.2-2.1,1.8-2.2,1.2,0,1.5,1.1,1.4,2.1,0,1-.3,2.3-1.5,2.2-.5,0-1-1.2-1.7-2h0Z"/>
        <path d="M866-36.7c-.5,1.2-.4,2.2-1.8,2.1-1.2,0-1.2-1.1-1.2-1.9s0-2.2,1.4-2.1c.6,0,1.1,1.2,1.6,1.9Z"/>
        <path d="M865.9-19c-.5.5-1,1.4-1.6,1.5-1.3.3-1.4-.9-1.4-1.8s0-1.9,1.2-1.9,1.3,1,1.7,2.3h0Z"/>
        <path d="M865.9-25.5c-.4,1.2-.3,2.4-1.6,2.4s-1.3-.9-1.2-1.7c0-.9,0-2.2,1.2-2.2s1.1,1,1.6,1.5Z"/>
        <path d="M862.6-30.6c.8-.9,1.2-2,1.8-2.1,1.2,0,1.2,1,1.3,2,0,1-.3,2-1.5,1.8-.5,0-.9-.9-1.6-1.7Z"/>
        <path d="M859.4-39.4c.3-1.3,0-2.7,1.4-2.6.4,0,1,1.2,1.1,1.9,0,1-.3,2.1-1.6,2-.4,0-.7-1-.9-1.3Z"/>
        <path d="M859-28c.7-.9,1.1-2,1.8-2.1,1.1-.2,1.1,1.1,1.1,1.9s-.2,2.1-1.4,2c-.4,0-.8-1-1.4-1.8h0Z"/>
        <path d="M858.8-38.5c-.8,1-1.2,2.1-1.9,2.3-.9.3-1.2-.8-1.2-1.6s.3-2.1,1.6-2.1.8.8,1.5,1.5h0Z"/>
        <path d="M859.4-21.4c.2-1.5,0-2.8,1.4-2.9.3,0,.9,1.3,1,2,0,.9-.2,2.1-1.5,2-.4,0-.7-.9-.9-1.1Z"/>
        <path d="M859.2-15.9c.4-1.3.4-2.8,1.7-2.6,1.3,0,1.1,1.7.8,2.7-.2.6-.9,1-1.3,1.5-.4-.5-.8-1-1.2-1.6Z"/>
        <path d="M859-33.7c.7-1,1.1-2.3,1.8-2.4,1.2-.2,1.1,1.1,1.1,1.9s0,2.1-1.4,2.1-.8-.9-1.4-1.6h0Z"/>
        <path d="M858.6-44.1c-.7.9-1.1,2-1.7,2.1-1,.2-1.3-.9-1.3-1.8s.3-2.1,1.5-2.1.9,1.1,1.5,1.9h0Z"/>
        <path d="M858.8-26.8c-.7.9-1.2,1.9-1.8,2.1-1.1.2-1.1-.9-1.1-1.7s.3-2,1.5-2,.8.9,1.5,1.6h-.1Z"/>
        <path d="M858.6-15c-.7.7-1.1,1.7-1.7,1.7-1.1,0-1.2-1-1.2-1.8s.4-1.9,1.5-1.9.8,1.1,1.4,2Z"/>
        <path d="M855.2-32.3c.8-.8,1.4-1.4,2-2,.3.6,1,1.3.9,1.9,0,.7-.8,1.4-1.2,2.1-.5-.6-1-1.2-1.7-2.1h0Z"/>
        <path d="M858.5-9.9c-.4,1.2-.5,2.2-1.7,2.2s-1-1.1-1-1.8.3-1.9,1.3-1.8c.5,0,.9,1,1.4,1.5h0Z"/>
        <path d="M858.6-20.8c-.7.8-1.1,1.9-1.8,2-.9.2-1.1-.8-1.1-1.6s0-2.2,1.4-2.2.8.9,1.4,1.7h0Z"/>
      </g>
    </g>
  </g>
  <g id="Capa_6_copia" class="st17">
    <g id="Capa_1_copia">
      <path class="st4" d="M274.9,204.1s5.8-6.7,4.6-19.6c-1.2-12.9-37.3-144.8-37.3-144.8l-12.7,39.1s42.7,121,43.3,123.1c.6,2,1.8,2.8,1.8,2.7s.3-.4.3-.4h0Z"/>
      <path class="st4" d="M217.4,26.8s4.4-4.6,6.8-6.3,4.7-3.2,4.7-3.2c0,0-5.6-3.1-7.2-3.7s-4-2.9-4.5-10.3c-.5-7.4-4.2-14.6-7-18.5s-2.1-6.1-1.4-8c.7-2-.8-6.4-3.6-6.6s-4.5,4.2-4.5,4.2c0,0-12.3,1.1-12.4-10.1-.1-11.3,7.3-11.9,7.3-11.9,0,0,2.2,3.6,4.7,1.4,2.4-2.3,2.7-6.3-1-7.8s-4.5-1.8-4.5-1.8c0,0,7.6-10.6-.3-26.9-7.9-16.3-22.4-18.5-28.3-18.7s-16.2,7.1-17.4,18.5c-1.1,11.4,0,24.1,11,32.7s21.9,5.9,21.9,5.9c0,0-4,11.9,4.2,21.6s12.1,5,18.8,17c6.6,12.1,3.5,19.8,3.5,19.8,0,0-4,1.1-2.7,5.1s5.5,3.3,6,4.5-1,5-.4,6.8,3.5,9.2,3.5,9.2l2.9-12.9h-.1ZM161.8-56.7c-6.6-6-7.7-13.9-7.9-16.1-.3-3-1.4-12.8,5.5-19.1.8-.7,5.6-5,12.3-4.5,7.4.5,11.8,6.3,14.4,9.8,1.7,2.2,5.6,7.5,5.8,15.3,0,2.5.3,10.6-5.7,16.2-.9.8-4.1,3.8-9.1,4.4-7.7,1-13.4-4.2-15.4-6h0Z"/>
      <path class="st4" d="M188.2,204.4s23.4-64.4,31.3-94c7.9-29.6,24.1-76.9,24.1-76.9,0,0,2.1-5.7,1.8-8.4s.3-3.4,2.4-4.5c2.1-1,5.5-1.8,4.2-4.2-1.2-2.4-4.5-3.7-4.5-3.7,0,0-2.2-11.5,4.3-21.8,6.6-10.4,9-6.2,15.5-14.4,6.5-8.2,6.7-13.3,6.3-16.1-.4-2.8-1.1-5-.2-5.5s17.8-.2,25.3-15.4c7.5-15.2,7.8-28.6-1.1-37.5-8.9-8.9-16.7-6.7-22.5-5.2s-15.7,12.2-18.5,21.2c-2.8,9,1.2,24.9,1.2,24.9,0,0-8,3-7.1,7.5s3.9,4.3,5.2,3.3,2-1.8,2-1.8c0,0,10,5.5,6.5,14.2-3.6,8.6-12,7.3-12,7.3,0,0-1.2-5-4.7-4.2-3.5.7-4,3.6-3,6.4s4.2,4.3,4.2,4.3c0,0-7.6,7.3-9.7,16.5-2.1,9.2-2.3,14.2-2.3,14.2,0,0-1.6,1-1.7,1.8-.1.8,0,1.4,0,1.4,0,0,.1-.2-.3.4-.5.6-10.8,7.5-12.6,9.2-1.7,1.7-4.1,4-4.1,4,0,0-17.6,75.9-22.1,99.4s-9.6,56.9-9.4,66.6c.1,9.8,1,11.5,1.1,11.6,0,.1.3-.3.3-.3v-.3h.1ZM261.6-68.3c-1.7-9.7,3-17.3,4.3-19.3,1.9-3,5.3-8.1,11.8-10,1.2-.4,7.3-2.1,12.9,1.4,4.3,2.7,5.8,7,6.7,9.6,2.5,7.3.5,13.8-.3,16.2-.9,2.8-2.9,7.3-7.1,11.3-2.3,2.2-5.6,5.3-10.8,6.1-1.2.2-5.8.7-10.1-1.9-5.9-3.5-7.1-10.4-7.6-13.4h.2Z"/>
      <path class="st2" d="M212.1,28.7c.4.2,2.1-3.2,2.9-4.8,1.9-3.9,4.4-9.8,3.8-10.1-.5-.2-3.1,3.5-4.8,7.5-1.5,3.4-2.3,7.2-1.9,7.3h0Z"/>
      <path class="st2" d="M211.5,16c-.6.2-1.4-.8-2.3-.4-1,.5-1.7,2.4-.9,3.3.6.6,1.7.6,2.5.2,1.7-.7,2.2-3,2.4-4,2.4-11.5-4.3-22.2-4.3-22.2-3.8-6-9-10.6-12.9-14-4.5-3.9-6.7-5-8.4-8.6-.3-.7-3.4-6.9-1.1-13.4,2.6-7.5,10.7-10.4,10.5-10.7-.2-.3-8.8,2.2-11.9,9.8-2.7,6.8.7,13.5,1.3,14.6,1.7,3.4,3.5,4.4,8.5,8.9,7.1,6.5,10.7,9.8,13.2,13.9,6.1,10,5.3,21.8,3.4,22.4v.2h0Z"/>
      <path class="st2" d="M197.2-21.2c0,.2,2.7,1.8,5.7,1.2,2-.4,4.7-2,4.6-3.7-.1-1.4-2-2.7-3-2.3-1.1.4-.3,2.6-1.9,3.9-.9.7-2.2.8-3.3.9h-2.1Z"/>
      <path class="st2" d="M181.5-48.4c-.2-.2,7.6-3.4,11.2-11.1,4.6-9.9-.7-20.8-.4-20.8s6.5,11.3,1.8,21.3c-3.7,7.9-12.4,10.9-12.6,10.7h0Z"/>
      <path class="st2" d="M243.1,22.8c-1.4.5-6.3-9.7-5.8-10,.4-.2,3.2,4.8,4.4,4.3.8-.3,0-3.1-.2-7.2-.3-7,1.7-12.5,2.4-14.5,1.9-5.1,4.5-8.5,5.3-9.4,4.7-5.9,7.7-5.3,13.2-11.7,2.5-2.9,4.3-5,5.4-8.5.3-.9,2.4-8.6-2.1-13.9-2.2-2.6-6.2-4.8-8.2-3.6-1.3.7-1.3,2.6-2.3,2.6s-1.8-1.4-1.6-2.6c.3-1.6,2.7-2.5,4.3-2.7,4.2-.4,7.9,3.9,9.6,6.8,3.4,6,1.6,12.3,1.3,13.6-1.1,3.9-3.1,6.3-5.3,8.9-5.3,6.2-8.2,5.5-13,11.4-.8.9-3.5,4.4-5.5,9.6-2.2,5.7-2.3,10.5-2.4,13.9-.2,8.1,1.5,12.7.5,13h0Z"/>
      <path class="st2" d="M246,18.5c.8.7,2.7.3,3.2-.8.7-1.4-.9-3.5-2-3.4-.9,0-1.5,1.4-1.6,2.4,0,.4-.1,1.3.4,1.8h0Z"/>
      <path class="st2" d="M189.4,197.1c.3,0,3.9-22.6,11.3-61.3,3.4-17.7,7.6-39.4,13.6-67.2,6-27.7,10.1-43.9,9.8-43.9s-6.3,20.5-11.8,44c-1.9,8.2-6.1,26.7-13.1,66.8-5.6,32-10.1,61.6-9.7,61.6h-.1Z"/>
      <path class="st2" d="M233.2,60.5c0-.4-4.2-1.6-8.8-1.6s-3.8,0-5,.9c-1.3,1-1.7,2.4-2.5,6.8-.7,3.9-1.1,5.9-1.2,7.1-.6,7.6-5.8,29.5-8.1,39.8-5.8,25-11.4,52.8-11,52.9.4,0,7.3-24.4,13-53,3-15.2,6.8-30.3,9.6-45.6.4-2.2,1.6-4.2,1.5-6.5,0-.2,0-.9.4-1.2.7-.6,2.1,0,2.6.3,3.8,1.6,9.5.7,9.6.2h-.1Z"/>
      <path class="st2" d="M297.5-64.4c-.2,0,6.1-9,3.8-19.3-2-9.2-9.8-14.4-9.5-14.6.2-.2,8.5,4.7,10.7,13.7,2.6,10.6-4.8,20.3-5,20.2Z"/>
      <circle class="st1" cx="230.1" cy="37.8" r="5.4"/>
    </g>
    <g id="Capa_3_copia">
      <g class="st17">
        <g>
          <path class="st12" d="M818.7,74.1v4.1c-3.3.3-4.3,1.6-5.7,3.4-1.3,39.8-.6,80-.7,119.7v5.9c0,2,.7,2,.5,2.4-.4,1-5.1.5-6.3.6V74.1h12.2Z"/>
          <path class="st12" d="M788.5,209.9c-.3.6-.5,1.4-.2,2.3.7,2,4,3.5,7.6,4,16.1,2.3,44.1.9,44.1.9,0,0,5.3,0,7.9-.4,1.1.2.8-.3,1.3,0,.4.2.7.7.9,1.6,0,.4.2.9.3,1.5h-79c0-.9,0-2.9,1.6-4.8,3.2-3.8,9.9-4.4,10.7-4.5,4.7-.7,4.8-.5,4.8-.5"/>
          <path class="st6" d="M818.9,130.4v1.7c-1.6-.2-1.1.6-1.1,1.2v4.5c0,.7-.5,1.4,1.1,1.2"/>
          <path class="st6" d="M818.9,120v4.1"/>
          <path class="st6" d="M818.9,109.7v6.2"/>
          <path class="st6" d="M818.9,86.6v86.3s-.3,22.4,0,33.9v3.1h16c8.5.8,14.6,7,14.6,7-2.1,0-5.4.1-9.5.2-18.2.6-32.7,1.8-44.1-.9-4.3-1-6.9-2.3-7.6-4-.3-.7-.3-1.5.2-2.4h18.6c2.2,0,3.7.3,4.5-.6.6-.6.3-1.4.3-2.4v-5.9c0-39.8-.6-80,.7-119.7.2-.4.7-2,3-2.8s3.2-.4,3.2-.4v8.6h0Z"/>
          <path class="st6" d="M840.2,210.8"/>
        </g>
      </g>
      <g class="st17">
        <path class="st12" d="M875.9,125.5c-.4,1.3-6,6.5-7.5,7.1-30.4,11.9-87.9,12.6-117.9,0-3.2-1.4-6.2-4.2-7.2-7.3-2.7-.1-6.3-.4-9.3-.9,6.3,8.7,28,14.4,36.3,16,21,4.2,45.5,4.5,66.7,1.8,4.2-.6,8.8-1.4,13-2.3,9.5-1.9,34.9-8.1,36.7-19.6,0-.9.2-1.7.3-2.5-2.4,1.1-6.3,2.6-11,4.4.2,1,.2,2.2,0,3.3h0Z"/>
        <path class="st7" d="M798.6,104.9c18.3-1,40,.5,57.7,5.3,6.3,1.7,22.3,6.5,19.6,15.3-.4,1.3-6,6.5-7.5,7.1-30.4,11.9-87.9,12.6-117.9,0-5.7-2.4-10.6-9.2-5.3-14.5,9.1-9,40.5-12.6,53.3-13.2h.1Z"/>
      </g>
      <g>
        <path class="st7" d="M115.3,64.3c8,0,14.2.8,18.6,2.4,4.4,1.6,8.2,3.3,11.2,5,1.5.9,2.7,1.5,3.6,1.9.9.4,1.8.6,2.7.6s2.1-.7,2.7-2c.6-1.3,1-3.4,1.4-6.1h4.2c-.1,2.6-.3,5.6-.5,9s-.3,8-.4,13.6v22.3h-4.2c-.5-6.7-2.1-13.3-4.7-19.7-2.6-6.4-6.3-11.7-10.9-15.8-4.6-4.2-10.1-6.3-16.5-6.3s-9.9,1.5-13.4,4.4c-3.6,2.9-5.3,7.2-5.3,12.7s1.1,8.4,3.3,11.7c2.2,3.3,5.7,6.7,10.4,10.2,4.7,3.6,10.9,8,18.7,13.4,5.5,3.8,10.5,7.6,15,11.4s8.1,8.1,10.8,12.9,4,10.6,4,17.3-2.3,15-6.9,20.4c-4.6,5.4-10.7,9.4-18.3,12.1-7.6,2.6-15.9,4-24.8,4s-15-.7-20-2.2-9.2-3-12.6-4.6c-2.7-1.7-4.8-2.6-6.3-2.6s-2.1.7-2.7,2c-.6,1.4-1,3.4-1.4,6.1h-4.2c.2-3.2.4-6.9.5-11.1,0-4.2,0-9.7.2-16.5v-25.8h4.2c.5,8.6,1.9,16.6,4.1,24.1,2.3,7.5,5.8,13.5,10.5,18.1s11,6.9,18.9,6.9,8.4-.7,11.7-2.1c3.2-1.4,5.8-3.5,7.6-6.2s2.8-5.9,2.8-9.8-1.2-9.7-3.5-13.5c-2.3-3.9-5.5-7.5-9.5-10.9s-8.6-6.8-13.9-10.2c-5.8-3.9-11.2-7.8-16.2-11.8-5-3.9-9-8.3-12.1-13.2-3-4.9-4.5-10.7-4.5-17.5s2.1-14.7,6.4-19.8,9.9-8.9,16.9-11.3c7-2.5,14.4-3.7,22.3-3.7v.2h.1Z"/>
        <path class="st9" d="M242.5,66.9l44.5,114.8c1.7,4.2,3.6,7.1,5.5,8.9,2,1.8,3.7,2.7,5.3,2.9v3.7c-4.4-.2-9.6-.4-15.5-.5h-35.7c-5.5,0-9.9.2-13.2.5v-3.7c6.3-.2,10.2-1.3,11.9-3.2,1.7-1.9,1.3-6-1.2-12.2l-29.4-81.5,3.7-6.4-25.4,66.1c-3.1,8-4.9,14.4-5.6,19.2-.7,4.8-.4,8.6.8,11.1,1.2,2.6,3.2,4.4,5.9,5.3,2.7,1,5.9,1.5,9.6,1.7v3.7c-4.5-.2-8.6-.4-12.2-.5h-19.4c-2.6,0-4.9.2-6.7.5v-3.7c2.8-.5,5.6-2.3,8.4-5.4,2.8-3.1,5.6-8.5,8.6-16.1l40.8-105.1c2.9.2,6.2.4,9.7.4s6.7-.1,9.7-.4h-.1ZM248.9,144.2v3.7h-54.8l1.8-3.7h53Z"/>
        <path class="st7" d="M363.4,66.9v3.7c-4.2.1-7.3.6-9.5,1.4-2.1.8-3.6,2.3-4.3,4.4-.7,2.1-1.1,5.5-1.1,10v94.9c0,3.3.2,5.8.7,7.5s1.4,2.8,2.8,3.3c1.3.6,3.3.8,5.9.8h6.1c3.2,0,6.6-1.2,10.3-3.7,3.7-2.5,7.3-5.8,10.8-10.1,3.5-4.3,6.5-9.2,9.1-14.6,2.6-5.5,4.4-11.1,5.5-17h4.2c-.4,4.4-.6,10.1-.6,16.9s0,7.8.2,13.9c.1,6.1.5,12.4,1.1,18.9-6.3-.2-13.3-.4-21.2-.5h-50.2c-6,0-12,.1-18,.2-6.1,0-11.8.2-17.2.3v-3.7c3.8-.2,6.6-.7,8.5-1.5,1.8-.7,3.1-2.2,3.7-4.4.6-2.2.9-5.5.9-9.9v-91.3c0-4.5-.3-7.9-.9-10s-1.9-3.6-3.8-4.4c-1.9-.8-4.7-1.3-8.4-1.4v-3.7c3.6.1,8.2.2,14.1.4,5.8.1,12.1.2,18.7.2s12.1,0,18-.2c5.9-.1,10.7-.2,14.5-.4h0Z"/>
        <path class="st7" d="M484.2,64.3c13.9,0,26,2.6,36.4,7.9,10.4,5.3,18.5,12.9,24.3,22.7,5.8,9.9,8.6,21.9,8.6,36s-2.9,25.8-8.8,36.1c-5.9,10.3-14.1,18.3-24.6,24.1-10.5,5.8-22.5,8.6-36.2,8.6s-26-2.6-36.4-7.9-18.5-12.9-24.3-22.8-8.6-21.9-8.6-35.9,3-25.8,8.9-36.1,14.1-18.3,24.6-24.1c10.4-5.8,22.4-8.6,36.1-8.6h0ZM483.5,67.6c-6.1,0-11.5,2.8-16,8.3s-8,13.1-10.5,22.8-3.7,20.9-3.7,33.7,1.4,24.3,4.2,33.9c2.8,9.6,6.6,17.1,11.4,22.3,4.8,5.2,10.1,7.8,15.8,7.8s11.5-2.8,16-8.3,8-13.2,10.5-22.9c2.5-9.8,3.7-20.9,3.7-33.6s-1.4-24.5-4.2-34c-2.8-9.6-6.6-17-11.4-22.2s-10.1-7.8-15.8-7.8h0Z"/>
        <path class="st7" d="M731.2,66.9v3.7c-3.7.1-6.5.6-8.4,1.4-1.9.8-3.2,2.3-3.8,4.4-.6,2.1-.9,5.5-.9,10v91.3c0,4.4.3,7.7,1,9.9.7,2.2,1.9,3.7,3.8,4.4s4.6,1.2,8.3,1.5v3.7c-3.8-.2-8.6-.4-14.5-.5h-36.7c-5.8,0-10.5.2-14.1.5v-3.7c4.2-.2,7.3-.7,9.5-1.5,2.1-.7,3.6-2.2,4.3-4.4.7-2.2,1.1-5.5,1.1-9.9v-98.4l1.8-.4-46.2,118.1h-2.9l-51.9-118.1v82.3c0,8.2.3,14.5,1,18.9s2.3,7.5,5,9.4c2.6,1.9,6.8,3.3,12.6,4.1v3.7c-2.5-.2-5.6-.4-9.6-.5h-19.3c-2.8,0-5.2.2-7,.5v-3.7c3.8-.9,6.6-2.2,8.5-4,1.8-1.8,3.1-4.6,3.7-8.6.6-3.9.9-9.3.9-16.2v-78.4c0-4.5-.3-7.9-.9-10-.6-2.1-1.9-3.6-3.8-4.4-1.9-.8-4.7-1.3-8.4-1.4v-3.7c1.8.1,4.2.2,7,.4,2.8.1,5.6.2,8.3.2,7.1,0,13.9,0,20.4-.2,6.5-.1,12.4-.2,17.7-.4l36.4,82.1-5.5,6.1,34-87.6h16c6.1,0,12.1,0,18-.2,5.9-.1,10.7-.2,14.5-.4h.1Z"/>
        <path class="st7" d="M811,64.3c13.9,0,26,2.6,36.4,7.9,10.4,5.3,18.5,12.9,24.3,22.7,5.8,9.9,8.6,21.9,8.6,36s-2.9,25.8-8.8,36.1c-5.9,10.3-14.1,18.3-24.6,24.1-10.5,5.8-22.5,8.6-36.2,8.6s-26-2.6-36.4-7.9-18.5-12.9-24.3-22.8-8.6-21.9-8.6-35.9,3-25.8,8.9-36.1,14.1-18.3,24.6-24.1c10.4-5.8,22.4-8.6,36.1-8.6h0ZM810.3,67.6c-6.1,0-11.5,2.8-16,8.3s-8,13.1-10.5,22.8-3.7,20.9-3.7,33.7,1.4,24.3,4.2,33.9,6.6,17.1,11.4,22.3c4.8,5.2,10.1,7.8,15.8,7.8s11.5-2.8,16-8.3,8-13.2,10.5-22.9c2.5-9.8,3.7-20.9,3.7-33.6s-1.4-24.5-4.2-34c-2.8-9.6-6.6-17-11.4-22.2-4.8-5.2-10.1-7.8-15.8-7.8Z"/>
        <path class="st7" d="M1015.8,66.9v3.7c-3.7.7-6.5,2-8.4,3.9-1.9,1.8-3.2,4.7-3.8,8.6-.6,3.9-.9,9.3-.9,16.3v97.9c-1.8-.2-3.8-.4-6-.4s-4.4.1-6.9.4l-81.5-89.1v53c0,8.2.3,14.5,1,18.9s2.3,7.5,5,9.4c2.6,1.9,6.8,3.3,12.6,4.1v3.7c-2.5-.2-5.6-.4-9.6-.5h-19.3c-2.8,0-5.2.2-7,.5v-3.7c3.8-.9,6.6-2.2,8.5-4,1.8-1.8,3.1-4.6,3.7-8.6.6-3.9.9-9.3.9-16.2v-78.4c0-4.5-.3-7.9-.9-10-.6-2.1-1.9-3.6-3.8-4.4-1.9-.8-4.7-1.3-8.4-1.4v-3.7c1.8.1,4.2.2,7,.4,2.8.1,5.6.2,8.3.2s6.1,0,9-.2c2.9-.1,5.6-.2,7.9-.4l75.3,79.5v-43.4c0-8.2-.3-14.5-1-18.9s-2.3-7.5-4.9-9.5c-2.6-2-6.8-3.3-12.7-4v-3.7c2.5.1,5.6.2,9.6.4,3.9.1,7.6.2,11,.2s5.6,0,8.4-.2c2.8-.1,5.1-.2,6.9-.4h0Z"/>
      </g>
      <g id="Capa_2_copia" class="st17">
        <g>
          <path class="st14" d="M880.6,101.6c-26.7-20-113.1-19.4-140.8-.8-7.3,4.9-9.2,11.5-7.5,20.1.2,1.2.8,2.4,1.6,3.5,3,.5,5.2.7,8,.8,0-2.3,1-4.8,3.3-7.1,9.1-9,40.5-12.6,53.3-13.2,18.3-1,40,.5,57.7,5.3,5.4,1.5,22,3.9,23.6,10.6,4.7-1.8,4.7-1.9,7.1-3,.6-6.6-.6-11.9-6.4-16.2h.1Z"/>
          <path class="st6" d="M739.9,100.8c6.8-49.4,58-84.5,104.6-56.8,19.7,11.8,32.7,33.7,36.2,55.2v2.3c-26.7-20-113.1-19.4-140.8-.8h0Z"/>
        </g>
      </g>
      <g class="st15">
        <g class="st15">
          <text class="st16" transform="translate(316.5 255.7)"><tspan x="0" y="0">HAIR STUIDIO</tspan></text>
        </g>
      </g>
      <line class="st10" x1="293.4" y1="24.7" x2="1007.4" y2="24.7"/>
      <line class="st10" x1="69.4" y1="239.3" x2="293.4" y2="239.3"/>
      <line class="st10" x1="783.5" y1="239.3" x2="1007.4" y2="239.3"/>
      <line class="st10" x1="69.4" y1="24.7" x2="164.1" y2="24.7"/>
      <g class="st17">
        <path d="M893-52.7c17.2-1.8,33.4-6.9,49.8-11.5,8.3-2.4,16.8-4.3,25.1-6.5,2.4-.6,4.4,0,6.3,1.3,4,2.7,7.1,6.1,9.6,10.2,4,6.8,6,14.2,6.7,21.9.9,9.7,0,19.3-3.2,28.6-2.5,6.9-5.8,13.3-11.3,18.5-2.7,2.5-5.7,4.4-9.3,5.7-1.7.6-3.3.6-5,0-9-2.9-18-5.8-27-8.7-10.6-3.4-21.4-6.2-32.4-8-2.9-.5-5.8-.8-8.9-1.2,6.6-7.2,8.3-15.9,8.3-25.2s-2.1-17.9-8.6-25.2h0ZM979.6-60.5c-.8-1.1-1.7-2.2-2.6-3.4-.7-1.1-1.6-1.4-2.9-1.4-7.1.2-14,1.7-20.8,3.6-11.2,3-22.3,6.3-33.5,9.3-5.9,1.6-12,2.8-18,4.3.4.7,1,1.4,1.4,2.2.7,1.5,1.8,1.9,3.4,1.5,9.6-2.2,19.3-4.2,28.9-6.5,10.6-2.5,21.2-5.3,31.9-7.7,4-.9,8.1-1.2,12.2-1.8h0Z"/>
        <path d="M984.3,112.7c.8-.8,1.5-1.7,2.3-2.5,1.1-1,2.1-2.3,3.4-2.9,2.4-1.3,4.9-.2,6,2.3.9,2.1.8,4.3,0,6.4-2.4,7-7.2,11.5-14.4,13.3-1.2.3-1.9.8-2.3,2-1.3,3.3-.8,3.4-4.8,1.9-1.1-.4-2.1-1.1-3-1.7-2-1.4-2.8-3-2.5-5.6.8-5.9.4-11.9-.4-17.9,0-.5-.5-1.1-.9-1.4-2.3-1.5-3.6-3.6-3.2-6.3.5-3.9,1.5-7.7,2.3-11.7.4.3.6.3.6.4,0,2.6,1.2,3.4,4,2.6,2.2-.6,3.7-2.1,4.9-3.9,2.9-4.2,4.2-9,5-13.9,2-12.5,2.5-25,.5-37.5-.3-2-.9-4-1.6-6-2.1-6-6.4-9.9-12.2-12.2-.3-.1-.6-.2-.8-.3h0c2.9-1,5.9-1.7,8.7-3,7.4-3.4,12.4-9.3,15.8-16.6,4.8-10.2,6.1-21,5.6-32.2-.4-8.3-2.1-16.4-6-23.8-.7-1.3-1.5-2.5-2.3-3.9,12.1-.5,23.7,1,35,5.3v-.4c-3.4-1.4-6.8-3-10.3-4.1-8.7-2.9-17.6-4.5-26.8-4.7-.5,0-1.2,0-1.5-.4-2.1-2.2-4.3-4.1-7.3-5.1v-.4c3.5.2,7,0,10.5.5,12.3,1.2,23.9,4.7,34.7,10.7,8.3,4.6,15.3,10.7,19.7,19.3,6.5,12.6,4.4,27.8-5.3,38.6-5.8,6.5-13.2,10.2-21.1,13.5-2.5,1-5.1,2-7.6,3.2-6.7,3.2-9.8,8.6-9.4,16,.4,7.9,1,15.9,1,23.8,0,14.4-2.4,28.5-7.3,42.1-1.3,3.7-3.6,6.8-7.2,8.7-.4.2-.8.7-.9,1.1-.5,2.2-.9,4.3-1.3,6.5.2,0,.3.1.5.2h-.3.2ZM1012.3-8.3c.6-1.1,1.2-2.1,1.7-3.2,2.4-5.1,3.1-10.6,3.2-16.1.2-6.8-.9-13.3-4.2-19.3-.5-.9-1.2-1.6-1.8-2.4-.2,0-.4,0-.6.2,1.4,13.5,2.1,27.1,1.7,40.8h0ZM999.7-49.8c-.3,0-.5,0-.8.2,1.9,13.5,1.8,27.1.4,40.7.5-.3.9-.7,1.2-1.1.9-1.9,1.9-3.7,2.5-5.6,1.9-6.2,2.5-12.5,1.8-18.9-.5-4.7-1.5-9.2-3.8-13.3-.4-.7-.9-1.3-1.3-1.9h0ZM1024.7-8.5c.5-.9,1-1.8,1.4-2.7,2.8-7.5,3.2-15.2,2-23-.6-4.2-1.9-8.3-4.5-11.8-.4-.6-.9-1-1.4-1.5,0,0-.3,0-.4.2,1.8,12.9,3.2,25.8,3,38.9h0ZM1036.1-9.6c4.8-7.6,5.2-26.7-3.4-34.3,2.5,11.4,3.8,22.8,3.4,34.3ZM981.6,124.5c5.5-1.8,9.1-4.9,10.7-10.1.2-.8-.3-1.8-.5-2.8-.7.4-1.4.8-2.1,1.3-.2.1-.3.4-.5.6-1.6,1.8-3.2,3.7-5.5,4.6-.3.1-.6.4-.7.7-.5,1.7-.9,3.5-1.5,5.6h0Z"/>
        <path d="M846.2-28.1c0-10.5.7-21.9,3.3-33.2.2-1,.5-2.1.9-3,1.1-2.7,3.6-3.7,6.2-2.4,3.6,1.8,7.2,3.7,10.8,5.6,6.2,3.2,12.8,5.6,19.6,7.3,1.6.4,3,1.6,4.3,2.7,4.3,4,6.4,9.2,7.3,14.8,1.5,8.8,1.1,17.5-2.6,25.7-1,2.1-2.3,4.2-3.8,6-1.7,2.2-3.8,3.7-6.7,4.3-9.3,2-17.8,6.1-26,10.7-1,.6-2,1.1-3.1,1.6-2.2.9-4.4.3-5.5-1.8-.8-1.5-1.3-3.1-1.6-4.7-2.4-10.7-3-21.7-3.1-33.7h0ZM856.1,3.4h.6c.4-.4.9-.9,1.2-1.3,2.5-3.4,5.2-6.6,7.5-10.1,1-1.5,1.7-3.5,2-5.3,1.2-8.2,1.1-16.5.6-24.7-.2-3.4-.4-6.8-2.6-9.7-2.4-3.1-4.9-6-7.4-9-.4-.4-.9-.8-1.5-1.4-.3,1-.7,1.7-.8,2.5-1.3,5.6-1.6,11.3-1.5,17.1,0,11.5.3,23.1.6,34.6,0,2.5.9,4.9,1.4,7.4h0ZM896.7-32.4c-.5-5-1.5-10.2-4.8-14.6-.5-.6-1.4-1-2.2-1.2-2.6-.8-5.2-1.4-7.7-2.3-5-1.6-9.9-3.4-14.9-5.1,1.3,1.4,2.6,2.8,3.8,4.2,1.7,2,3.8,3.4,6.4,4.1,4.2,1.2,8.4,2.6,12.6,3.8,1.8.5,3.2,1.3,3.9,3.1,1.1,2.7,2,5.5,2.9,8Z"/>
        <path d="M968.6,130.3c2.4,2.8,5.4,4.2,8.9,5-1.9,4.1-4.8,7.3-8.6,9.6-7.3,4.6-15.1,5-23.2,2.4-3.3-1.1-6.5-2.5-9.8-3.6s-6.7-1.2-9.9.3c-3,1.4-4.9,3.8-6,7.2,32-1.4,63.8-1,95.5,2.7-42.4,3.5-84.8,3.2-127.2.3v-.6c1.2-.2,2.5-.4,3.7-.5,5.5-.5,10.9-.9,16.4-1.3,1,0,1.3-.6,1.5-1.3,1-3.2,2.3-6.3,4.5-8.9,5.6-6.8,12.9-9.2,21.3-7.5,3.7.7,7.3,2.4,11,3.4,2.6.7,5.3,1.6,8,1.7,6.4.3,10.9-2.7,13.8-8.3,0-.2,0-.3.3-.6h-.2Z"/>
        <path d="M979.7,43.3v6.5c0,1.9-1.1,2.8-3,2.9h-.6c-5.8.2-7.8-1.4-9-7.1-.8-4.2-.5-8.3,1.4-12.1,1.5-3,5.8-4.5,8.8-3.1.8.4,1.3,1.7,1.8,2.6.2.5.3,1.1.3,1.6.2,2.9.4,5.8.6,8.6h-.3ZM976.2,49.2c-1.4-5.2-.9-10.3-.5-15.8-2.6,3.8-2.3,12.6.5,15.8Z"/>
        <path d="M979.8,64.6c-.3,3-.6,6-1,9-.3,2.1-1.2,2.8-3.4,3h-2.6c-1.8,0-3.1-1.1-3.5-2.8-1.2-4.2-.9-8.4.7-12.5.7-1.7,2.1-2.6,3.9-2.6h1.5c3.4,0,4.1.7,4.2,4.2v1.7h.2,0ZM975.6,72.1h0c.2-3.2.4-6.4.6-9.6h-.7v9.7h.1Z"/>
        <path d="M859.2-9.9c.2-.9,0-2.6,1.4-2.6s1.3,1.7,1.3,2.8-.2,2.3-1.4,2.3-1.4-1.3-1.4-2.6h.1Z"/>
        <path d="M859-46.4c.4-.8.7-1.6,1.2-2.3h.9c.3.9.5,1.8.7,2.6v.4c-.5.5-1,1.1-1.5,1.6-.3-.6-.6-1.1-.9-1.7v-.6h-.4Z"/>
        <path d="M859-50.4c-.8,1-1.3,2.2-2,2.3-1.2.2-1.3-1-1.3-1.9s0-2.5,1.4-2.6c.6,0,1.1,1.2,1.9,2.2h0Z"/>
        <path d="M865.6-42.4c0,.3-.2.9-.5,1.3-.3.3-.8.6-1.3.6s-.7-.6-.8-.9c-.2-.4-.3-.9,0-1.3.3-.8.8-2,1.2-2,1.3,0,1.4,1.2,1.5,2.4h-.1Z"/>
        <path d="M855.3-3.9c.8-.9,1.4-1.6,2-2.3.4.8,1.1,1.5,1.2,2.3,0,1-.2,2.2-1.5,2.1-.6,0-1-1.2-1.7-2.1Z"/>
        <path d="M862.3-13.3c.7-.9,1.2-2.1,1.8-2.2,1.2,0,1.5,1.1,1.4,2.1,0,1-.3,2.3-1.5,2.2-.5,0-1-1.2-1.7-2h0Z"/>
        <path d="M866-36.7c-.5,1.2-.4,2.2-1.8,2.1-1.2,0-1.2-1.1-1.2-1.9s0-2.2,1.4-2.1c.6,0,1.1,1.2,1.6,1.9Z"/>
        <path d="M865.9-19c-.5.5-1,1.4-1.6,1.5-1.3.3-1.4-.9-1.4-1.8s0-1.9,1.2-1.9,1.3,1,1.7,2.3h0Z"/>
        <path d="M865.9-25.5c-.4,1.2-.3,2.4-1.6,2.4s-1.3-.9-1.2-1.7c0-.9,0-2.2,1.2-2.2s1.1,1,1.6,1.5Z"/>
        <path d="M862.6-30.6c.8-.9,1.2-2,1.8-2.1,1.2,0,1.2,1,1.3,2,0,1-.3,2-1.5,1.8-.5,0-.9-.9-1.6-1.7Z"/>
        <path d="M859.4-39.4c.3-1.3,0-2.7,1.4-2.6.4,0,1,1.2,1.1,1.9,0,1-.3,2.1-1.6,2-.4,0-.7-1-.9-1.3Z"/>
        <path d="M859-28c.7-.9,1.1-2,1.8-2.1,1.1-.2,1.1,1.1,1.1,1.9s-.2,2.1-1.4,2c-.4,0-.8-1-1.4-1.8h0Z"/>
        <path d="M858.8-38.5c-.8,1-1.2,2.1-1.9,2.3-.9.3-1.2-.8-1.2-1.6s.3-2.1,1.6-2.1.8.8,1.5,1.5h0Z"/>
        <path d="M859.4-21.4c.2-1.5,0-2.8,1.4-2.9.3,0,.9,1.3,1,2,0,.9-.2,2.1-1.5,2-.4,0-.7-.9-.9-1.1Z"/>
        <path d="M859.2-15.9c.4-1.3.4-2.8,1.7-2.6,1.3,0,1.1,1.7.8,2.7-.2.6-.9,1-1.3,1.5-.4-.5-.8-1-1.2-1.6Z"/>
        <path d="M859-33.7c.7-1,1.1-2.3,1.8-2.4,1.2-.2,1.1,1.1,1.1,1.9s0,2.1-1.4,2.1-.8-.9-1.4-1.6h0Z"/>
        <path d="M858.6-44.1c-.7.9-1.1,2-1.7,2.1-1,.2-1.3-.9-1.3-1.8s.3-2.1,1.5-2.1.9,1.1,1.5,1.9h0Z"/>
        <path d="M858.8-26.8c-.7.9-1.2,1.9-1.8,2.1-1.1.2-1.1-.9-1.1-1.7s.3-2,1.5-2,.8.9,1.5,1.6h-.1Z"/>
        <path d="M858.6-15c-.7.7-1.1,1.7-1.7,1.7-1.1,0-1.2-1-1.2-1.8s.4-1.9,1.5-1.9.8,1.1,1.4,2Z"/>
        <path d="M855.2-32.3c.8-.8,1.4-1.4,2-2,.3.6,1,1.3.9,1.9,0,.7-.8,1.4-1.2,2.1-.5-.6-1-1.2-1.7-2.1h0Z"/>
        <path d="M858.5-9.9c-.4,1.2-.5,2.2-1.7,2.2s-1-1.1-1-1.8.3-1.9,1.3-1.8c.5,0,.9,1,1.4,1.5h0Z"/>
        <path d="M858.6-20.8c-.7.8-1.1,1.9-1.8,2-.9.2-1.1-.8-1.1-1.6s0-2.2,1.4-2.2.8.9,1.4,1.7h0Z"/>
      </g>
    </g>
  </g>
  <g id="Capa_6_copia_2">
    <g id="Capa_1_copia_2">
      <path class="st7" d="M93.3,240.9s4.2-4.6,3.6-13.6-23.2-102-23.2-102l-9.7,27.1s27.5,85.5,27.9,86.9c.4,1.4,1.2,2,1.2,1.9s.2-.3.2-.3h0Z"/>
      <path class="st4" d="M56.8,113.2s3.2-3.2,4.9-4.2,3.4-2.1,3.4-2.1c0,0-3.9-2.3-5-2.7s-2.8-2.1-3-7.3-2.6-10.3-4.5-13.1-1.3-4.3-.8-5.6c.5-1.4-.4-4.5-2.4-4.7-1.9-.2-3.2,2.8-3.2,2.8,0,0-8.6.5-8.5-7.3,0-7.9,5.4-8.1,5.4-8.1,0,0,1.5,2.6,3.2,1,1.7-1.5,2-4.3-.5-5.5-2.6-1.2-3.1-1.3-3.1-1.3,0,0,5.5-7.2.3-18.8s-15.3-13.4-19.4-13.6-11.5,4.6-12.5,12.6-.4,16.9,7.1,23.1c7.5,6.2,15.2,4.6,15.2,4.6,0,0-3.1,8.2,2.5,15.2,5.6,7,8.4,3.7,12.8,12.3,4.4,8.6,2,13.9,2,13.9,0,0-2.8.7-2,3.5s3.8,2.4,4.1,3.3-.8,3.5-.4,4.8c.4,1.3,2.2,6.5,2.2,6.5l2.3-8.9v-.4h0ZM19.5,53.8c-4.5-4.4-5.1-9.9-5.2-11.5-.2-2.1-.8-9,4.2-13.3.6-.5,4-3.4,8.7-2.9,5.1.5,8.1,4.7,9.9,7.1,1.1,1.6,3.8,5.4,3.8,10.8s0,7.4-4.3,11.2c-.6.6-2.9,2.6-6.4,2.9-5.4.6-9.3-3.2-10.6-4.5v.2h0Z"/>
      <path class="st4" d="M32.8,236.9s17.7-44.6,23.8-65.1c6.1-20.6,18.4-53.3,18.4-53.3,0,0,1.6-4,1.4-5.8-.2-1.9.3-2.4,1.7-3.1,1.5-.7,3.9-1.1,3-2.9-.8-1.7-3.1-2.6-3.1-2.6,0,0-1.3-8.1,3.5-15.2,4.8-7.1,6.4-4.2,11.1-9.8s5-9.2,4.7-11.1c-.3-2-.7-3.5,0-3.9s12.5.2,18-10.3c5.6-10.5,6-19.9,0-26.3-6.1-6.4-11.6-5-15.6-4.1-4.1.9-11.2,8.2-13.4,14.4-2.1,6.2.4,17.4.4,17.4,0,0-5.6,1.9-5.1,5.1.5,3.2,2.7,3.1,3.6,2.4.9-.7,1.5-1.2,1.5-1.2,0,0,6.9,4.1,4.3,10-2.7,6-8.5,4.9-8.5,4.9,0,0-.8-3.5-3.2-3.1-2.5.4-2.9,2.4-2.2,4.4.6,2,2.9,3.1,2.9,3.1,0,0-5.5,5-7.1,11.4-1.7,6.4-1.9,9.9-1.9,9.9,0,0-1.2.6-1.3,1.2v1s0-.1-.2.3c-.3.4-7.7,5-9,6.2s-3,2.7-3,2.7c0,0-13.8,52.7-17.4,69.1-3.6,16.4-7.8,39.6-7.9,46.4,0,6.9.5,8,.5,8.1l.2-.2h-.1ZM89.5,47.6c-1-6.8,2.5-12,3.4-13.4,1.4-2,3.8-5.6,8.5-6.8.9-.2,5.2-1.3,9,1.2,3,2,3.9,5,4.5,6.9,1.6,5.2,0,9.7-.5,11.3-.7,2-2.2,5.1-5.2,7.8-1.7,1.5-4,3.6-7.7,4-.9,0-4,.4-7-1.5-4-2.6-4.7-7.4-5-9.5Z"/>
      <path class="st0" d="M53,114.5c.3.1,1.5-2.2,2.1-3.3,1.4-2.7,3.2-6.7,2.9-7-.3-.2-2.2,2.4-3.5,5.2-1.1,2.4-1.8,5-1.4,5.1h0Z"/>
      <path class="st0" d="M52.8,105.6c-.4.1-.9-.6-1.6-.3-.7.3-1.2,1.7-.7,2.3.4.5,1.2.4,1.7.2,1.2-.5,1.6-2.1,1.7-2.8,1.9-8-2.6-15.6-2.6-15.6-2.5-4.3-6.1-7.6-8.7-10-3.1-2.8-4.6-3.6-5.7-6.2-.2-.5-2.2-4.9-.5-9.4,2-5.2,7.7-7.1,7.6-7.3,0-.2-6.2,1.4-8.5,6.6-2,4.7.2,9.4.6,10.2,1.1,2.4,2.4,3.1,5.7,6.4,4.9,4.7,7.3,7.1,8.9,10,4,7.1,3.3,15.4,1.9,15.7l.2.2h0Z"/>
      <path class="st0" d="M43.6,79.3c0,.2,1.9,1.3,4,1,1.4-.3,3.4-1.3,3.3-2.5,0-1-1.3-1.9-2-1.6-.8.3-.3,1.8-1.4,2.7-.7.5-1.6.5-2.4.6-.9,0-1.4-.1-1.5,0,0,0,0-.2,0-.2Z"/>
      <path class="st0" d="M33.1,60c0-.2,5.4-2.2,8.1-7.5,3.4-6.8,0-14.5,0-14.6.2,0,4.4,8,.9,14.9-2.8,5.4-8.9,7.4-9,7.2h0Z"/>
      <path class="st0" d="M74.8,110.9c-1,.3-4.2-6.9-3.8-7.1.3-.1,2.2,3.4,3,3.1.6-.2,0-2.2,0-5,0-4.9,1.4-8.7,2-10.1,1.4-3.5,3.3-5.8,3.9-6.5,3.4-4,5.5-3.6,9.5-7.9,1.8-2,3.1-3.4,3.9-5.9.2-.6,1.8-6-1.2-9.8-1.5-1.9-4.3-3.5-5.7-2.7-.9.5-1,1.8-1.6,1.8s-1.2-1-1-1.8c.2-1.1,1.9-1.7,3.1-1.8,2.9-.2,5.5,2.9,6.6,5,2.3,4.3.9,8.7.6,9.5-.8,2.7-2.3,4.4-3.9,6.1-3.8,4.2-5.8,3.7-9.3,7.7-.6.6-2.6,3-4.1,6.6-1.6,3.9-1.8,7.3-2,9.6-.3,5.7.8,8.9,0,9.1h0Z"/>
      <path class="st0" d="M76.9,108c.5.5,1.9.2,2.3-.5.5-1-.6-2.5-1.3-2.4-.6,0-1.1,1-1.2,1.7,0,.3,0,.9.2,1.3h0Z"/>
      <path class="st0" d="M33.7,231.8c.2,0,3.2-15.7,9.1-42.7,2.7-12.3,6.1-27.4,10.8-46.7,4.8-19.2,7.9-30.5,7.7-30.5-.3,0-4.8,14.2-9.1,30.5-1.5,5.7-4.8,18.6-10.5,46.5-4.5,22.3-8.2,42.9-8,42.9h0Z"/>
      <path class="st0" d="M67.1,137.1c0-.3-2.9-1.2-6.1-1.3-1.8,0-2.7,0-3.5.5-.9.6-1.2,1.6-1.9,4.7-.6,2.7-.9,4.1-1,4.9-.6,5.3-4.6,20.5-6.5,27.7-4.5,17.4-9,36.7-8.7,36.8.2,0,5.6-16.9,10.1-36.8,2.4-10.6,5.3-21.1,7.6-31.7.3-1.5,1.2-2.9,1.2-4.5s0-.6.3-.9c.5-.4,1.5.1,1.8.3,2.6,1.2,6.6.7,6.7.3Z"/>
      <path class="st0" d="M114.6,51c-.2,0,4.4-6.2,3-13.4-1.2-6.5-6.5-10.2-6.4-10.4.2-.1,5.9,3.5,7.2,9.8,1.6,7.5-3.7,14.1-3.9,14h.1Z"/>
      <circle class="st1" cx="65.4" cy="121.2" r="3.8"/>
    </g>
    <g id="Capa_1_copia_21" data-name="Capa_1_copia_2">
      <path class="st7" d="M1077.8,240.9h0s.2.2.2.3.8-.5,1.2-1.9c.4-1.4,27.9-86.9,27.9-86.9l-9.7-27.1s-22.6,93-23.2,102,3.6,13.6,3.6,13.6h0Z"/>
      <path class="st4" d="M1114.2,113.2v.4s2.3,8.9,2.3,8.9c0,0,1.8-5.2,2.2-6.5.4-1.3-.7-3.9-.4-4.8s3.3-.5,4.1-3.3-2-3.5-2-3.5c0,0-2.4-5.3,2-13.9,4.4-8.6,7.2-5.3,12.8-12.3,5.6-7,2.5-15.2,2.5-15.2,0,0,7.7,1.6,15.2-4.6,7.5-6.2,8.1-15.1,7.1-23.1-1-8-8.4-12.8-12.5-12.6s-14.2,2-19.4,13.6.3,18.8.3,18.8c0,0-.5.1-3.1,1.3-2.5,1.2-2.2,4-.5,5.5,1.7,1.6,3.2-1,3.2-1,0,0,5.4.2,5.4,8.1,0,7.8-8.5,7.3-8.5,7.3,0,0-1.3-3-3.2-2.8-2,.2-2.9,3.3-2.4,4.7.5,1.3,1.1,2.8-.8,5.6-1.9,2.8-4.3,7.9-4.5,13.1s-1.9,6.9-3,7.3-5,2.7-5,2.7c0,0,1.7,1.1,3.4,2.1s4.9,4.2,4.9,4.2h0ZM1151.5,53.8v-.2c-1.3,1.3-5.2,5.1-10.6,4.5-3.5-.3-5.8-2.3-6.4-2.9-4.3-3.8-4.3-5.8-4.3-11.2s2.7-9.2,3.8-10.8c1.8-2.4,4.8-6.6,9.9-7.1,4.7-.5,8.1,2.4,8.7,2.9,5,4.3,4.4,11.2,4.2,13.3,0,1.6-.7,7.1-5.2,11.5h0Z"/>
      <path class="st4" d="M1138.3,236.9h0s.2.2.2.2c0-.1.5-1.2.5-8.1-.1-6.8-4.3-30-7.9-46.4-3.6-16.4-17.4-69.1-17.4-69.1,0,0-1.7-1.5-3-2.7s-8.7-5.8-9-6.2c-.2-.4-.2-.3-.2-.3v-1c-.1-.6-1.3-1.2-1.3-1.2,0,0-.2-3.5-1.9-9.9-1.6-6.4-7.1-11.4-7.1-11.4,0,0,2.3-1.1,2.9-3.1.7-2,.3-4-2.2-4.4-2.4-.4-3.2,3.1-3.2,3.1,0,0-5.8,1.1-8.5-4.9-2.6-5.9,4.3-10,4.3-10,0,0,.6.5,1.5,1.2.9.7,3.1.8,3.6-2.4.5-3.2-5.1-5.1-5.1-5.1,0,0,2.5-11.2.4-17.4-2.2-6.2-9.3-13.5-13.4-14.4-4-.9-9.5-2.3-15.6,4.1-6,6.4-5.6,15.8,0,26.3,5.5,10.5,17.3,9.9,18,10.3s.3,1.9,0,3.9c-.3,1.9,0,5.5,4.7,11.1,4.7,5.6,6.3,2.7,11.1,9.8,4.8,7.1,3.5,15.2,3.5,15.2,0,0-2.3.9-3.1,2.6-.9,1.8,1.5,2.2,3,2.9,1.4.7,1.9,1.2,1.7,3.1-.2,1.8,1.4,5.8,1.4,5.8,0,0,12.3,32.7,18.4,53.3,6.1,20.5,23.8,65.1,23.8,65.1h0ZM1076.6,57.1c-3,1.9-6.1,1.5-7,1.5-3.7-.4-6-2.5-7.7-4-3-2.7-4.5-5.8-5.2-7.8-.5-1.6-2.1-6.1-.5-11.3.6-1.9,1.5-4.9,4.5-6.9,3.8-2.5,8.1-1.4,9-1.2,4.7,1.2,7.1,4.8,8.5,6.8.9,1.4,4.4,6.6,3.4,13.4-.3,2.1-1,6.9-5,9.5Z"/>
      <path class="st0" d="M1118,114.5h0c.4-.1-.3-2.7-1.4-5.1-1.3-2.8-3.2-5.4-3.5-5.2-.3.3,1.5,4.3,2.9,7,.6,1.1,1.8,3.4,2.1,3.3h0Z"/>
      <path class="st0" d="M1118.3,105.6l.2-.2c-1.4-.3-2.1-8.6,1.9-15.7,1.6-2.9,4-5.3,8.9-10,3.3-3.3,4.6-4,5.7-6.4.4-.8,2.6-5.5.6-10.2-2.3-5.2-8.5-6.8-8.5-6.6-.1.2,5.6,2.1,7.6,7.3,1.7,4.5-.3,8.9-.5,9.4-1.1,2.6-2.6,3.4-5.7,6.2-2.6,2.4-6.2,5.7-8.7,10,0,0-4.5,7.6-2.6,15.6.1.7.5,2.3,1.7,2.8.5.2,1.3.3,1.7-.2.5-.6,0-2-.7-2.3-.7-.3-1.2.4-1.6.3h0Z"/>
      <path class="st0" d="M1127.5,79.5c0-.1-.6,0-1.5,0-.8-.1-1.7-.1-2.4-.6-1.1-.9-.6-2.4-1.4-2.7-.7-.3-2,.6-2,1.6-.1,1.2,1.9,2.2,3.3,2.5,2.1.3,4-.8,4-1,0,0,0,.2,0,.2Z"/>
      <path class="st0" d="M1138,60h0c0,.2-6.2-1.8-9-7.2-3.5-6.9.7-14.9.9-14.9,0,.1-3.4,7.8,0,14.6,2.7,5.3,8.1,7.3,8.1,7.5h0Z"/>
      <path class="st0" d="M1096.3,110.8h0c-.8-.2.3-3.4,0-9.1-.2-2.3-.4-5.7-2-9.6-1.5-3.6-3.5-6-4.1-6.6-3.5-4-5.5-3.5-9.3-7.7-1.6-1.7-3.1-3.4-3.9-6.1-.3-.8-1.7-5.2.6-9.5,1.1-2.1,3.7-5.2,6.6-5,1.2.1,2.9.7,3.1,1.8.2.8-.4,1.8-1,1.8s-.7-1.3-1.6-1.8c-1.4-.8-4.2.8-5.7,2.7-3,3.8-1.4,9.2-1.2,9.8.8,2.5,2.1,3.9,3.9,5.9,4,4.3,6.1,3.9,9.5,7.9.6.7,2.5,3,3.9,6.5.6,1.4,2,5.2,2,10.1,0,2.8-.6,4.8,0,5,.8.3,2.7-3.2,3-3.1.4.2-2.8,7.4-3.8,7.1h0Z"/>
      <path class="st0" d="M1094.2,108.1h0c.2-.4.2-1,.2-1.3,0-.7-.6-1.7-1.2-1.7-.7-.1-1.8,1.4-1.3,2.4.4.7,1.8,1,2.3.5h0Z"/>
      <path class="st0" d="M1137.4,231.8h0c.2,0-3.5-20.6-8-42.9-5.7-27.9-9-40.8-10.5-46.5-4.3-16.3-8.8-30.5-9.1-30.5s2.9,11.3,7.7,30.5c4.7,19.3,8.1,34.4,10.8,46.7,5.9,27,8.9,42.7,9.1,42.7h0Z"/>
      <path class="st0" d="M1110.7,136.8c.3-.2,1.3-.7,1.8-.3.3.3.3-.7.3.9s.9,3,1.2,4.5c2.3,10.6,5.2,21.1,7.6,31.7,4.5,19.9,9.9,36.8,10.1,36.8.3,0-4.2-19.4-8.7-36.8-1.9-7.2-5.9-22.4-6.5-27.7,0-.8-.4-2.2-1-4.9-.7-3.1-1-4.1-1.9-4.7-.8-.5-1.7-.5-3.5-.5-3.2,0-6.1,1-6.1,1.3,0,.4,4.1.9,6.7-.3Z"/>
      <path class="st0" d="M1056.5,51h0c-.2.1-5.5-6.5-3.9-14,1.3-6.3,7-9.9,7.2-9.8,0,.2-5.2,3.9-6.4,10.4-1.4,7.2,3.2,13.4,3,13.4h0Z"/>
      <circle class="st1" cx="1105.7" cy="121.2" r="3.8"/>
    </g>
    <g id="Capa_3_copia_2">
      <g class="st17">
        <g>
          <path class="st12" d="M818.7,74.1v4.1c-3.3.3-4.3,1.6-5.7,3.4-1.3,39.8-.6,80-.7,119.7v5.9c0,2,.7,2,.5,2.4-.4,1-5.1.5-6.3.6V74.1h12.2Z"/>
          <path class="st12" d="M788.5,209.9c-.3.6-.5,1.4-.2,2.3.7,2,4,3.5,7.6,4,16.1,2.3,44.1.9,44.1.9,0,0,5.3,0,7.9-.4,1.1.2.8-.3,1.3,0,.4.2.7.7.9,1.6,0,.4.2.9.3,1.5h-79c0-.9,0-2.9,1.6-4.8,3.2-3.8,9.9-4.4,10.7-4.5,4.7-.7,4.8-.5,4.8-.5"/>
          <path class="st6" d="M818.9,130.4v1.7c-1.6-.2-1.1.6-1.1,1.2v4.5c0,.7-.5,1.4,1.1,1.2"/>
          <path class="st6" d="M818.9,120v4.1"/>
          <path class="st6" d="M818.9,109.7v6.2"/>
          <path class="st6" d="M818.9,86.6v86.3s-.3,22.4,0,33.9v3.1h16c8.5.8,14.6,7,14.6,7-2.1,0-5.4.1-9.5.2-18.2.6-32.7,1.8-44.1-.9-4.3-1-6.9-2.3-7.6-4-.3-.7-.3-1.5.2-2.4h18.6c2.2,0,3.7.3,4.5-.6.6-.6.3-1.4.3-2.4v-5.9c0-39.8-.6-80,.7-119.7.2-.4.7-2,3-2.8s3.2-.4,3.2-.4v8.6h0Z"/>
          <path class="st6" d="M840.2,210.8"/>
        </g>
      </g>
      <g class="st17">
        <path class="st12" d="M875.9,125.5c-.4,1.3-6,6.5-7.5,7.1-30.4,11.9-87.9,12.6-117.9,0-3.2-1.4-6.2-4.2-7.2-7.3-2.7-.1-6.3-.4-9.3-.9,6.3,8.7,28,14.4,36.3,16,21,4.2,45.5,4.5,66.7,1.8,4.2-.6,8.8-1.4,13-2.3,9.5-1.9,34.9-8.1,36.7-19.6,0-.9.2-1.7.3-2.5-2.4,1.1-6.3,2.6-11,4.4.2,1,.2,2.2,0,3.3h0Z"/>
        <path class="st7" d="M798.6,104.9c18.3-1,40,.5,57.7,5.3,6.3,1.7,22.3,6.5,19.6,15.3-.4,1.3-6,6.5-7.5,7.1-30.4,11.9-87.9,12.6-117.9,0-5.7-2.4-10.6-9.2-5.3-14.5,9.1-9,40.5-12.6,53.3-13.2h.1Z"/>
      </g>
      <g>
        <path class="st7" d="M155.5,64.3c8,0,14.2.8,18.6,2.4,4.4,1.6,8.2,3.3,11.2,5,1.5.9,2.7,1.5,3.6,1.9.9.4,1.8.6,2.7.6s2.1-.7,2.7-2c.6-1.3,1-3.4,1.4-6.1h4.2c-.1,2.6-.3,5.6-.5,9s-.3,8-.4,13.6v22.3h-4.2c-.5-6.7-2.1-13.3-4.7-19.7-2.6-6.4-6.3-11.7-10.9-15.8-4.6-4.2-10.1-6.3-16.5-6.3s-9.9,1.5-13.4,4.4c-3.6,2.9-5.3,7.2-5.3,12.7s1.1,8.4,3.3,11.7,5.7,6.7,10.4,10.2c4.7,3.6,10.9,8,18.7,13.4,5.5,3.8,10.5,7.6,15,11.4s8.1,8.1,10.8,12.9,4,10.6,4,17.3-2.3,15-6.9,20.4c-4.6,5.4-10.7,9.4-18.3,12.1-7.6,2.6-15.9,4-24.8,4s-15-.7-20-2.2-9.2-3-12.6-4.6c-2.7-1.7-4.8-2.6-6.3-2.6s-2.1.7-2.7,2c-.6,1.4-1,3.4-1.4,6.1h-4.2c.2-3.2.4-6.9.5-11.1,0-4.2,0-9.7.2-16.5v-25.8h4.2c.5,8.6,1.9,16.6,4.1,24.1,2.3,7.5,5.8,13.5,10.5,18.1,4.7,4.6,11,6.9,18.9,6.9s8.4-.7,11.7-2.1c3.2-1.4,5.8-3.5,7.6-6.2s2.8-5.9,2.8-9.8-1.2-9.7-3.5-13.5c-2.3-3.9-5.5-7.5-9.5-10.9s-8.6-6.8-13.9-10.2c-5.8-3.9-11.2-7.8-16.2-11.8-5-3.9-9-8.3-12.1-13.2-3-4.9-4.5-10.7-4.5-17.5s2.1-14.7,6.4-19.8,9.9-8.9,16.9-11.3c7-2.5,14.4-3.7,22.3-3.7v.2h0Z"/>
        <path class="st7" d="M282.7,66.9l44.5,114.8c1.7,4.2,3.6,7.1,5.5,8.9,2,1.8,3.7,2.7,5.3,2.9v3.7c-4.4-.2-9.6-.4-15.5-.5h-35.7c-5.5,0-9.9.2-13.2.5v-3.7c6.3-.2,10.2-1.3,11.9-3.2,1.7-1.9,1.3-6-1.2-12.2l-29.4-81.5,3.7-6.4-25.4,66.1c-3.1,8-4.9,14.4-5.6,19.2-.7,4.8-.4,8.6.8,11.1,1.2,2.6,3.2,4.4,5.9,5.3,2.7,1,5.9,1.5,9.6,1.7v3.7c-4.5-.2-8.6-.4-12.2-.5h-19.4c-2.6,0-4.9.2-6.7.5v-3.7c2.8-.5,5.6-2.3,8.4-5.4,2.8-3.1,5.6-8.5,8.6-16.1l40.8-105.1c2.9.2,6.2.4,9.7.4s6.7-.1,9.7-.4h-.1ZM289.1,144.2v3.7h-54.8l1.8-3.7h53Z"/>
        <path class="st7" d="M403.6,66.9v3.7c-4.2.1-7.3.6-9.5,1.4-2.1.8-3.6,2.3-4.3,4.4-.7,2.1-1.1,5.5-1.1,10v94.9c0,3.3.2,5.8.7,7.5s1.4,2.8,2.8,3.3c1.3.6,3.3.8,5.9.8h6.1c3.2,0,6.6-1.2,10.3-3.7,3.7-2.5,7.3-5.8,10.8-10.1,3.5-4.3,6.5-9.2,9.1-14.6,2.6-5.5,4.4-11.1,5.5-17h4.2c-.4,4.4-.6,10.1-.6,16.9s0,7.8.2,13.9c.1,6.1.5,12.4,1.1,18.9-6.3-.2-13.3-.4-21.2-.5h-50.2c-6,0-12,.1-18,.2-6.1,0-11.8.2-17.2.3v-3.7c3.8-.2,6.6-.7,8.5-1.5,1.8-.7,3.1-2.2,3.7-4.4.6-2.2.9-5.5.9-9.9v-91.3c0-4.5-.3-7.9-.9-10s-1.9-3.6-3.8-4.4c-1.9-.8-4.7-1.3-8.4-1.4v-3.7c3.6.1,8.2.2,14.1.4,5.8.1,12.1.2,18.7.2s12.1,0,18-.2c5.9-.1,10.7-.2,14.5-.4h0Z"/>
        <path class="st7" d="M524.5,64.3c13.9,0,26,2.6,36.4,7.9,10.4,5.3,18.5,12.9,24.3,22.7,5.8,9.9,8.6,21.9,8.6,36s-2.9,25.8-8.8,36.1c-5.9,10.3-14.1,18.3-24.6,24.1-10.5,5.8-22.5,8.6-36.2,8.6s-26-2.6-36.4-7.9-18.5-12.9-24.3-22.8-8.6-21.9-8.6-35.9,3-25.8,8.9-36.1,14.1-18.3,24.6-24.1c10.4-5.8,22.4-8.6,36.1-8.6h0ZM523.7,67.6c-6.1,0-11.5,2.8-16,8.3s-8,13.1-10.5,22.8-3.7,20.9-3.7,33.7,1.4,24.3,4.2,33.9c2.8,9.6,6.6,17.1,11.4,22.3,4.8,5.2,10.1,7.8,15.8,7.8s11.5-2.8,16-8.3,8-13.2,10.5-22.9c2.5-9.8,3.7-20.9,3.7-33.6s-1.4-24.5-4.2-34c-2.8-9.6-6.6-17-11.4-22.2-4.8-5.2-10.1-7.8-15.8-7.8Z"/>
        <path class="st7" d="M771.4,66.9v3.7c-3.7.1-6.5.6-8.4,1.4-1.9.8-3.2,2.3-3.8,4.4-.6,2.1-.9,5.5-.9,10v91.3c0,4.4.3,7.7,1,9.9.7,2.2,1.9,3.7,3.8,4.4s4.6,1.2,8.3,1.5v3.7c-3.8-.2-8.6-.4-14.5-.5h-36.7c-5.8,0-10.5.2-14.1.5v-3.7c4.2-.2,7.3-.7,9.5-1.5,2.1-.7,3.6-2.2,4.3-4.4.7-2.2,1.1-5.5,1.1-9.9v-98.4l1.8-.4-46.2,118.1h-2.9l-51.9-118.1v82.3c0,8.2.3,14.5,1,18.9s2.3,7.5,5,9.4c2.6,1.9,6.8,3.3,12.6,4.1v3.7c-2.5-.2-5.6-.4-9.6-.5h-19.3c-2.8,0-5.2.2-7,.5v-3.7c3.8-.9,6.6-2.2,8.5-4,1.8-1.8,3.1-4.6,3.7-8.6.6-3.9.9-9.3.9-16.2v-78.4c0-4.5-.3-7.9-.9-10-.6-2.1-1.9-3.6-3.8-4.4-1.9-.8-4.7-1.3-8.4-1.4v-3.7c1.8.1,4.2.2,7,.4,2.8.1,5.6.2,8.3.2,7.1,0,13.9,0,20.4-.2,6.5-.1,12.4-.2,17.7-.4l36.4,82.1-5.5,6.1,34-87.6h16c6.1,0,12.1,0,18-.2,5.9-.1,10.7-.2,14.5-.4h.1Z"/>
        <path class="st7" d="M851.3,64.3c13.9,0,26,2.6,36.4,7.9,10.4,5.3,18.5,12.9,24.3,22.7,5.8,9.9,8.6,21.9,8.6,36s-2.9,25.8-8.8,36.1c-5.9,10.3-14.1,18.3-24.6,24.1-10.5,5.8-22.5,8.6-36.2,8.6s-26-2.6-36.4-7.9-18.5-12.9-24.3-22.8-8.6-21.9-8.6-35.9,3-25.8,8.9-36.1,14.1-18.3,24.6-24.1c10.4-5.8,22.4-8.6,36.1-8.6h0ZM850.5,67.6c-6.1,0-11.5,2.8-16,8.3s-8,13.1-10.5,22.8-3.7,20.9-3.7,33.7,1.4,24.3,4.2,33.9,6.6,17.1,11.4,22.3c4.8,5.2,10.1,7.8,15.8,7.8s11.5-2.8,16-8.3,8-13.2,10.5-22.9c2.5-9.8,3.7-20.9,3.7-33.6s-1.4-24.5-4.2-34c-2.8-9.6-6.6-17-11.4-22.2-4.8-5.2-10.1-7.8-15.8-7.8Z"/>
        <path class="st7" d="M1056.1,66.9v3.7c-3.7.7-6.5,2-8.4,3.9-1.9,1.8-3.2,4.7-3.8,8.6-.6,3.9-.9,9.3-.9,16.3v97.9c-1.8-.2-3.8-.4-6-.4s-4.4.1-6.9.4l-81.5-89.1v53c0,8.2.3,14.5,1,18.9s2.3,7.5,5,9.4c2.6,1.9,6.8,3.3,12.6,4.1v3.7c-2.5-.2-5.6-.4-9.6-.5h-19.3c-2.8,0-5.2.2-7,.5v-3.7c3.8-.9,6.6-2.2,8.5-4,1.8-1.8,3.1-4.6,3.7-8.6.6-3.9.9-9.3.9-16.2v-78.4c0-4.5-.3-7.9-.9-10-.6-2.1-1.9-3.6-3.8-4.4-1.9-.8-4.7-1.3-8.4-1.4v-3.7c1.8.1,4.2.2,7,.4,2.8.1,5.6.2,8.3.2s6.1,0,9-.2c2.9-.1,5.6-.2,7.9-.4l75.3,79.5v-43.4c0-8.2-.3-14.5-1-18.9s-2.3-7.5-4.9-9.5-6.8-3.3-12.7-4v-3.7c2.5.1,5.6.2,9.6.4,3.9.1,7.6.2,11,.2s5.6,0,8.4-.2c2.8-.1,5.1-.2,6.9-.4Z"/>
      </g>
      <g id="Capa_2_copia_2" class="st17">
        <g>
          <path class="st14" d="M880.6,101.6c-26.7-20-113.1-19.4-140.8-.8-7.3,4.9-9.2,11.5-7.5,20.1.2,1.2.8,2.4,1.6,3.5,3,.5,5.2.7,8,.8,0-2.3,1-4.8,3.3-7.1,9.1-9,40.5-12.6,53.3-13.2,18.3-1,40,.5,57.7,5.3,5.4,1.5,22,3.9,23.6,10.6,4.7-1.8,4.7-1.9,7.1-3,.6-6.6-.6-11.9-6.4-16.2h.1Z"/>
          <path class="st6" d="M739.9,100.8c6.8-49.4,58-84.5,104.6-56.8,19.7,11.8,32.7,33.7,36.2,55.2v2.3c-26.7-20-113.1-19.4-140.8-.8h0Z"/>
        </g>
      </g>
      <g class="st15">
        <g class="st15">
          <text class="st16" transform="translate(356.7 255.7)"><tspan x="0" y="0">HAIR STUIDIO</tspan></text>
        </g>
      </g>
      <line class="st10" x1="104.8" y1="24.7" x2="1066.1" y2="24.7"/>
      <line class="st10" x1="93.1" y1="239.3" x2="333.6" y2="239.3"/>
      <line class="st10" x1="823.7" y1="239.3" x2="1078" y2="239.3"/>
      <g class="st17">
        <path d="M893-52.7c17.2-1.8,33.4-6.9,49.8-11.5,8.3-2.4,16.8-4.3,25.1-6.5,2.4-.6,4.4,0,6.3,1.3,4,2.7,7.1,6.1,9.6,10.2,4,6.8,6,14.2,6.7,21.9.9,9.7,0,19.3-3.2,28.6-2.5,6.9-5.8,13.3-11.3,18.5-2.7,2.5-5.7,4.4-9.3,5.7-1.7.6-3.3.6-5,0-9-2.9-18-5.8-27-8.7-10.6-3.4-21.4-6.2-32.4-8-2.9-.5-5.8-.8-8.9-1.2,6.6-7.2,8.3-15.9,8.3-25.2s-2.1-17.9-8.6-25.2h0ZM979.6-60.5c-.8-1.1-1.7-2.2-2.6-3.4-.7-1.1-1.6-1.4-2.9-1.4-7.1.2-14,1.7-20.8,3.6-11.2,3-22.3,6.3-33.5,9.3-5.9,1.6-12,2.8-18,4.3.4.7,1,1.4,1.4,2.2.7,1.5,1.8,1.9,3.4,1.5,9.6-2.2,19.3-4.2,28.9-6.5,10.6-2.5,21.2-5.3,31.9-7.7,4-.9,8.1-1.2,12.2-1.8h0Z"/>
        <path d="M984.3,112.7c.8-.8,1.5-1.7,2.3-2.5,1.1-1,2.1-2.3,3.4-2.9,2.4-1.3,4.9-.2,6,2.3.9,2.1.8,4.3,0,6.4-2.4,7-7.2,11.5-14.4,13.3-1.2.3-1.9.8-2.3,2-1.3,3.3-.8,3.4-4.8,1.9-1.1-.4-2.1-1.1-3-1.7-2-1.4-2.8-3-2.5-5.6.8-5.9.4-11.9-.4-17.9,0-.5-.5-1.1-.9-1.4-2.3-1.5-3.6-3.6-3.2-6.3.5-3.9,1.5-7.7,2.3-11.7.4.3.6.3.6.4,0,2.6,1.2,3.4,4,2.6,2.2-.6,3.7-2.1,4.9-3.9,2.9-4.2,4.2-9,5-13.9,2-12.5,2.5-25,.5-37.5-.3-2-.9-4-1.6-6-2.1-6-6.4-9.9-12.2-12.2-.3-.1-.6-.2-.8-.3h0c2.9-1,5.9-1.7,8.7-3,7.4-3.4,12.4-9.3,15.8-16.6,4.8-10.2,6.1-21,5.6-32.2-.4-8.3-2.1-16.4-6-23.8-.7-1.3-1.5-2.5-2.3-3.9,12.1-.5,23.7,1,35,5.3v-.4c-3.4-1.4-6.8-3-10.3-4.1-8.7-2.9-17.6-4.5-26.8-4.7-.5,0-1.2,0-1.5-.4-2.1-2.2-4.3-4.1-7.3-5.1v-.4c3.5.2,7,0,10.5.5,12.3,1.2,23.9,4.7,34.7,10.7,8.3,4.6,15.3,10.7,19.7,19.3,6.5,12.6,4.4,27.8-5.3,38.6-5.8,6.5-13.2,10.2-21.1,13.5-2.5,1-5.1,2-7.6,3.2-6.7,3.2-9.8,8.6-9.4,16,.4,7.9,1,15.9,1,23.8,0,14.4-2.4,28.5-7.3,42.1-1.3,3.7-3.6,6.8-7.2,8.7-.4.2-.8.7-.9,1.1-.5,2.2-.9,4.3-1.3,6.5.2,0,.3.1.5.2h-.3.2ZM1012.3-8.3c.6-1.1,1.2-2.1,1.7-3.2,2.4-5.1,3.1-10.6,3.2-16.1.2-6.8-.9-13.3-4.2-19.3-.5-.9-1.2-1.6-1.8-2.4-.2,0-.4,0-.6.2,1.4,13.5,2.1,27.1,1.7,40.8h0ZM999.7-49.8c-.3,0-.5,0-.8.2,1.9,13.5,1.8,27.1.4,40.7.5-.3.9-.7,1.2-1.1.9-1.9,1.9-3.7,2.5-5.6,1.9-6.2,2.5-12.5,1.8-18.9-.5-4.7-1.5-9.2-3.8-13.3-.4-.7-.9-1.3-1.3-1.9h0ZM1024.7-8.5c.5-.9,1-1.8,1.4-2.7,2.8-7.5,3.2-15.2,2-23-.6-4.2-1.9-8.3-4.5-11.8-.4-.6-.9-1-1.4-1.5,0,0-.3,0-.4.2,1.8,12.9,3.2,25.8,3,38.9h0ZM1036.1-9.6c4.8-7.6,5.2-26.7-3.4-34.3,2.5,11.4,3.8,22.8,3.4,34.3ZM981.6,124.5c5.5-1.8,9.1-4.9,10.7-10.1.2-.8-.3-1.8-.5-2.8-.7.4-1.4.8-2.1,1.3-.2.1-.3.4-.5.6-1.6,1.8-3.2,3.7-5.5,4.6-.3.1-.6.4-.7.7-.5,1.7-.9,3.5-1.5,5.6h0Z"/>
        <path d="M846.2-28.1c0-10.5.7-21.9,3.3-33.2.2-1,.5-2.1.9-3,1.1-2.7,3.6-3.7,6.2-2.4,3.6,1.8,7.2,3.7,10.8,5.6,6.2,3.2,12.8,5.6,19.6,7.3,1.6.4,3,1.6,4.3,2.7,4.3,4,6.4,9.2,7.3,14.8,1.5,8.8,1.1,17.5-2.6,25.7-1,2.1-2.3,4.2-3.8,6-1.7,2.2-3.8,3.7-6.7,4.3-9.3,2-17.8,6.1-26,10.7-1,.6-2,1.1-3.1,1.6-2.2.9-4.4.3-5.5-1.8-.8-1.5-1.3-3.1-1.6-4.7-2.4-10.7-3-21.7-3.1-33.7h0ZM856.1,3.4h.6c.4-.4.9-.9,1.2-1.3,2.5-3.4,5.2-6.6,7.5-10.1,1-1.5,1.7-3.5,2-5.3,1.2-8.2,1.1-16.5.6-24.7-.2-3.4-.4-6.8-2.6-9.7-2.4-3.1-4.9-6-7.4-9-.4-.4-.9-.8-1.5-1.4-.3,1-.7,1.7-.8,2.5-1.3,5.6-1.6,11.3-1.5,17.1,0,11.5.3,23.1.6,34.6,0,2.5.9,4.9,1.4,7.4h0ZM896.7-32.4c-.5-5-1.5-10.2-4.8-14.6-.5-.6-1.4-1-2.2-1.2-2.6-.8-5.2-1.4-7.7-2.3-5-1.6-9.9-3.4-14.9-5.1,1.3,1.4,2.6,2.8,3.8,4.2,1.7,2,3.8,3.4,6.4,4.1,4.2,1.2,8.4,2.6,12.6,3.8,1.8.5,3.2,1.3,3.9,3.1,1.1,2.7,2,5.5,2.9,8Z"/>
        <path d="M968.6,130.3c2.4,2.8,5.4,4.2,8.9,5-1.9,4.1-4.8,7.3-8.6,9.6-7.3,4.6-15.1,5-23.2,2.4-3.3-1.1-6.5-2.5-9.8-3.6s-6.7-1.2-9.9.3c-3,1.4-4.9,3.8-6,7.2,32-1.4,63.8-1,95.5,2.7-42.4,3.5-84.8,3.2-127.2.3v-.6c1.2-.2,2.5-.4,3.7-.5,5.5-.5,10.9-.9,16.4-1.3,1,0,1.3-.6,1.5-1.3,1-3.2,2.3-6.3,4.5-8.9,5.6-6.8,12.9-9.2,21.3-7.5,3.7.7,7.3,2.4,11,3.4,2.6.7,5.3,1.6,8,1.7,6.4.3,10.9-2.7,13.8-8.3,0-.2,0-.3.3-.6h-.2Z"/>
        <path d="M979.7,43.3v6.5c0,1.9-1.1,2.8-3,2.9h-.6c-5.8.2-7.8-1.4-9-7.1-.8-4.2-.5-8.3,1.4-12.1,1.5-3,5.8-4.5,8.8-3.1.8.4,1.3,1.7,1.8,2.6.2.5.3,1.1.3,1.6.2,2.9.4,5.8.6,8.6h-.3ZM976.2,49.2c-1.4-5.2-.9-10.3-.5-15.8-2.6,3.8-2.3,12.6.5,15.8Z"/>
        <path d="M979.8,64.6c-.3,3-.6,6-1,9-.3,2.1-1.2,2.8-3.4,3h-2.6c-1.8,0-3.1-1.1-3.5-2.8-1.2-4.2-.9-8.4.7-12.5.7-1.7,2.1-2.6,3.9-2.6h1.5c3.4,0,4.1.7,4.2,4.2v1.7h.2,0ZM975.6,72.1h0c.2-3.2.4-6.4.6-9.6h-.7v9.7h.1Z"/>
        <path d="M859.2-9.9c.2-.9,0-2.6,1.4-2.6s1.3,1.7,1.3,2.8-.2,2.3-1.4,2.3-1.4-1.3-1.4-2.6h.1Z"/>
        <path d="M859-46.4c.4-.8.7-1.6,1.2-2.3h.9c.3.9.5,1.8.7,2.6v.4c-.5.5-1,1.1-1.5,1.6-.3-.6-.6-1.1-.9-1.7v-.6h-.4Z"/>
        <path d="M859-50.4c-.8,1-1.3,2.2-2,2.3-1.2.2-1.3-1-1.3-1.9s0-2.5,1.4-2.6c.6,0,1.1,1.2,1.9,2.2h0Z"/>
        <path d="M865.6-42.4c0,.3-.2.9-.5,1.3-.3.3-.8.6-1.3.6s-.7-.6-.8-.9c-.2-.4-.3-.9,0-1.3.3-.8.8-2,1.2-2,1.3,0,1.4,1.2,1.5,2.4h-.1Z"/>
        <path d="M855.3-3.9c.8-.9,1.4-1.6,2-2.3.4.8,1.1,1.5,1.2,2.3,0,1-.2,2.2-1.5,2.1-.6,0-1-1.2-1.7-2.1Z"/>
        <path d="M862.3-13.3c.7-.9,1.2-2.1,1.8-2.2,1.2,0,1.5,1.1,1.4,2.1,0,1-.3,2.3-1.5,2.2-.5,0-1-1.2-1.7-2h0Z"/>
        <path d="M866-36.7c-.5,1.2-.4,2.2-1.8,2.1-1.2,0-1.2-1.1-1.2-1.9s0-2.2,1.4-2.1c.6,0,1.1,1.2,1.6,1.9Z"/>
        <path d="M865.9-19c-.5.5-1,1.4-1.6,1.5-1.3.3-1.4-.9-1.4-1.8s0-1.9,1.2-1.9,1.3,1,1.7,2.3h0Z"/>
        <path d="M865.9-25.5c-.4,1.2-.3,2.4-1.6,2.4s-1.3-.9-1.2-1.7c0-.9,0-2.2,1.2-2.2s1.1,1,1.6,1.5Z"/>
        <path d="M862.6-30.6c.8-.9,1.2-2,1.8-2.1,1.2,0,1.2,1,1.3,2,0,1-.3,2-1.5,1.8-.5,0-.9-.9-1.6-1.7Z"/>
        <path d="M859.4-39.4c.3-1.3,0-2.7,1.4-2.6.4,0,1,1.2,1.1,1.9,0,1-.3,2.1-1.6,2-.4,0-.7-1-.9-1.3Z"/>
        <path d="M859-28c.7-.9,1.1-2,1.8-2.1,1.1-.2,1.1,1.1,1.1,1.9s-.2,2.1-1.4,2c-.4,0-.8-1-1.4-1.8h0Z"/>
        <path d="M858.8-38.5c-.8,1-1.2,2.1-1.9,2.3-.9.3-1.2-.8-1.2-1.6s.3-2.1,1.6-2.1.8.8,1.5,1.5h0Z"/>
        <path d="M859.4-21.4c.2-1.5,0-2.8,1.4-2.9.3,0,.9,1.3,1,2,0,.9-.2,2.1-1.5,2-.4,0-.7-.9-.9-1.1Z"/>
        <path d="M859.2-15.9c.4-1.3.4-2.8,1.7-2.6,1.3,0,1.1,1.7.8,2.7-.2.6-.9,1-1.3,1.5-.4-.5-.8-1-1.2-1.6Z"/>
        <path d="M859-33.7c.7-1,1.1-2.3,1.8-2.4,1.2-.2,1.1,1.1,1.1,1.9s0,2.1-1.4,2.1-.8-.9-1.4-1.6h0Z"/>
        <path d="M858.6-44.1c-.7.9-1.1,2-1.7,2.1-1,.2-1.3-.9-1.3-1.8s.3-2.1,1.5-2.1.9,1.1,1.5,1.9h0Z"/>
        <path d="M858.8-26.8c-.7.9-1.2,1.9-1.8,2.1-1.1.2-1.1-.9-1.1-1.7s.3-2,1.5-2,.8.9,1.5,1.6h-.1Z"/>
        <path d="M858.6-15c-.7.7-1.1,1.7-1.7,1.7-1.1,0-1.2-1-1.2-1.8s.4-1.9,1.5-1.9.8,1.1,1.4,2Z"/>
        <path d="M855.2-32.3c.8-.8,1.4-1.4,2-2,.3.6,1,1.3.9,1.9,0,.7-.8,1.4-1.2,2.1-.5-.6-1-1.2-1.7-2.1h0Z"/>
        <path d="M858.5-9.9c-.4,1.2-.5,2.2-1.7,2.2s-1-1.1-1-1.8.3-1.9,1.3-1.8c.5,0,.9,1,1.4,1.5h0Z"/>
        <path d="M858.6-20.8c-.7.8-1.1,1.9-1.8,2-.9.2-1.1-.8-1.1-1.6s0-2.2,1.4-2.2.8.9,1.4,1.7h0Z"/>
      </g>
    </g>
  </g>
</svg>